<svg viewBox="0 0 330 200" xmlns="http://www.w3.org/2000/svg"><g><g><g><g><g><line x1="39.15625" y1="177" x2="34.15625" y2="177" style="visibility: inherit;" fill="rgb(0, 0, 0)" stroke="rgb(204, 204, 204)" stroke-width="1px"></line><line x1="39.15625" y1="154.875" x2="34.15625" y2="154.875" style="visibility: inherit;" fill="rgb(0, 0, 0)" stroke="rgb(204, 204, 204)" stroke-width="1px"></line><line x1="39.15625" y1="132.75" x2="34.15625" y2="132.75" style="visibility: inherit;" fill="rgb(0, 0, 0)" stroke="rgb(204, 204, 204)" stroke-width="1px"></line><line x1="39.15625" y1="110.625" x2="34.15625" y2="110.625" style="visibility: inherit;" fill="rgb(0, 0, 0)" stroke="rgb(204, 204, 204)" stroke-width="1px"></line><line x1="39.15625" y1="88.5" x2="34.15625" y2="88.5" style="visibility: inherit;" fill="rgb(0, 0, 0)" stroke="rgb(204, 204, 204)" stroke-width="1px"></line><line x1="39.15625" y1="66.375" x2="34.15625" y2="66.375" style="visibility: inherit;" fill="rgb(0, 0, 0)" stroke="rgb(204, 204, 204)" stroke-width="1px"></line><line x1="39.15625" y1="44.25" x2="34.15625" y2="44.25" style="visibility: inherit;" fill="rgb(0, 0, 0)" stroke="rgb(204, 204, 204)" stroke-width="1px"></line><line x1="39.15625" y1="22.125" x2="34.15625" y2="22.125" style="visibility: inherit;" fill="rgb(0, 0, 0)" stroke="rgb(204, 204, 204)" stroke-width="1px"></line><line x1="39.15625" y1="0" x2="34.15625" y2="0" style="visibility: inherit;" fill="rgb(0, 0, 0)" stroke="rgb(204, 204, 204)" stroke-width="1px"></line></g><g transform="translate(29.15625, 0)"><text x="0" y="177" dx="0em" dy="0.3em" style="text-anchor: end; visibility: hidden; font-family: &quot;Helvetica Neue&quot;, sans-serif; font-size: 12px; font-weight: 200;" fill="rgb(50, 49, 63)" stroke="none" stroke-width="1px">-10</text><text x="0" y="154.875" dx="0em" dy="0.3em" style="text-anchor: end; visibility: inherit; font-family: &quot;Helvetica Neue&quot;, sans-serif; font-size: 12px; font-weight: 200;" fill="rgb(50, 49, 63)" stroke="none" stroke-width="1px">0</text><text x="0" y="132.75" dx="0em" dy="0.3em" style="text-anchor: end; visibility: hidden; font-family: &quot;Helvetica Neue&quot;, sans-serif; font-size: 12px; font-weight: 200;" fill="rgb(50, 49, 63)" stroke="none" stroke-width="1px">10</text><text x="0" y="110.625" dx="0em" dy="0.3em" style="text-anchor: end; visibility: inherit; font-family: &quot;Helvetica Neue&quot;, sans-serif; font-size: 12px; font-weight: 200;" fill="rgb(50, 49, 63)" stroke="none" stroke-width="1px">20</text><text x="0" y="88.5" dx="0em" dy="0.3em" style="text-anchor: end; visibility: hidden; font-family: &quot;Helvetica Neue&quot;, sans-serif; font-size: 12px; font-weight: 200;" fill="rgb(50, 49, 63)" stroke="none" stroke-width="1px">30</text><text x="0" y="66.375" dx="0em" dy="0.3em" style="text-anchor: end; visibility: inherit; font-family: &quot;Helvetica Neue&quot;, sans-serif; font-size: 12px; font-weight: 200;" fill="rgb(50, 49, 63)" stroke="none" stroke-width="1px">40</text><text x="0" y="44.25" dx="0em" dy="0.3em" style="text-anchor: end; visibility: hidden; font-family: &quot;Helvetica Neue&quot;, sans-serif; font-size: 12px; font-weight: 200;" fill="rgb(50, 49, 63)" stroke="none" stroke-width="1px">50</text><text x="0" y="22.125" dx="0em" dy="0.3em" style="text-anchor: end; visibility: inherit; font-family: &quot;Helvetica Neue&quot;, sans-serif; font-size: 12px; font-weight: 200;" fill="rgb(50, 49, 63)" stroke="none" stroke-width="1px">60</text><text x="0" y="0" dx="0em" dy="0.3em" style="text-anchor: end; visibility: hidden; font-family: &quot;Helvetica Neue&quot;, sans-serif; font-size: 12px; font-weight: 200;" fill="rgb(50, 49, 63)" stroke="none" stroke-width="1px">70</text></g><line x1="39.15625" y1="0" x2="39.15625" y2="177" fill="rgb(0, 0, 0)" stroke="rgb(204, 204, 204)" stroke-width="1px"></line></g></g><g transform="translate(39, 0)" clip-path="url(#clip_0)"><clipPath id="clip_0"><rect width="290" height="177"></rect></clipPath><g><g><g><line x1="0" y1="0" x2="0" y2="177" fill="rgb(0, 0, 0)" stroke="rgb(60, 60, 60)" stroke-width="1px" opacity="0.25"></line><line x1="36.35546875" y1="0" x2="36.35546875" y2="177" fill="rgb(0, 0, 0)" stroke="rgb(60, 60, 60)" stroke-width="1px" opacity="0.25"></line><line x1="72.7109375" y1="0" x2="72.7109375" y2="177" fill="rgb(0, 0, 0)" stroke="rgb(60, 60, 60)" stroke-width="1px" opacity="0.25"></line><line x1="109.06640625" y1="0" x2="109.06640625" y2="177" fill="rgb(0, 0, 0)" stroke="rgb(60, 60, 60)" stroke-width="1px" opacity="0.25"></line><line x1="145.421875" y1="0" x2="145.421875" y2="177" fill="rgb(0, 0, 0)" stroke="rgb(60, 60, 60)" stroke-width="1px" opacity="0.25"></line><line x1="181.77734375" y1="0" x2="181.77734375" y2="177" fill="rgb(0, 0, 0)" stroke="rgb(60, 60, 60)" stroke-width="1px" opacity="0.25"></line><line x1="218.1328125" y1="0" x2="218.1328125" y2="177" fill="rgb(0, 0, 0)" stroke="rgb(60, 60, 60)" stroke-width="1px" opacity="0.25"></line><line x1="254.48828125" y1="0" x2="254.48828125" y2="177" fill="rgb(0, 0, 0)" stroke="rgb(60, 60, 60)" stroke-width="1px" opacity="0.25"></line><line x1="290.84375" y1="0" x2="290.84375" y2="177" fill="rgb(0, 0, 0)" stroke="rgb(60, 60, 60)" stroke-width="1px" opacity="0.25"></line></g><g><line x1="0" y1="177" x2="290.84375" y2="177" fill="rgb(0, 0, 0)" stroke="rgb(60, 60, 60)" stroke-width="1px" opacity="0.25"></line><line x1="0" y1="154.875" x2="290.84375" y2="154.875" fill="rgb(0, 0, 0)" stroke="rgb(60, 60, 60)" stroke-width="1px" opacity="0.25"></line><line x1="0" y1="132.75" x2="290.84375" y2="132.75" fill="rgb(0, 0, 0)" stroke="rgb(60, 60, 60)" stroke-width="1px" opacity="0.25"></line><line x1="0" y1="110.625" x2="290.84375" y2="110.625" fill="rgb(0, 0, 0)" stroke="rgb(60, 60, 60)" stroke-width="1px" opacity="0.25"></line><line x1="0" y1="88.5" x2="290.84375" y2="88.5" fill="rgb(0, 0, 0)" stroke="rgb(60, 60, 60)" stroke-width="1px" opacity="0.25"></line><line x1="0" y1="66.375" x2="290.84375" y2="66.375" fill="rgb(0, 0, 0)" stroke="rgb(60, 60, 60)" stroke-width="1px" opacity="0.25"></line><line x1="0" y1="44.25" x2="290.84375" y2="44.25" fill="rgb(0, 0, 0)" stroke="rgb(60, 60, 60)" stroke-width="1px" opacity="0.25"></line><line x1="0" y1="22.125" x2="290.84375" y2="22.125" fill="rgb(0, 0, 0)" stroke="rgb(60, 60, 60)" stroke-width="1px" opacity="0.25"></line><line x1="0" y1="0" x2="290.84375" y2="0" fill="rgb(0, 0, 0)" stroke="rgb(60, 60, 60)" stroke-width="1px" opacity="0.25"></line></g></g></g><g><g><line x1="0" y1="154.875" x2="290.84375" y2="154.875" fill="rgb(0, 0, 0)" stroke="rgb(153, 153, 153)" stroke-width="1.5px"></line></g></g><g><g><line x1="36.35546875" y1="0" x2="36.35546875" y2="177" fill="rgb(0, 0, 0)" stroke="rgb(153, 153, 153)" stroke-width="1.5px"></line></g></g><g><g><g><g><g><path stroke="rgb(255, 112, 67)" stroke-width="2px" d="M48.57090625,-0.6555469698407421L48.7890390625,9.364318075324604L49.22530468750001,19.63320647736569L49.298015625000005,18.09657492544713L49.4434375,28.015319337658468L49.661570312500004,23.998388551510033L49.8069921875,25.11098543576108L49.879703125000006,23.28465337615748L50.025124999999996,24.709749011175035L50.170546875,28.851045444009543L50.2432578125,26.295674301618533L50.75223437499999,26.987945867440345L51.333921874999994,36.73766791872475L51.4066328125,43.15891060383737L51.47934375,39.99199221343696L51.7701875,27.64478051787981L52.497296874999996,25.503216977872484L52.570007812499995,29.065823276018136L52.7154296875,32.61555056045961L53.0062734375,31.23619637173715L53.22440625,33.93782114793248L53.2971171875,35.07683386689061L53.369828125,36.35983385971568L53.5879609375,42.14111718136897L54.4604921875,46.45473632215757L54.8967578125,44.11921416878283L55.114890625,43.41173447584853L55.2603125,46.048883336876315L55.3330234375,46.050782715138496L55.4784453125,48.97824190310041L55.7692890625,43.50518393427967L56.0601328125,46.026882848208174L56.205554687500005,49.664345803895614L56.569109375000004,54.63637433948459L57.5870625,53.962747855796465L57.9506171875,56.759009797462255L58.023328125000006,50.01092849200275L58.31417187500001,47.26262566819969L58.386882812500005,49.466086677164924L58.677726562500006,52.16565519538587L58.750437500000004,44.111991555494455L58.895859375,32.75612895429276L59.113992187499996,37.825940250993625L59.477546874999994,46.87028659322314L59.55025781249999,44.80417753302129L59.62296875,53.03522475864335L59.9865234375,51.652576925193316L60.059234374999996,52.750769292017836L60.131945312499994,53.70628719013992L60.350078124999996,55.64446357537544L61.004476562499995,64.18937011986517L61.1498984375,62.30700425880876L61.586164062499996,59.62091462956505L62.531406249999996,57.824998385588145L62.7495390625,53.964224514293576L63.0403828125,56.03058373506539L63.3312265625,58.07948299631876L63.4766484375,61.193941018494385L63.7674921875,59.218349817700656L63.840203125,66.68202139574734L63.9129140625,69.58052986167935L64.0583359375,67.39160006346147L64.421890625,69.00710387886669L64.7854453125,69.3970698491401L64.85815625000001,74.82104925964273L66.02153125,79.44019620808362L66.5305078125,65.47468870873688L66.96677343750001,68.98870604750776L67.039484375,70.20911855648316L67.18490625,70.35860984772657L67.621171875,67.22168247968087L68.2755703125,66.05128625553924L68.42099218749999,71.52510574532793L68.493703125,70.55496006890087L68.7118359375,68.85591059257953L69.1481015625,65.47204370814782L69.7297890625,63.04735868643654L69.8025,58.95560255927403L70.0206328125,62.86514597465134L70.09334375,62.63642692881547L70.7477421875,73.91341467093063L70.820453125,73.31891258353374L71.6202734375,68.53146199103821L71.83840625,66.66394116709608L71.9111171875,67.2338966979383L72.0565390625,73.85779207073443L72.2019609375,71.88358456327194L73.2199140625,64.99811506291434L73.58346875,64.51697221768025L73.728890625,64.58373616797995L73.9470234375,70.42774826206727L74.456,71.60453508089758L74.5287109375,70.15079313868746L74.9649765625,74.73780462237873L75.1103984375,75.37111468489576L75.183109375,76.78819996938469L75.32853125,80.46766154542782L75.40124218749999,81.53524570807946L75.619375,82.73859177795131L75.764796875,80.93967922906327L76.1283515625,80.51354855764062L76.2010625,80.81395253698916L76.8554609375,76.50618175244861L77.0008828125,77.7695495437177L77.2917265625,71.91396222058488L77.36443750000001,71.52990843739244L77.72799218749999,68.90155235461074L78.0188359375,75.43460910517977L78.091546875,78.84293757080441L78.3096796875,82.53785345434788L78.45510156249999,84.67936273026254L78.6005234375,81.42140513663165L78.673234375,75.7503557467739L78.7459453125,75.77238820697548L78.81865625,78.79994987669994L78.964078125,80.7954085017646L79.03678906249999,80.01528205784587L79.40034375,74.15094921059864L79.4730546875,75.2140502468792L79.98203125,79.56485695934578L80.127453125,69.81747382221391L80.56371875,75.42530114971262L80.709140625,79.74901312543548L81.0726953125,82.75151435109137L81.43625,83.05058390362358L81.58167187500001,77.9683531764942L82.45420312499999,83.7570805551885L82.9631796875,81.59767198576202L83.035890625,85.2333080578665L83.18131249999999,87.37478023343206L83.2540234375,85.99035602076601L83.32673437499999,85.25707735338062L83.3994453125,78.93338644575032L83.5448671875,82.07898151916832L83.76299999999999,77.40415896917922L84.05384375,78.32725164142575L84.4173984375,74.95145863561228L84.63553125,72.3231224958205L84.926375,71.22573663378381L85.14450781250001,76.84464255323782L85.21721875,76.37301310152279L85.362640625,74.9886401286749L85.4353515625,81.75812399572301L85.5807734375,78.25267675033908L85.65348437499999,67.15852762765707L85.72619531250001,61.21709333364382L85.944328125,63.06973495068678L86.0170390625,64.67581718195991L86.23517187499999,75.44645987170647L86.38059375,75.56159769426412L86.45330468750001,74.60286853629724L86.96228124999999,77.69841080378517L87.1804140625,83.4683089296283L87.4712578125,81.36220945598254L87.689390625,84.7353148799036L87.8348125,87.51233661776149L87.980234375,86.99994477156022L88.271078125,86.85340340926183L88.561921875,87.22267772670942L88.78005468750001,89.36016347120022L88.852765625,88.04490862196573L88.92547656250001,85.62504301253492L88.9981875,84.32597574343404L89.434453125,83.70899221867394L89.87071875,78.56078992348954L90.016140625,78.48549502648142L90.08885156250001,83.04174484227435L90.3796953125,84.71700679191552L90.597828125,81.5383037074125L90.67053906250001,86.3856246461699L90.888671875,89.55697440089165L90.96138281249999,91.13381051410067L91.03409375,93.15332376115815L91.179515625,96.70940192194757L91.3249375,92.25270488531577L91.761203125,91.44541939420215L91.9793359375,91.515754758851L92.052046875,90.49359716149347L92.27017968749999,88.88911367638215L92.342890625,90.14587815990033L92.41560156249999,85.38974975818385L92.5610234375,85.90749180361026L92.633734375,90.29133008506533L93.07000000000001,86.33005687824867L93.36084375,84.52903044958103L93.43355468749999,85.74573001825325L93.57897656249999,87.58204364754862L93.7243984375,86.83486870752637L93.8698203125,85.07494616882126L93.94253125,79.4464375041492L94.0152421875,76.04431946888967L94.087953125,82.74160327801349L94.16066406249999,77.12987285547996L94.378796875,80.68066978987183L94.669640625,80.96984161696511L94.8877734375,86.1545241985421L95.0331953125,84.51181787453298L95.10590625,89.30493578316096L95.1786171875,87.66347104669406L95.6148828125,88.14104471183295L95.68759375,90.77841911301897L95.833015625,92.33881193152598L96.05114843749999,88.39396257013996L96.3419921875,87.68004392391991L96.560125,90.09848032240005L96.7782578125,85.32830045845468L96.85096875,84.10791777507279L96.996390625,75.98468364081273L97.1418125,74.77532457352571L97.28723437500001,64.29860557938153L97.6507890625,71.7301518310579L97.86892187500001,79.26332733329964L98.01434375000001,80.29872237501641L99.3958515625,85.0347296694404L99.5412734375,88.13504928466595L99.613984375,89.17374037097046L99.90482812500001,85.50741393083422L100.05024999999999,88.99777165600115L100.34109375,87.73075599401267L100.486515625,84.97416675406141L100.63193749999999,89.26686231325533L100.8500703125,90.11515069026034L100.9954921875,87.0370689297812L101.068203125,88.0542470398603L101.213625,86.81824432987321L101.50446874999999,92.02018588053197L101.7953125,87.93667993347054L102.3042890625,91.4020075309289L102.377,89.17341736722067L102.4497109375,92.80494220118567L102.52242187499999,90.25434295094516L102.66784374999999,89.36873323295418L102.8859765625,93.12594802006426L102.9586875,93.58717656388487L103.0313984375,94.09329480322961L103.24953124999999,94.43215724463917L103.32224218750001,94.56493304154671L103.394953125,92.51786935556765L103.4676640625,95.48858890193007L104.04935156250001,95.42989322458091L104.1220625,94.77814265319337L104.3401953125,86.63551672594923L104.849171875,90.47999501405462L105.0673046875,90.27264716254656L105.6489921875,88.22338775889267L105.72170312499999,91.32442207870596L105.867125,89.95065233551094L105.9398359375,87.7723415699162L106.012546875,91.02646052399622L106.2306796875,91.06225282883254L106.30339062499999,96.73808093390232L106.4488125,98.43889509392599L106.594234375,95.48891061516296L106.95778906250001,95.08482707245166L107.0305,95.38402352275263L107.32134375,87.13360276187544L107.3940546875,89.32964158037355L107.466765625,93.73799428927333L107.53947656250001,92.98539238922255L107.757609375,90.37061082454L107.8303203125,90.59212115246936L107.90303125,94.83963050627044L108.12116406250001,96.25419948448736L108.193875,95.3949007293582L108.7755625,94.14952158576249L109.06640625,94.31096497324705L109.211828125,90.77996198146104L109.35725,88.73168241386747L109.4299609375,94.18386138084611L109.64809375,93.3857534587567L109.9389375,96.3502251827827L110.01164843749999,94.70676631236738L110.084359375,93.50180757108132L110.3024921875,95.17788034953355L110.8841796875,95.5697119133334L111.02960156249999,92.17684561113482L111.3204453125,94.44349406063536L111.39315625,91.79586394965636L111.61128906249999,91.34736009800426L111.75671093749999,93.81754993178839L111.9021328125,90.15530424343582L112.2656875,89.93498202459237L112.7746640625,89.35480605778827L112.847375,87.04822644244273L113.0655078125,90.9765676060357L113.2109296875,87.9810177349471L113.6471953125,85.2822939219131L113.71990625000001,86.6845690907272L113.865328125,89.090423137023L114.01075,88.89860786323186L114.30159375000001,88.6202465565469L114.5924375,85.0338325614611L114.737859375,87.18624127119064L115.1014140625,91.4774645960884L115.174125,89.52676744440537L115.2468359375,91.09782726275527L115.7558125,94.25335308258298L115.8285234375,83.65889772143697L116.2647890625,86.0544283316537L116.5556328125,85.60566944634938L116.62834375000001,90.15336178514971L116.7010546875,89.22354348405369L117.35545312500001,88.26498629512888L117.50087500000001,85.19423496402801L117.7190078125,89.21954779909552L118.1552734375,93.33967646769584L118.22798437499999,90.38383649356307L118.518828125,90.61312170128309L118.7369609375,84.59397337019612L118.8823828125,89.58817793119056L119.9003359375,90.22748306028903L120.11846874999999,88.62568026204622L120.33660156250001,85.92491512667964L120.4093125,89.01445856315988L120.4820234375,90.89258809222638L120.70015624999999,89.26185376247084L120.7728671875,88.70369397401997L120.84557812499999,91.86961953878514L122.154375,96.02528782510825L122.299796875,95.28953127279323L122.3725078125,97.46271717676187L122.5179296875,95.7141984136621L122.59064062499999,93.4103890604806L123.02690625,91.77371456307363L123.0996171875,89.28281531621332L123.2450390625,92.99926085644552L123.39046093750001,97.49641402348036L123.5358828125,92.60305179467294L123.6813046875,88.77514065093096L123.89943749999999,89.23714710227428L124.044859375,89.63783012003766L124.19028125,93.15817597729604L124.335703125,98.80749194158696L124.48112499999999,97.49654026230327L124.626546875,94.45429856419653L125.35365625,94.66275642657334L125.6445,93.07683361973794L125.93534375,91.26716645602247L126.0080546875,93.17509782817281L126.080765625,85.4766187936444L126.2261875,89.99279215516917L126.44432031250001,94.8005275880234L126.662453125,91.73023164718964L126.807875,95.34067518979084L127.02600781250001,96.96465329807862L127.46227343749999,98.38087340165295L127.6076953125,100.71510329704951L127.7531171875,93.41776917732639L127.825828125,92.43758653615048L128.0439609375,93.01672802337485L128.116671875,92.68444038610743L128.18938281249999,98.69470785844975L128.407515625,99.87559380762966L128.989203125,99.7506010450911L129.3527578125,101.23118336188742L129.4981796875,97.95493093006579L129.9344453125,99.79743024154168L130.2252890625,94.84143065240181L130.298,96.50786735788701L130.3707109375,97.46916356429887L130.443421875,99.20486712661643L130.87968750000002,99.71558263902222L131.0978203125,96.20190970304225L131.60679687500001,97.98566480757363L131.75221875,99.09712878871899L131.97035156249999,97.63929686551654L132.0430625,99.45193479541162L132.2611953125,101.0336856537057L132.69746093749998,95.58250701028068L132.8428828125,91.60880880593037L133.061015625,96.48002240323291L133.2791484375,100.22989761628668L133.351859375,98.06813771604277L133.4245703125,98.80938993858562L133.49728125000001,99.58035302023451L133.5699921875,100.81421851074909L134.0062578125,93.51179511401781L134.4425234375,96.24187973412114L134.8787890625,89.53780350728178L135.3150546875,88.45262065913285L135.678609375,90.25170379272703L135.969453125,90.64861956948998L136.4784296875,90.88202743360378L136.6238515625,90.65126672642815L136.84198437499998,96.2643717721545L136.98740625,98.32159457894822L137.0601171875,97.61682238037979L137.27824999999999,94.8909888235068L137.3509609375,99.16630822940681L137.4963828125,91.97930924489505L137.56909374999998,94.35166126486307L137.7872265625,98.2311176276007L139.0233125,98.58132905815832L139.0960234375,94.94405021580931L139.16873437499999,90.15325155206249L139.5322890625,90.06071359603241L139.750421875,93.93296237163922L140.041265625,98.67918751819838L140.1139765625,97.16653600563949L140.1866875,97.8217527915856L140.47753125,99.03416550933245L140.5502421875,97.82981124865367L140.622953125,96.66461429206939L140.768375,99.18609715228325L140.913796875,98.64463423207431L141.05921874999999,96.50914480277913L141.204640625,100.39857228510985L141.78632812499998,92.05329719491844L142.1498828125,97.931349569011L142.22259375,98.51713528957859L142.8769921875,100.59672904209434L142.94970312499998,102.83848981020535L143.74952343750002,102.30309344743301L144.3312109375,97.76827469715245L144.403921875,97.35017138033369L144.6220546875,102.63306776350295L144.7674765625,94.32705531874632L144.8401875,97.31696551775535L145.421875,102.81235904774428L145.4945859375,102.42203833628513L145.56729687499998,94.97248321753035L145.64000781250002,93.71115535486514L145.85814062499998,99.03781705134375L146.0035625,99.44512418885984L146.0762734375,98.50096323478198L146.148984375,96.08700924389348L146.73067187499998,93.5603520040082L147.0942265625,95.5244352224092L147.1669375,100.14901358858468L147.3850703125,99.63148525581195L147.894046875,98.96329718604942L148.03946875,101.97379898652589L148.766578125,98.94702858701442L149.13013281250002,99.51916388377602L149.20284375,93.99845918002757L149.34826562499998,96.88464699735066L149.42097656250002,97.28773716539037L149.8572421875,100.67686036258871L150.36621875,102.49146605390271L150.4389296875,104.31676786934113L151.093328125,100.38028892633186L151.384171875,97.75472696755449L151.52959375,103.51365376552415L151.8204375,106.03029925966544L152.4748359375,105.5990149649637L152.62025781250003,106.89968451456171L152.838390625,99.9245016515013L152.9838125,98.28391378997304L153.0565234375,100.3214452664765L153.420078125,102.26164586548283L153.6382109375,102.03446306708022L154.001765625,102.80421629621127L154.1471875,100.86392947598421L154.583453125,97.51126248219087L154.65616406249998,97.50721164809748L154.72887500000002,98.23326270739487L155.01971875,95.62581457710417L155.3832734375,95.28717049369902L155.60140625,98.83612220054681L155.74682812499998,101.10066854814181L155.9649609375,102.04356681263143L156.18309375,99.92365331504163L156.4739375,104.06101215275179L156.9829140625,105.01294502968817L157.05562500000002,105.94949169013042L157.1283359375,104.22503239544116L157.6373125,103.68161142487456L157.782734375,96.29573723685223L157.92815625,97.07488046772168L158.1462890625,99.95162347487741L158.21900000000002,101.07494735915739L158.655265625,98.5761466038184L158.72797656249998,100.57209860872965L159.3096640625,103.21851025814856L159.527796875,96.9515906309786L159.60050781249998,96.01642587516919L159.67321875000002,97.19116183003315L159.7459296875,95.0897481577428L159.89135156249998,94.02907185416412L160.109484375,92.48744041360014L160.6184609375,95.862090150336L160.691171875,91.73675725449299L161.05472656249998,93.18479002469286L161.20014843750002,96.991252375564L161.272859375,88.70465580995145L161.3455703125,97.575498373361L161.99996875000002,97.27948581639026L162.29081250000002,97.96654796757157L162.436234375,98.92448135470066L162.5089453125,98.98696944865414L162.65436718750001,95.4671501407196L163.017921875,96.20698355252563L163.0906328125,99.90865109571826L163.2360546875,100.36413495903619L163.308765625,102.4798946450079L163.38147656249998,98.56982131421117L163.599609375,100.66756985914438L163.74503124999998,98.14275654752093L163.890453125,102.79642598509214L164.54485156249999,100.43147299217833L164.762984375,100.04379371123107L165.4173828125,100.94501812050696L165.8536484375,103.66711416476937L165.926359375,105.2086490549682L166.36262499999998,101.31955438125362L166.4353359375,104.50248976986545L166.508046875,105.10916628623568L167.089734375,105.46683205476143L167.52599999999998,102.66389899558268L167.59871093750002,104.64429997626807L168.1803984375,102.76576560511509L168.253109375,103.4434718714614L168.47124218750002,107.16328703561182L168.68937499999998,107.2012104129717L168.98021874999998,109.46919651603254L169.12564062500002,109.52344642982216L169.416484375,109.9497805959304L169.85275,104.34621021546839L170.14359374999998,105.91973632215213L170.2163046875,108.20732218765468L170.4344375,98.27957283224612L170.79799218750003,101.13227946976394L171.08883593750002,102.5204718459819L171.2342578125,103.71424529249515L171.37967968750002,103.64616669949916L171.5251015625,108.00308023057596L172.034078125,105.41113509513269L172.1795,103.75762155161696L172.25221093750002,102.31416153494357L172.6884765625,105.8327219842901L172.7611875,104.14913514369906L172.83389843749998,107.40908508249629L172.9793203125,106.97812351196116L173.12474218749998,109.79374705677691L173.99727343749998,110.16790140942015L174.651671875,109.96451550766992L174.942515625,108.24275288370352L175.3060703125,105.62179713122308L175.37878125,107.58402631683505L175.74233593749997,104.32395869018647L175.815046875,106.19617679072626L175.8877578125,106.36473571272616L176.1786015625,107.76258863336994L176.25131249999998,99.37144894914124L176.68757812500002,102.26532283017809L176.978421875,107.39494783514604L177.05113281250001,109.39693961402098L177.12384375,109.01845032847119L177.269265625,109.38979621217365L177.3419765625,104.37974212816783L177.70553125,102.35819554240364L177.9236640625,103.18918836540495L178.06908593749998,105.4595784069688L178.28721875,105.05693552265113L178.5053515625,106.678941148338L178.72348437500003,107.62006908048228L178.86890625,105.5361889492812L179.37788281250002,106.50411696263207L179.5233046875,105.30828886883292L179.6687265625,110.21144205604095L180.323125,110.63298769875824L180.39583593749998,110.57364455750263L180.46854687500002,107.97307171756432L180.54125781250002,103.28436118086819L181.55921093749998,104.4224878175297L181.8500546875,105.69258984704248L182.1408984375,107.71196387755532L182.21360937499998,110.03494113056456L182.4317421875,110.91936397414563L182.504453125,103.46258917725775L182.72258593749999,103.52431472347196L182.8680078125,106.20674362305412L183.01342968749998,107.75546321942574L183.37698437499998,106.26213306471209L183.5951171875,102.61069876125157L183.7405390625,106.4942404542607L183.958671875,105.33990922655117L184.17680468749998,107.68431750706108L184.3949375,103.15669150216145L184.54035937499998,98.51214239992358L184.7584921875,101.00421525715385L184.976625,104.65998365449067L185.0493359375,103.62734245519135L185.26746875,106.83342870271382L185.48560156250002,111.11878814814196L186.14000000000001,111.86660213540617L186.285421875,108.82365858120099L186.64897656250002,107.9772839186333L187.01253125,107.20584698425188L187.0852421875,106.46293659631284L187.15795312499998,107.66907062783164L187.30337500000002,107.95506185683206L187.3760859375,106.90540966506359L187.5215078125,106.33789892861579L187.6669296875,108.48511977594694L187.8850625,104.97822753191947L187.9577734375,102.56193981886481L188.2486171875,102.11267052126273L188.612171875,101.80616360922066L188.75759375,103.54717261087542L189.193859375,105.12558887536314L189.26657031250002,106.53101937136046L189.33928125,107.8225506410658L189.4119921875,110.20135297451374L189.48470312499998,108.70558616443847L189.7028359375,109.63342845037207L189.8482578125,109.6753805184044L190.1391015625,106.81080617092117L190.357234375,107.69895514954368L190.50265625,105.95697618191981L190.64807812499998,106.58524175086943L190.72078906250002,106.25527533769207L190.7935,104.94134622144459L191.08434375000002,106.16182437257623L191.3751875,106.97334277341756L191.4478984375,109.37933659857507L191.520609375,103.91557345572707L191.81145312499999,106.76014329066037L191.8841640625,107.32721947354172L192.0295859375,105.27461719704922L192.10229687499998,106.70552693482195L192.24771875000002,103.80235351250144L192.3204296875,106.36742256358608L192.393140625,106.90526858255471L192.5385625,108.36885896256688L192.6112734375,108.78887383777572L192.75669531249997,109.9320827999036L192.974828125,108.56258197059158L193.12025,109.72572212356283L193.1929609375,109.53880371175977L193.62922656249998,107.77039709521993L193.7019375,105.20931215544739L193.7746484375,108.08599371111511L194.0654921875,109.08414395806861L194.2109140625,110.05615547274155L194.3563359375,109.95905644282462L194.6471796875,110.671632281451L195.3742890625,106.8449328467301L195.5197109375,108.91176764756747L195.6651328125,103.51665914887374L195.73784375000002,106.33363731404654L196.02868750000002,100.42484246075458L196.174109375,104.77321363914197L196.24682031249998,107.3492730130445L196.31953125,105.37539593635148L196.5376640625,105.57037283097593L196.8285078125,108.91559146591953L196.90121875000003,106.71687445848545L197.1193515625,108.97749295359469L197.337484375,107.95814086035261L198.06459375000003,97.01048893591981L198.1373046875,99.2049892309977L198.35543750000002,104.1317989470764L198.4281484375,98.76918051494386L198.57357031249998,94.1426075807406L198.791703125,95.56733490176163L198.937125,99.32249897686935L199.00983593750001,95.51018714170634L199.1552578125,96.41949388063537L199.22796875,97.61544880793444L199.3006796875,99.82035544351311L199.373390625,101.29295781872017L199.51881250000002,101.90857906592693L199.664234375,103.69614149244312L199.73694531249998,105.92473686880876L200.0277890625,107.36113351075059L200.10049999999998,101.97462045602921L200.245921875,104.28121935041501L200.4640546875,104.42069132513853L200.827609375,105.91764703385265L201.700140625,106.86990409250397L201.990984375,109.95838557455146L202.2091171875,111.16287260754827L202.572671875,111.56020383300735L202.71809374999998,112.85444203056308L202.9362265625,109.35255260847457L203.3724921875,106.46152613867788L203.445203125,109.72689490264337L203.590625,109.13494863477756L203.8087578125,111.03500424365645L204.026890625,107.02150034511355L204.0996015625,98.48974147560756L204.17231249999998,103.75018109752273L204.82671093750002,106.0098617903801L204.899421875,106.06612016871048L204.9721328125,106.80018397637888L205.04484374999998,106.91228531639985L205.190265625,109.10347995067364L205.33568749999998,112.00653547826246L205.5538203125,110.46538252581857L205.917375,112.06537350505413L206.062796875,113.90287335687769L206.1355078125,112.02746494277652L206.20821875,112.95753469267092L206.28092968750002,113.49556019662977L206.8626171875,110.44504390453793L207.517015625,107.55425603327451L207.8805703125,106.6238351007539L208.4622578125,107.62665834309088L208.53496875,108.53345724035161L208.7531015625,108.56096698337112L209.0439453125,110.02021451886483L209.552921875,106.764207263565L209.7710546875,108.67346397148128L209.98918749999999,110.66035272065733L210.0618984375,109.39299391617735L210.134609375,109.84157909697508L210.28003124999998,111.07766758529075L210.86171875,112.93608018832045L211.007140625,112.28438222096347L211.1525625,112.28483846954096L211.297984375,108.22974448187107L212.02509375,107.50231269826266L212.60678124999998,109.59139557260139L212.6794921875,112.30383570896305L212.75220312500002,113.57926496450136L213.04304687500002,114.84579711308498L213.4793125,115.43164778918278L214.061,113.68723847133072L214.497265625,112.35993866003842L214.56997656250002,110.50288993285471L214.6426875,111.64271596769318L214.7153984375,114.06462729751959L214.8608203125,113.73881079661783L215.0062421875,111.16050302689038L215.224375,112.94762919726827L215.660640625,113.79746485699926L215.8060625,114.22039862245151L216.3150390625,111.2175611720671L216.6058828125,113.70769210256276L216.75130468749998,114.31135723350727L217.0421484375,114.60977847432068L217.114859375,111.67151743325573L217.26028125,112.14277191014875L217.6238359375,110.98305805117958L217.84196875,111.84357575172825L217.98739062500002,114.26398137327817L218.2055234375,112.18888139675133L218.27823437499998,113.608466663063L218.35094531250002,109.40467085248257L219.07805468749999,112.18802143696563L219.150765625,109.93348938920269L219.2961875,107.4506568544994L219.36889843749998,107.02971508704962L219.44160937499998,105.84851007105911L219.51432031250002,106.27046584869626L219.73245312499998,107.77339662423852L219.8051640625,108.5123977882333L219.9505859375,109.77026694671316L220.16871875,111.6636042216778L220.314140625,111.64914777394296L220.4595625,114.1188175828228L220.604984375,111.63219910567818L221.2593828125,110.98526791158807L221.5502265625,110.80883041515048L221.69564843749998,110.88017959293184L221.84107031250002,113.55946832475937L221.9864921875,109.3491719387643L222.204625,105.45600326434807L222.4227578125,105.87196814284346L222.85902343749999,108.9073707203008L222.931734375,110.79666581749542L223.22257812499998,110.83511344313398L223.4407109375,114.73577597451074L223.65884375000002,112.80694752402225L223.804265625,113.68562241951895L223.8769765625,111.10170516824883L224.16782031250003,111.71602186117269L224.45866406250002,110.5293985113722L224.67679687499998,111.9162560311092L224.7495078125,115.19982601208288L224.82221875000002,115.21478219630002L224.8949296875,115.63308832527207L225.1130625,111.35602445054656L225.40390625,112.58699060111407L225.84017187499998,110.96744791405894L225.91288281250002,111.45859005771577L226.131015625,113.98112942411004L226.4945703125,116.28472816487252L226.712703125,114.92509364330829L226.78541406250002,114.47479945685899L226.9308359375,115.84710778156779L227.07625781250002,115.09019061422265L227.2216796875,113.76913571176479L227.294390625,114.64600410352679L227.5125234375,114.3314014714392L227.585234375,106.87359531172703L227.73065625,107.10389907508248L227.9487890625,107.97300543397161L228.0215,106.58158312564785L228.16692187499999,107.97114366963919L228.60318750000002,110.16254124328744L228.82132031249998,113.36122549823075L229.039453125,113.37394746095627L229.11216406249997,112.50486873597318L229.4030078125,113.25363741284855L229.8392734375,114.1783889601603L230.78451562499998,114.28928989350646L231.075359375,114.38117245066076L231.22078125000002,117.55560592668002L231.58433593750001,117.2829524460837L231.80246875,118.18066979547767L231.94789062499999,117.2114057987954L232.238734375,116.00060019314444L232.60228906249998,114.9026226986656L232.8931328125,114.59027192051465L233.1839765625,114.80820849570785L233.402109375,114.18941415687296L234.0565078125,116.69016079270776L234.4927734375,113.99717922785243L235.2198828125,114.88355676042056L235.29259375,114.26385764901052L235.36530468750001,116.41214728727465L235.5834375,114.98969026788787L235.6561484375,115.4476580785794L236.019703125,116.72400891346233L236.16512500000002,111.00387174822389L236.45596874999998,112.96765143714843L236.52867968750002,112.04245752717554L236.601390625,112.17459494248331L236.6741015625,109.14718958839951L236.74681249999998,110.18621705237139L236.8195234375,108.5160705367512L236.892234375,110.97797857998529L237.473921875,112.96689231919478L238.1283203125,114.10041434125442L239.1462734375,110.9694544420024L239.218984375,113.1813094488013L239.2916953125,113.01067379183937L239.800671875,112.6687106792174L240.1642265625,113.9275855460192L240.382359375,106.73672495355757L240.52778124999998,109.30492487234207L240.6004921875,112.16837027718027L240.67320312500001,114.33863172441363L240.7459140625,115.9088418669083L241.03675781249999,112.65204564252963L241.6184453125,113.09252077769918L241.69115624999998,115.38279834766197L241.9092890625,115.13444575893288L242.0547109375,114.75076457755212L242.127421875,115.93876411495472L242.27284375,113.07881994472663L243.145375,113.76483521596622L243.290796875,111.27524399838467L243.50892968750003,111.09334485102664L243.6543515625,109.42545562964065L244.01790624999998,113.733602950462L244.2360390625,113.53367205470104L244.45417187500001,114.72726723199665L245.1085703125,113.14812776473508L245.18128124999998,113.32852416174022L245.61754687500002,114.24253386578803L245.76296875,114.94420703364518L245.83567968749998,114.06505321570103L246.2719453125,115.24101307337203L246.490078125,114.79691172090006L246.5627890625,113.42743006018897L246.92634375,111.80888523261606L247.071765625,109.69309443951167L247.2171875,112.20967855167697L247.4353203125,115.53824605293458L247.50803125,116.23073958961598L247.5807421875,116.87836320643682L248.08971875,117.2811436143223L248.45327343749997,118.20849071304224L248.5986953125,115.04009803271425L248.67140625,116.00799661717494L248.7441171875,115.45000689173746L249.0349609375,113.67395005789405L249.5439375,112.36762353281382L249.83478125,108.74473226368549L250.0529140625,109.06397110641076L250.12562499999999,112.32814505589052L250.27104687500002,112.02478207404639L250.78002343749998,111.13844143185155L250.852734375,110.1628490998336L251.2162890625,107.86273192846704L252.08882031250002,106.53924519231278L252.452375,107.56373895651315L252.59779687500003,106.84238041309247L252.6705078125,108.90318877260523L252.88864062500002,111.68046147561454L252.9613515625,115.47548533759345L253.61575,107.68190260697502L254.05201562500002,108.70254885178267L254.34285937500002,108.33744075668727L254.70641406250002,110.4916430447869L254.8518359375,112.77529088821247L254.9972578125,115.57869165996453L255.1426796875,116.28404567873324L255.2881015625,113.20680632493404L255.506234375,113.97762780130807L255.5789453125,115.93115615809504L255.65165625,115.1906790731224L255.86978906250002,115.38963695513442L255.9425,111.40491972534201L256.0152109375,112.18147779803479L256.087921875,110.1473983746827L256.30605468749997,107.38985807311894L256.37876562499997,110.42113043911672L256.45147656250003,108.40289976386677L256.669609375,109.35423481338293L256.7423203125,112.4394892923419L256.8877421875,113.17967063381579L256.96045312499996,115.0523503386635L257.251296875,115.86079102061143L257.39671875,112.37875846208304L257.4694296875,114.27392780292732L257.542140625,115.4987583274168L257.83298437499997,110.67602145877613L257.97840625,109.01670491818865L258.123828125,113.52084152772593L258.3419609375,112.8882707552586L258.996359375,114.26229726531946L259.2144921875,114.58524951969889L259.3599140625,114.84906964323108L259.5053359375,116.45973853123894L259.6507578125,117.28645419509834L259.7961796875,112.34093072552459L260.0143125,113.54657070719585L260.450578125,115.55721437980763L260.741421875,114.5837786439063L260.88684375,117.10665398615609L261.10497656250004,119.07036042319542L261.3958203125,119.86841128412965L261.68666406250003,119.26984315719655L261.9775078125,118.92441562179596L262.2683515625,120.31749786474627L262.7046171875,118.2398514124055L262.92275,119.48418453289864L263.21359375000003,117.24422506185648L263.359015625,118.31026436145473L263.649859375,116.94461231979946L263.7225703125,118.47950664015545L264.231546875,118.02611295015771L264.4496796875,117.38164238709902L264.522390625,112.77923366414723L264.8859453125,114.03520815960894L264.95865625,115.12853901739318L265.0313671875,117.48047637674449L265.1767890625,118.32024115403436L265.39492187499997,114.6286263017651L265.7584765625,113.57178649120311L265.976609375,114.46734466083514L266.04932031249996,116.34871186928551L266.1947421875,113.41321466277003L266.6310078125,113.91941149419523L267.3581171875,116.68781056991801L267.86709375000004,116.97650313729993L268.0852265625,116.50656232091755L268.1579375,117.78649653466326L268.594203125,115.26127778453696L268.6669140625,114.88471167423171L268.739625,116.32293081008102L268.8123359375,114.94915294481936L268.885046875,114.36004706283583L268.9577578125,114.41981524026497" style="fill: none;" fill="none"></path></g></g></g></g><g opacity="0.2"><g><g><g><path stroke="rgb(255, 112, 67)" stroke-width="2px" d="M46.7531328125,-21.522146415710466L47.262109375,19.86052637100221L47.6256640625,0.2779129028320426L47.771085937500004,-12.316045188903814L47.843796875,2.852303981781006L48.134640625,-13.797318935394287L48.4981953125,-18.501058959960943L48.57090625,15.801468658447277L48.7890390625,24.3941156387329L49.22530468750001,35.03653907775879L49.298015625000005,15.791627597808827L49.4434375,42.89343595504761L49.661570312500004,17.972992372512806L49.8069921875,26.77988076210022L49.879703125000006,20.54515528678894L50.025124999999996,26.847392463684088L50.170546875,35.06299009323121L50.2432578125,22.4626175880432L50.75223437499999,28.02635321617126L51.333921874999994,51.36225099563599L51.4066328125,52.79077463150024L51.47934375,35.241614627838146L51.7701875,9.123962974548334L52.497296874999996,22.29087166786195L52.570007812499995,34.40973272323609L52.7154296875,37.94014148712159L53.0062734375,29.167165088653576L53.22440625,37.990258312225336L53.2971171875,36.78535294532776L53.369828125,38.28433384895325L53.5879609375,50.81304216384888L54.4604921875,52.92516503334046L54.8967578125,40.61593093872071L55.114890625,42.350514936447155L55.2603125,50.00460662841796L55.3330234375,46.05363178253174L55.4784453125,53.369430685043326L55.7692890625,35.29559698104859L56.0601328125,49.809431219100944L56.205554687500005,55.120540237426766L56.569109375000004,62.09441714286804L57.5870625,52.952308130264285L57.9506171875,60.95340270996094L58.023328125000006,39.888806533813465L58.31417187500001,43.14017143249512L58.386882812500005,52.77127819061279L58.677726562500006,56.21500797271729L58.750437500000004,32.03149609565736L58.895859375,15.722335052490223L59.113992187499996,45.43065719604493L59.477546874999994,60.436806106567374L59.55025781249999,41.705013942718494L59.62296875,65.38179559707642L59.9865234375,49.57860517501831L60.059234374999996,54.39805784225463L60.131945312499994,55.139564037323L60.350078124999996,58.55172815322875L61.004476562499995,77.00672993659974L61.1498984375,59.48345546722412L61.586164062499996,55.59178018569946L62.531406249999996,55.1311240196228L62.7495390625,48.17306370735167L63.0403828125,59.130122566223136L63.3312265625,61.15283188819886L63.4766484375,65.86562805175781L63.7674921875,56.25496301651002L63.840203125,77.87752876281739L63.9129140625,73.92829256057739L64.0583359375,64.10820536613464L64.421890625,71.43035960197449L64.7854453125,69.98201880455018L64.85815625000001,82.95701837539673L66.02153125,86.36891663074493L66.5305078125,44.526427459716786L66.96677343750001,74.25973205566406L67.039484375,72.0397373199463L67.18490625,70.58284678459167L67.621171875,62.5162914276123L68.2755703125,64.29569191932679L68.42099218749999,79.73583498001098L68.493703125,69.09974155426026L68.7118359375,66.30733637809753L69.1481015625,60.39624338150024L69.7297890625,59.41033115386962L69.8025,52.81796836853027L70.0206328125,68.72946109771728L70.09334375,62.29334836006164L70.7477421875,90.8288962841034L70.820453125,72.42715945243835L71.6202734375,61.35028610229493L71.83840625,63.86265993118286L71.9111171875,68.08882999420166L72.0565390625,83.79363512992859L72.2019609375,68.92227330207824L73.2199140625,54.66991081237792L73.58346875,63.79525794982909L73.728890625,64.68388209342957L73.9470234375,79.19376640319824L74.456,73.36971530914307L74.5287109375,67.97018022537232L74.9649765625,81.61832184791565L75.1103984375,76.32107977867126L75.183109375,78.91382789611816L75.32853125,85.9868539094925L75.40124218749999,83.13662195205688L75.619375,84.5436108827591L75.764796875,78.2413104057312L76.1283515625,79.8743525505066L76.2010625,81.26455850601197L76.8554609375,70.04452557563782L77.0008828125,79.66460123062133L77.2917265625,63.13058123588563L77.36443750000001,70.95382776260375L77.72799218749999,64.95901823043823L78.0188359375,85.23419423103333L78.091546875,83.95543026924133L78.3096796875,88.08022727966308L78.45510156249999,87.89162664413452L78.6005234375,76.53446874618531L78.673234375,67.24378166198731L78.7459453125,75.80543689727783L78.81865625,83.34129238128662L78.964078125,83.78859643936157L79.03678906249999,78.84509239196778L79.40034375,65.35444993972779L79.4730546875,76.80870180130005L79.98203125,86.09106702804566L80.127453125,55.196399116516105L80.56371875,83.83704214096069L80.709140625,86.23458108901978L81.0726953125,87.2552661895752L81.43625,83.49918823242187L81.58167187500001,70.34500708580016L82.45420312499999,92.44017162322999L82.9631796875,78.35855913162231L83.035890625,90.68676216602326L83.18131249999999,90.58698849678039L83.2540234375,83.91371970176696L83.32673437499999,84.15715935230254L83.3994453125,69.44785008430482L83.5448671875,86.79737412929535L83.76299999999999,70.39192514419555L84.05384375,79.71189064979554L84.4173984375,69.88776912689208L84.63553125,68.38061828613282L84.926375,69.57965784072876L85.14450781250001,85.27300143241882L85.21721875,75.6655689239502L85.362640625,72.91208066940307L85.4353515625,91.91234979629516L85.5807734375,72.99450588226318L85.65348437499999,50.51730394363403L85.72619531250001,52.3049418926239L85.944328125,65.84869737625122L86.0170390625,67.08494052886964L86.23517187499999,91.6024239063263L86.38059375,75.73430442810059L86.45330468750001,73.16477479934692L86.96228124999999,82.34172420501709L87.1804140625,92.12315611839294L87.4712578125,78.20306024551392L87.689390625,89.79497301578522L87.8348125,91.67786922454835L87.980234375,86.23135700225829L88.271078125,86.63359136581421L88.561921875,87.77658920288086L88.78005468750001,92.5663920879364L88.852765625,86.07202634811402L88.92547656250001,81.99524459838868L88.9981875,82.37737483978272L89.434453125,82.78351693153381L89.87071875,70.83848648071289L90.016140625,78.37255268096924L90.08885156250001,89.87611956596375L90.3796953125,87.22989971637726L90.597828125,76.77024908065796L90.67053906250001,93.65660605430602L90.888671875,94.31399903297424L90.96138281249999,93.49906468391418L91.03409375,96.18259363174438L91.179515625,102.04351916313172L91.3249375,85.56765933036804L91.761203125,90.23449115753174L91.9793359375,91.62125780582429L92.052046875,88.96036076545715L92.27017968749999,86.48238844871521L92.342890625,92.03102488517762L92.41560156249999,78.25555715560914L92.5610234375,86.68410487174988L92.633734375,96.86708750724793L93.07000000000001,80.38814706802368L93.36084375,81.82749080657959L93.43355468749999,87.5707793712616L93.57897656249999,90.3365140914917L93.7243984375,85.71410629749299L93.8698203125,82.43506236076355L93.94253125,71.00367450714111L94.0152421875,70.94114241600037L94.087953125,92.78752899169922L94.16066406249999,68.71227722167968L94.378796875,86.00686519145965L94.669640625,81.40359935760499L94.8877734375,93.9315480709076L95.0331953125,82.04775838851928L95.10590625,96.49461264610291L95.1786171875,85.2012739419937L95.6148828125,88.85740520954133L95.68759375,94.73448071479797L95.833015625,94.6794011592865L96.05114843749999,82.4766885280609L96.3419921875,86.60916595458984L96.560125,93.72613492012024L96.7782578125,78.17303066253662L96.85096875,82.27734375L96.996390625,63.799832439422616L97.1418125,72.9612859725952L97.28723437500001,48.58352708816528L97.6507890625,82.87747120857239L97.86892187500001,90.5630905866623L98.01434375000001,81.85181493759156L99.3958515625,92.13874061107636L99.5412734375,92.78552870750427L99.613984375,90.73177700042724L99.90482812500001,80.00792427062989L100.05024999999999,94.23330824375152L100.34109375,85.83023250102997L100.486515625,80.83928289413451L100.63193749999999,95.7059056520462L100.8500703125,91.38758325576782L100.9954921875,82.41994628906251L101.068203125,89.58001420497894L101.213625,84.96424026489258L101.50446874999999,99.82309820652009L101.7953125,81.81142101287843L102.3042890625,96.59999892711639L102.377,85.83053212165832L102.4497109375,98.25222945213318L102.52242187499999,86.42844407558441L102.66784374999999,88.04031865596771L102.8859765625,98.76177020072937L102.9586875,94.27901937961579L103.0313984375,94.8524721622467L103.24953124999999,94.94045090675354L103.32224218750001,94.76409673690796L103.394953125,89.44727382659912L103.4676640625,99.94466822147369L104.04935156250001,95.34184970855713L104.1220625,93.80051679611206L104.3401953125,74.421577835083L104.849171875,96.24671244621277L105.0673046875,89.96162538528442L105.6489921875,85.14949865341187L105.72170312499999,95.9759735584259L105.867125,87.88999772071838L105.9398359375,84.50487542152405L106.012546875,95.90763895511627L106.2306796875,91.11594128608704L106.30339062499999,105.25182309150696L106.4488125,100.99011633396148L106.594234375,91.06393389701843L106.95778906250001,94.4787017583847L107.0305,95.83281819820404L107.32134375,74.7579716205597L107.3940546875,92.62369980812073L107.466765625,100.35052335262299L107.53947656250001,91.85648953914642L107.757609375,86.44843847751618L107.8303203125,90.92438664436341L107.90303125,101.21089453697205L108.12116406250001,98.37605295181274L108.193875,94.10595259666442L108.7755625,92.28145287036895L109.06640625,94.55313005447388L109.211828125,85.48345749378204L109.35725,85.65926306247711L109.4299609375,102.36212983131409L109.64809375,92.18859157562255L109.9389375,100.79693276882172L110.01164843749999,92.24157800674439L110.084359375,91.69436945915223L110.3024921875,97.69198951721191L110.8841796875,96.1574592590332L111.02960156249999,87.08754615783691L111.3204453125,97.84346673488616L111.39315625,87.82441878318787L111.61128906249999,90.67460432052613L111.75671093749999,97.5228346824646L111.9021328125,84.66193571090697L112.2656875,89.60449869632721L112.7746640625,88.4845421075821L112.847375,83.58835701942444L113.0655078125,96.86907935142517L113.2109296875,83.48769292831422L113.6471953125,81.23420820236207L113.71990625000001,88.78798184394836L113.865328125,92.69920420646667L114.01075,88.61088495254516L114.30159375000001,88.20270459651947L114.5924375,79.6542115688324L114.737859375,90.41485433578491L115.1014140625,97.91429958343505L115.174125,86.6007217168808L115.2468359375,93.45441699028015L115.7558125,98.98664181232452L115.8285234375,67.76721467971801L116.2647890625,89.64772424697875L116.5556328125,84.93253111839294L116.62834375000001,96.97490029335022L116.7010546875,87.82881603240968L117.35545312500001,86.82715051174164L117.50087500000001,80.5881079673767L117.7190078125,95.25751705169678L118.1552734375,99.51986947059632L118.22798437499999,85.9500765323639L118.518828125,90.95704951286316L118.7369609375,75.56525087356567L118.8823828125,97.07948477268219L119.9003359375,91.18644075393676L120.11846874999999,86.22297606468202L120.33660156250001,81.87376742362976L120.4093125,93.64877371788025L120.4820234375,93.70978238582612L120.70015624999999,86.81575226783752L120.7728671875,87.86645429134369L120.84557812499999,96.61850788593293L122.154375,102.2587902545929L122.299796875,94.18589644432068L122.3725078125,100.72249603271484L122.5179296875,93.09142026901245L122.59064062499999,89.95467503070832L123.02690625,89.3187028169632L123.0996171875,85.54646644592286L123.2450390625,98.57392916679382L123.39046093750001,104.2421437740326L123.5358828125,85.2630084514618L123.6813046875,83.033273935318L123.89943749999999,89.93015677928925L124.044859375,90.23885464668274L124.19028125,98.43869476318359L124.335703125,107.28146588802338L124.48112499999999,95.53011274337769L124.626546875,89.89093601703644L125.35365625,94.97544322013854L125.6445,90.69794940948486L125.93534375,88.55266571044922L126.0080546875,96.03699488639832L126.080765625,73.9289002418518L126.2261875,96.76705219745637L126.44432031250001,102.01213073730469L126.662453125,87.12478773593902L126.807875,100.75634050369263L127.02600781250001,99.40062046051025L127.46227343749999,100.50520355701447L127.6076953125,104.21644814014435L127.7531171875,82.47176799774171L127.825828125,90.9673125743866L128.0439609375,93.88544025421143L128.116671875,92.1860089302063L128.18938281249999,107.7101090669632L128.407515625,101.64692273139954L128.989203125,99.56311190128326L129.3527578125,103.45205683708191L129.4981796875,93.04055228233338L129.9344453125,102.56117920875549L130.2252890625,87.40743126869201L130.298,99.00752241611481L130.3707109375,98.91110787391662L130.443421875,101.80842247009278L130.87968750000002,100.48165590763092L131.0978203125,90.93140029907227L131.60679687500001,100.66129746437073L131.75221875,100.764324760437L131.97035156249999,95.45254898071289L132.0430625,102.17089169025421L132.2611953125,103.40631194114685L132.69746093749998,87.40573904514314L132.8428828125,85.64826149940491L133.061015625,103.7868427991867L133.2791484375,105.8547104358673L133.351859375,94.82549786567688L133.4245703125,99.9212682723999L133.49728125000001,100.73679764270783L133.5699921875,102.66501674652099L134.0062578125,82.5581600189209L134.4425234375,100.33700666427612L134.8787890625,79.48168916702271L135.3150546875,86.82484638690948L135.678609375,92.95032849311829L135.969453125,91.2439932346344L136.4784296875,91.23213922977448L136.6238515625,90.30512566566468L136.84198437499998,104.68402934074402L136.98740625,101.40742878913879L137.0601171875,96.55966408252716L137.27824999999999,90.80223848819733L137.3509609375,105.57928733825683L137.4963828125,81.19881076812744L137.56909374999998,97.91018929481507L137.7872265625,104.05030217170716L139.0233125,99.10664620399476L139.0960234375,89.48813195228577L139.16873437499999,82.96705355644225L139.5322890625,89.92190666198731L139.750421875,99.74133553504944L140.041265625,105.79852523803712L140.1139765625,94.89755873680114L140.1866875,98.80457797050477L140.47753125,100.85278458595276L140.5502421875,96.0232798576355L140.622953125,94.916818857193L140.768375,102.96832144260406L140.913796875,97.83243985176087L141.05921874999999,93.30591065883637L141.204640625,106.23271350860595L141.78632812499998,79.53538455963134L142.1498828125,106.74842813014985L142.22259375,99.39581387042999L142.8769921875,103.71611967086793L142.94970312499998,106.20113096237182L143.74952343750002,101.49999890327453L144.3312109375,90.96604657173157L144.403921875,96.7230164051056L144.6220546875,110.55741233825684L144.7674765625,81.86803665161132L144.8401875,101.80183081626892L145.421875,111.05544934272766L145.4945859375,101.83655726909637L145.56729687499998,83.7981505393982L145.64000781250002,91.81916356086731L145.85814062499998,107.0278095960617L146.0035625,100.05608489513398L146.0762734375,97.08472180366516L146.148984375,92.46607825756072L146.73067187499998,89.7703661441803L147.0942265625,98.47056005001068L147.1669375,107.0858811378479L147.3850703125,98.85519275665283L147.894046875,97.96101508140563L148.03946875,106.4895516872406L148.766578125,94.40687298774719L149.13013281250002,100.37736682891845L149.20284375,85.7174021244049L149.34826562499998,101.21392872333527L149.42097656250002,97.89237241744995L149.8572421875,105.76054515838624L150.36621875,105.21337459087371L150.4389296875,107.05472059249878L151.093328125,94.47557051181793L151.384171875,93.81638402938843L151.52959375,112.15204396247864L151.8204375,109.80526750087738L152.4748359375,104.95208852291107L152.62025781250003,108.85068883895875L152.838390625,89.4617273569107L152.9838125,95.82303199768066L153.0565234375,103.37774248123169L153.420078125,105.17194676399231L153.6382109375,101.69368886947632L154.001765625,103.95884613990783L154.1471875,97.95349924564361L154.583453125,92.48226199150085L154.65616406249998,97.5011353969574L154.72887500000002,99.32233929634094L155.01971875,91.71464238166809L155.3832734375,94.77920436859131L155.60140625,104.15954976081848L155.74682812499998,104.4974880695343L155.9649609375,103.45791420936584L156.18309375,96.74378306865692L156.4739375,110.26705040931702L156.9829140625,106.44084434509277L157.05562500000002,107.35431168079376L157.1283359375,101.63834345340729L157.6373125,102.86647996902465L157.782734375,85.21692595481873L157.92815625,98.24359531402588L158.1462890625,104.26673798561096L158.21900000000002,102.7599331855774L158.655265625,94.82794547080994L158.72797656249998,103.5660266160965L159.3096640625,107.18812773227691L159.527796875,87.5512111902237L159.60050781249998,94.61367874145508L159.67321875000002,98.9532657623291L159.7459296875,91.93762764930725L159.89135156249998,92.43805739879608L160.109484375,90.1749932527542L160.6184609375,100.92406475543976L160.691171875,85.54875791072845L161.05472656249998,95.35683917999268L161.20014843750002,102.70094590187072L161.272859375,76.27476096153259L161.3455703125,110.88176221847534L161.99996875000002,96.83546698093414L162.29081250000002,98.99714119434357L162.436234375,100.36138143539429L162.5089453125,99.08070158958435L162.65436718750001,90.18742117881774L163.017921875,97.31673367023468L163.0906328125,105.4611524105072L163.2360546875,101.04736075401306L163.308765625,105.65353417396545L163.38147656249998,92.70471131801605L163.599609375,103.8141926765442L163.74503124999998,94.35553658008575L163.890453125,109.77693014144897L164.54485156249999,96.88404350280761L164.762984375,99.46227478981018L165.4173828125,102.29685473442078L165.8536484375,107.75025823116303L165.926359375,107.52095139026642L166.36262499999998,95.48591237068176L166.4353359375,109.2768928527832L166.508046875,106.01918106079101L167.089734375,106.00333070755005L167.52599999999998,98.45949940681457L167.59871093750002,107.61490144729615L168.1803984375,99.94796404838561L168.253109375,104.46003127098083L168.47124218750002,112.74300978183746L168.68937499999998,107.25809547901153L168.98021874999998,112.87117567062378L169.12564062500002,109.60482130050659L169.416484375,110.58928184509277L169.85275,95.94085464477538L170.14359374999998,108.28002548217773L170.2163046875,111.63870098590851L170.4344375,83.3879487991333L170.79799218750003,105.41133942604066L171.08883593750002,104.60276041030883L171.2342578125,105.50490546226501L171.37967968750002,103.5440488100052L171.5251015625,114.53845052719117L172.034078125,101.52321739196778L172.1795,101.27735123634338L172.25221093750002,100.14897150993347L172.6884765625,111.11056265830993L172.7611875,101.6237548828125L172.83389843749998,112.29900999069214L172.9793203125,106.33168115615845L173.12474218749998,114.01718237400056L173.99727343749998,110.729132938385L174.651671875,109.65943665504456L174.942515625,105.66010894775391L175.3060703125,101.69036350250244L175.37878125,110.52737009525299L175.74233593749997,99.43385725021362L175.815046875,109.00450394153594L175.8877578125,106.61757409572601L176.1786015625,109.85936801433563L176.25131249999998,86.78473942279815L176.68757812500002,106.6061336517334L176.978421875,115.08938534259795L177.05113281250001,112.39992728233338L177.12384375,108.45071640014649L177.269265625,109.94681503772736L177.3419765625,96.86466100215912L177.70553125,99.32587566375733L177.9236640625,104.43567759990692L178.06908593749998,108.86516346931458L178.28721875,104.45297119617462L178.5053515625,109.11194958686829L178.72348437500003,109.03176097869873L178.86890625,102.41036875247956L179.37788281250002,107.95600898265839L179.5233046875,103.51454672813415L179.6687265625,117.56617183685302L180.323125,111.26530616283416L180.39583593749998,110.4846298456192L180.46854687500002,104.07221245765686L180.54125781250002,96.25129537582397L181.55921093749998,106.12967777252197L181.8500546875,107.59774289131164L182.1408984375,110.74102492332459L182.21360937499998,113.51940701007842L182.4317421875,112.2459982395172L182.504453125,92.27742698192597L182.72258593749999,103.61690304279327L182.8680078125,110.23038697242737L183.01342968749998,110.07854261398316L183.37698437499998,104.0221378326416L183.5951171875,97.13354730606079L183.7405390625,112.31955299377441L183.958671875,103.60841238498688L184.17680468749998,111.20092992782592L184.3949375,96.36525249481201L184.54035937499998,91.54531874656678L184.7584921875,104.74232454299927L184.976625,110.14363625049592L185.0493359375,102.07838065624237L185.26746875,111.64255807399749L185.48560156250002,117.54682731628418L186.14000000000001,112.9883231163025L186.285421875,104.25924324989319L186.64897656250002,106.7077219247818L187.01253125,106.04869158267975L187.0852421875,105.3485710144043L187.15795312499998,109.47827167510987L187.30337500000002,108.38404870033264L187.3760859375,105.33093137741089L187.5215078125,105.48663282394409L187.6669296875,111.70595104694367L187.8850625,99.71788916587829L187.9577734375,98.93750824928284L188.2486171875,101.43876657485961L188.612171875,101.34640324115753L188.75759375,106.15868611335755L189.193859375,107.49321327209472L189.26657031250002,108.63916511535645L189.33928125,109.75984754562378L189.4119921875,113.76955647468566L189.48470312499998,106.46193594932556L189.7028359375,111.02519187927246L189.8482578125,109.73830862045288L190.1391015625,102.51394464969636L190.357234375,109.03117861747742L190.50265625,103.34400773048401L190.64807812499998,107.52764010429382L190.72078906250002,105.76032571792602L190.7935,102.97045254707336L191.08434375000002,107.99254159927368L191.3751875,108.19062037467957L191.4478984375,112.98832733631134L191.520609375,95.71992874145508L191.81145312499999,111.0269980430603L191.8841640625,108.17783374786377L192.0295859375,102.19571378231049L192.10229687499998,108.85189154148102L192.24771875000002,99.44759337902069L192.3204296875,110.21502614021301L192.393140625,107.71203761100769L192.5385625,110.56424453258515L192.6112734375,109.41889615058899L192.75669531249997,111.6468962430954L192.974828125,106.50833072662354L193.12025,111.47043235301972L193.1929609375,109.25842609405518L193.62922656249998,105.11778717041015L193.7019375,101.36768474578858L193.7746484375,112.4010160446167L194.0654921875,110.58136932849884L194.2109140625,111.51417274475098L194.3563359375,109.81340789794922L194.6471796875,111.74049603939056L195.3742890625,101.10488369464875L195.5197109375,112.01201984882354L195.6651328125,95.42399640083313L195.73784375000002,110.55910456180573L196.02868750000002,91.56165018081666L196.174109375,111.29577040672302L196.24682031249998,111.21336207389831L196.31953125,102.41458032131194L196.5376640625,105.8628381729126L196.8285078125,113.93341941833495L196.90121875000003,103.4187989473343L197.1193515625,112.36842069625854L197.337484375,106.4291127204895L198.06459375000003,80.58901104927064L198.1373046875,102.4967396736145L198.35543750000002,111.52201352119445L198.4281484375,90.725252866745L198.57357031249998,87.20274817943573L198.791703125,97.70442588329315L198.937125,104.95524508953095L199.00983593750001,89.7917193889618L199.1552578125,97.78345398902893L199.22796875,99.40938119888305L199.3006796875,103.1277153968811L199.373390625,103.50186138153076L199.51881250000002,102.83201093673706L199.664234375,106.3774851322174L199.73694531249998,109.26762993335724L200.0277890625,109.51572847366333L200.10049999999998,93.89485087394715L200.245921875,107.74111769199371L200.4640546875,104.62989928722382L200.827609375,108.16308059692383L201.700140625,108.29828968048096L201.990984375,114.59110779762267L202.2091171875,112.96960315704345L202.572671875,112.15620067119599L202.71809374999998,114.79579932689666L202.9362265625,104.0997184753418L203.3724921875,102.12498643398285L203.445203125,114.62494804859162L203.590625,108.24702923297882L203.8087578125,113.8850876569748L204.026890625,101.0012444972992L204.0996015625,85.69210317134856L204.17231249999998,111.64084053039551L204.82671093750002,109.39938282966614L204.899421875,106.15050773620605L204.9721328125,107.90127968788147L205.04484374999998,107.08043732643128L205.190265625,112.39027190208435L205.33568749999998,116.36111876964569L205.5538203125,108.15365309715271L205.917375,114.46535997390748L206.062796875,116.65912313461303L206.1355078125,109.21435232162476L206.20821875,114.35263931751251L206.28092968750002,114.30259845256805L206.8626171875,105.86926946640014L207.517015625,103.2180742263794L207.8805703125,105.22820370197296L208.4622578125,109.13089320659637L208.53496875,109.89365558624267L208.7531015625,108.60223159790038L209.0439453125,112.20908582210541L209.552921875,101.88019638061523L209.7710546875,111.53734903335571L209.98918749999999,113.6406858444214L210.0618984375,107.4919557094574L210.134609375,110.51445686817169L210.28003124999998,112.93180031776429L210.86171875,115.72369909286499L211.007140625,111.30683526992797L211.1525625,112.28552284240723L211.297984375,102.14710350036621L212.02509375,106.41116502285004L212.60678124999998,112.7250198841095L212.6794921875,116.37249591350556L212.75220312500002,115.49240884780883L213.04304687500002,116.74559533596039L213.4793125,116.31042380332946L214.061,111.07062449455262L214.497265625,110.36898894309998L214.56997656250002,107.71731684207916L214.6426875,113.35245501995087L214.7153984375,117.69749429225922L214.8608203125,113.25008604526519L215.0062421875,107.2930413722992L215.224375,115.62831845283509L215.660640625,115.07221834659578L215.8060625,114.85479927062988L216.3150390625,106.71330499649048L216.6058828125,117.44288849830627L216.75130468749998,115.21685492992401L217.0421484375,115.05741033554077L217.114859375,107.26412587165832L217.26028125,112.84965362548829L217.6238359375,109.24348726272584L217.84196875,113.13435230255126L217.98739062500002,117.89458980560303L218.2055234375,109.07623143196106L218.27823437499998,115.73784456253051L218.35094531250002,103.09897713661194L219.07805468749999,116.36304731369017L219.150765625,106.5516913175583L219.2961875,103.72640805244446L219.36889843749998,106.39830243587494L219.44160937499998,104.07670254707337L219.51432031250002,106.90339951515197L219.73245312499998,110.02779278755187L219.8051640625,109.62089953422546L219.9505859375,111.65707068443298L220.16871875,114.50361013412476L220.314140625,111.6274631023407L220.4595625,117.82332229614258L220.604984375,107.90227138996124L221.2593828125,110.01487112045288L221.5502265625,110.54417417049407L221.69564843749998,110.98720335960388L221.84107031250002,117.5784014225006L221.9864921875,103.03372735977173L222.204625,99.61625025272369L222.4227578125,106.49591546058655L222.85902343749999,113.46047458648681L222.931734375,113.63060846328736L223.22257812499998,110.8927848815918L223.4407109375,120.58676977157592L223.65884375000002,109.91370484828948L223.804265625,115.00363476276397L223.8769765625,107.22582929134369L224.16782031250003,112.63749690055847L224.45866406250002,108.74946348667144L224.67679687499998,113.99654231071472L224.7495078125,120.1251809835434L224.82221875000002,115.23721647262573L224.8949296875,116.26054751873016L225.1130625,104.94042863845826L225.40390625,114.43343982696533L225.84017187499998,108.53813388347626L225.91288281250002,112.19530327320099L226.131015625,117.76493847370148L226.4945703125,119.74012627601624L226.712703125,112.88564186096191L226.78541406250002,113.79935817718507L226.9308359375,117.90557026863098L227.07625781250002,113.95481486320494L227.2216796875,111.787553358078L227.294390625,115.96130669116974L227.5125234375,113.8594975233078L227.585234375,95.68688607215881L227.73065625,107.44935472011566L227.9487890625,109.2766649723053L228.0215,104.49444966316223L228.16692187499999,110.05548448562622L228.60318750000002,113.44963760375975L228.82132031249998,118.15925188064574L229.039453125,113.39303040504456L229.11216406249997,111.20125064849853L229.4030078125,114.37679042816163L229.8392734375,115.56551628112794L230.78451562499998,114.4556412935257L231.075359375,114.51899628639222L231.22078125000002,122.31725614070893L231.58433593750001,116.87397222518922L231.80246875,119.52724581956863L231.94789062499999,115.75750980377197L232.238734375,114.18439178466798L232.60228906249998,113.25565645694732L232.8931328125,114.12174575328828L233.1839765625,115.13511335849762L233.402109375,113.26122264862062L234.0565078125,120.44128074645997L234.4927734375,109.95770688056946L235.2198828125,116.21312305927276L235.29259375,113.33430898189545L235.36530468750001,119.63458174467087L235.5834375,112.85600473880768L235.6561484375,116.1346097946167L236.019703125,118.63853516578675L236.16512500000002,102.42366600036621L236.45596874999998,115.91332097053527L236.52867968750002,110.65466666221619L236.601390625,112.37280106544495L236.6741015625,104.60608155727387L236.74681249999998,111.74475824832916L236.8195234375,106.01085076332092L236.892234375,114.67084064483643L237.473921875,115.95026292800904L238.1283203125,115.80069737434388L239.1462734375,106.27301459312439L239.218984375,116.49909195899963L239.2916953125,112.75472030639648L239.800671875,112.15576601028442L240.1642265625,115.81589784622193L240.382359375,95.9504340648651L240.52778124999998,113.1572247505188L240.6004921875,116.46353838443756L240.67320312500001,117.59402389526366L240.7459140625,118.26415708065034L241.03675781249999,107.76685130596161L241.6184453125,113.7532334804535L241.69115624999998,118.81821470260621L241.9092890625,114.76191687583923L242.0547109375,114.17524280548096L242.127421875,117.72076342105865L242.27284375,108.78890368938445L243.145375,114.79385812282561L243.290796875,107.54085717201232L243.50892968750003,110.82049612998962L243.6543515625,106.92362179756165L244.01790624999998,120.19582393169404L244.2360390625,113.23377571105956L244.45417187500001,116.51765999794006L245.1085703125,110.77941856384277L245.18128124999998,113.59911875724794L245.61754687500002,115.61354842185975L245.76296875,115.99671678543092L245.83567968749998,112.74632248878478L246.2719453125,117.00495285987853L246.490078125,114.13075969219207L246.5627890625,111.37320756912231L246.92634375,109.38106799125671L247.071765625,106.51940824985505L247.2171875,115.98455471992492L247.4353203125,120.531097304821L247.50803125,117.26947989463807L247.5807421875,117.84979863166808L248.08971875,117.88531422615051L248.45327343749997,119.59951136112213L248.5986953125,110.28750901222229L248.67140625,117.45984449386597L248.7441171875,114.61302230358123L249.0349609375,111.0098648071289L249.5439375,110.40813374519348L249.83478125,103.31039535999298L250.0529140625,109.54282937049865L250.12562499999999,117.22440598011016L250.27104687500002,111.56973760128021L250.78002343749998,109.80893046855927L250.852734375,108.69946060180663L251.2162890625,104.41255617141724L252.08882031250002,104.55401508808136L252.452375,109.10047960281372L252.59779687500003,105.76034259796143L252.6705078125,111.99440131187438L252.88864062500002,115.84637053012847L252.9613515625,121.16802113056184L253.61575,95.99152851104736L254.05201562500002,110.23351821899413L254.34285937500002,107.7897786140442L254.70641406250002,113.72294647693633L254.8518359375,116.20076265335084L254.9972578125,119.78379281759263L255.1426796875,117.3420767068863L255.2881015625,108.59094729423524L255.506234375,115.13386001586915L255.5789453125,118.86144869327546L255.65165625,114.07996344566345L255.86978906250002,115.68807377815247L255.9425,105.42784388065338L256.0152109375,113.34631490707397L256.087921875,107.09627923965454L256.30605468749997,103.25354762077332L256.37876562499997,114.96803898811339L256.45147656250003,105.37555375099183L256.669609375,110.78123738765717L256.7423203125,117.06737101078033L256.8877421875,114.28994264602662L256.96045312499996,117.86136989593507L257.251296875,117.07345204353334L257.39671875,107.15570962429047L257.4694296875,117.11668181419373L257.542140625,117.336004114151L257.83298437499997,103.44191615581512L257.97840625,106.52773010730743L258.123828125,120.27704644203186L258.3419609375,111.93941459655761L258.996359375,116.32333703041076L259.2144921875,115.069677901268L259.3599140625,115.24479982852935L259.5053359375,118.87574186325074L259.6507578125,118.52652769088746L259.7961796875,104.92264552116394L260.0143125,115.35503067970276L260.450578125,118.57317988872529L260.741421875,113.12362504005432L260.88684375,120.8909669995308L261.10497656250004,122.01592007875442L261.3958203125,121.065487575531L261.68666406250003,118.37199096679689L261.9775078125,118.40627431869507L262.2683515625,122.40712122917176L262.7046171875,115.12338173389435L262.92275,121.35068421363832L263.21359375000003,113.88428585529329L263.359015625,119.90932331085205L263.649859375,114.89613425731659L263.7225703125,120.7818481206894L264.231546875,117.34602241516114L264.4496796875,116.41493654251099L264.522390625,105.87562057971954L264.8859453125,115.91916990280151L264.95865625,116.76853530406953L265.0313671875,121.00838241577148L265.1767890625,119.57988831996917L265.39492187499997,109.0912040233612L265.7584765625,111.9865267753601L265.976609375,115.8106819152832L266.04932031249996,119.17076268196107L266.1947421875,109.00996885299682L266.6310078125,114.678706741333L267.3581171875,120.8404091835022L267.86709375000004,117.40954198837281L268.0852265625,115.80165109634399L268.1579375,119.70639785528184L268.594203125,111.47344965934754L268.6669140625,114.31986250877381L268.739625,118.48025951385497L268.8123359375,112.88848614692688L268.885046875,113.47638823986054L268.9577578125,114.5094675064087" style="fill: none;" fill="none"></path></g></g></g></g></g></g><g transform="translate(39, 177)" clip-path="url(#clip_1)"><clipPath id="clip_1"><rect width="290" height="23"></rect></clipPath><g><g><line x1="0" y1="0" x2="0" y2="5" style="visibility: inherit;" fill="rgb(0, 0, 0)" stroke="rgb(204, 204, 204)" stroke-width="1px"></line><line x1="36.35546875" y1="0" x2="36.35546875" y2="5" style="visibility: inherit;" fill="rgb(0, 0, 0)" stroke="rgb(204, 204, 204)" stroke-width="1px"></line><line x1="72.7109375" y1="0" x2="72.7109375" y2="5" style="visibility: inherit;" fill="rgb(0, 0, 0)" stroke="rgb(204, 204, 204)" stroke-width="1px"></line><line x1="109.06640625" y1="0" x2="109.06640625" y2="5" style="visibility: inherit;" fill="rgb(0, 0, 0)" stroke="rgb(204, 204, 204)" stroke-width="1px"></line><line x1="145.421875" y1="0" x2="145.421875" y2="5" style="visibility: inherit;" fill="rgb(0, 0, 0)" stroke="rgb(204, 204, 204)" stroke-width="1px"></line><line x1="181.77734375" y1="0" x2="181.77734375" y2="5" style="visibility: inherit;" fill="rgb(0, 0, 0)" stroke="rgb(204, 204, 204)" stroke-width="1px"></line><line x1="218.1328125" y1="0" x2="218.1328125" y2="5" style="visibility: inherit;" fill="rgb(0, 0, 0)" stroke="rgb(204, 204, 204)" stroke-width="1px"></line><line x1="254.48828125" y1="0" x2="254.48828125" y2="5" style="visibility: inherit;" fill="rgb(0, 0, 0)" stroke="rgb(204, 204, 204)" stroke-width="1px"></line><line x1="290.84375" y1="0" x2="290.84375" y2="5" style="visibility: inherit;" fill="rgb(0, 0, 0)" stroke="rgb(204, 204, 204)" stroke-width="1px"></line></g><g transform="translate(0, 8)"><text x="0" y="0" dx="0em" dy="0.95em" style="text-anchor: middle; visibility: hidden; font-family: &quot;Helvetica Neue&quot;, sans-serif; font-size: 12px; font-weight: 200;" fill="rgb(50, 49, 63)" stroke="none" stroke-width="1px">-500</text><text x="36.35546875" y="0" dx="0em" dy="0.95em" style="text-anchor: middle; visibility: inherit; font-family: &quot;Helvetica Neue&quot;, sans-serif; font-size: 12px; font-weight: 200;" fill="rgb(50, 49, 63)" stroke="none" stroke-width="1px">0</text><text x="72.7109375" y="0" dx="0em" dy="0.95em" style="text-anchor: middle; visibility: inherit; font-family: &quot;Helvetica Neue&quot;, sans-serif; font-size: 12px; font-weight: 200;" fill="rgb(50, 49, 63)" stroke="none" stroke-width="1px">500</text><text x="109.06640625" y="0" dx="0em" dy="0.95em" style="text-anchor: middle; visibility: inherit; font-family: &quot;Helvetica Neue&quot;, sans-serif; font-size: 12px; font-weight: 200;" fill="rgb(50, 49, 63)" stroke="none" stroke-width="1px">1k</text><text x="145.421875" y="0" dx="0em" dy="0.95em" style="text-anchor: middle; visibility: inherit; font-family: &quot;Helvetica Neue&quot;, sans-serif; font-size: 12px; font-weight: 200;" fill="rgb(50, 49, 63)" stroke="none" stroke-width="1px">1.5k</text><text x="181.77734375" y="0" dx="0em" dy="0.95em" style="text-anchor: middle; visibility: inherit; font-family: &quot;Helvetica Neue&quot;, sans-serif; font-size: 12px; font-weight: 200;" fill="rgb(50, 49, 63)" stroke="none" stroke-width="1px">2k</text><text x="218.1328125" y="0" dx="0em" dy="0.95em" style="text-anchor: middle; visibility: inherit; font-family: &quot;Helvetica Neue&quot;, sans-serif; font-size: 12px; font-weight: 200;" fill="rgb(50, 49, 63)" stroke="none" stroke-width="1px">2.5k</text><text x="254.48828125" y="0" dx="0em" dy="0.95em" style="text-anchor: middle; visibility: inherit; font-family: &quot;Helvetica Neue&quot;, sans-serif; font-size: 12px; font-weight: 200;" fill="rgb(50, 49, 63)" stroke="none" stroke-width="1px">3k</text><text x="290.84375" y="0" dx="0em" dy="0.95em" style="text-anchor: middle; visibility: hidden; font-family: &quot;Helvetica Neue&quot;, sans-serif; font-size: 12px; font-weight: 200;" fill="rgb(50, 49, 63)" stroke="none" stroke-width="1px">3.5k</text></g><line x1="0" y1="0" x2="290.84375" y2="0" fill="rgb(0, 0, 0)" stroke="rgb(204, 204, 204)" stroke-width="1px"></line></g></g></g></g></svg>