<svg viewBox="0 0 330 200" xmlns="http://www.w3.org/2000/svg"><g><g><g><g><g><line x1="39.15625" y1="177" x2="34.15625" y2="177" style="visibility: inherit;" fill="rgb(0, 0, 0)" stroke="rgb(204, 204, 204)" stroke-width="1px"></line><line x1="39.15625" y1="154.875" x2="34.15625" y2="154.875" style="visibility: inherit;" fill="rgb(0, 0, 0)" stroke="rgb(204, 204, 204)" stroke-width="1px"></line><line x1="39.15625" y1="132.75" x2="34.15625" y2="132.75" style="visibility: inherit;" fill="rgb(0, 0, 0)" stroke="rgb(204, 204, 204)" stroke-width="1px"></line><line x1="39.15625" y1="110.625" x2="34.15625" y2="110.625" style="visibility: inherit;" fill="rgb(0, 0, 0)" stroke="rgb(204, 204, 204)" stroke-width="1px"></line><line x1="39.15625" y1="88.5" x2="34.15625" y2="88.5" style="visibility: inherit;" fill="rgb(0, 0, 0)" stroke="rgb(204, 204, 204)" stroke-width="1px"></line><line x1="39.15625" y1="66.375" x2="34.15625" y2="66.375" style="visibility: inherit;" fill="rgb(0, 0, 0)" stroke="rgb(204, 204, 204)" stroke-width="1px"></line><line x1="39.15625" y1="44.25" x2="34.15625" y2="44.25" style="visibility: inherit;" fill="rgb(0, 0, 0)" stroke="rgb(204, 204, 204)" stroke-width="1px"></line><line x1="39.15625" y1="22.125" x2="34.15625" y2="22.125" style="visibility: inherit;" fill="rgb(0, 0, 0)" stroke="rgb(204, 204, 204)" stroke-width="1px"></line><line x1="39.15625" y1="0" x2="34.15625" y2="0" style="visibility: inherit;" fill="rgb(0, 0, 0)" stroke="rgb(204, 204, 204)" stroke-width="1px"></line></g><g transform="translate(29.15625, 0)"><text x="0" y="177" dx="0em" dy="0.3em" style="text-anchor: end; visibility: hidden; font-family: &quot;Helvetica Neue&quot;, sans-serif; font-size: 12px; font-weight: 200;" fill="rgb(50, 49, 63)" stroke="none" stroke-width="1px">-50</text><text x="0" y="154.875" dx="0em" dy="0.3em" style="text-anchor: end; visibility: inherit; font-family: &quot;Helvetica Neue&quot;, sans-serif; font-size: 12px; font-weight: 200;" fill="rgb(50, 49, 63)" stroke="none" stroke-width="1px">0</text><text x="0" y="132.75" dx="0em" dy="0.3em" style="text-anchor: end; visibility: hidden; font-family: &quot;Helvetica Neue&quot;, sans-serif; font-size: 12px; font-weight: 200;" fill="rgb(50, 49, 63)" stroke="none" stroke-width="1px">50</text><text x="0" y="110.625" dx="0em" dy="0.3em" style="text-anchor: end; visibility: inherit; font-family: &quot;Helvetica Neue&quot;, sans-serif; font-size: 12px; font-weight: 200;" fill="rgb(50, 49, 63)" stroke="none" stroke-width="1px">100</text><text x="0" y="88.5" dx="0em" dy="0.3em" style="text-anchor: end; visibility: hidden; font-family: &quot;Helvetica Neue&quot;, sans-serif; font-size: 12px; font-weight: 200;" fill="rgb(50, 49, 63)" stroke="none" stroke-width="1px">150</text><text x="0" y="66.375" dx="0em" dy="0.3em" style="text-anchor: end; visibility: inherit; font-family: &quot;Helvetica Neue&quot;, sans-serif; font-size: 12px; font-weight: 200;" fill="rgb(50, 49, 63)" stroke="none" stroke-width="1px">200</text><text x="0" y="44.25" dx="0em" dy="0.3em" style="text-anchor: end; visibility: hidden; font-family: &quot;Helvetica Neue&quot;, sans-serif; font-size: 12px; font-weight: 200;" fill="rgb(50, 49, 63)" stroke="none" stroke-width="1px">250</text><text x="0" y="22.125" dx="0em" dy="0.3em" style="text-anchor: end; visibility: inherit; font-family: &quot;Helvetica Neue&quot;, sans-serif; font-size: 12px; font-weight: 200;" fill="rgb(50, 49, 63)" stroke="none" stroke-width="1px">300</text><text x="0" y="0" dx="0em" dy="0.3em" style="text-anchor: end; visibility: hidden; font-family: &quot;Helvetica Neue&quot;, sans-serif; font-size: 12px; font-weight: 200;" fill="rgb(50, 49, 63)" stroke="none" stroke-width="1px">350</text></g><line x1="39.15625" y1="0" x2="39.15625" y2="177" fill="rgb(0, 0, 0)" stroke="rgb(204, 204, 204)" stroke-width="1px"></line></g></g><g transform="translate(39, 0)" clip-path="url(#clip_0)"><clipPath id="clip_0"><rect width="290" height="177"></rect></clipPath><g><g><g><line x1="0" y1="0" x2="0" y2="177" fill="rgb(0, 0, 0)" stroke="rgb(60, 60, 60)" stroke-width="1px" opacity="0.25"></line><line x1="36.35546875" y1="0" x2="36.35546875" y2="177" fill="rgb(0, 0, 0)" stroke="rgb(60, 60, 60)" stroke-width="1px" opacity="0.25"></line><line x1="72.7109375" y1="0" x2="72.7109375" y2="177" fill="rgb(0, 0, 0)" stroke="rgb(60, 60, 60)" stroke-width="1px" opacity="0.25"></line><line x1="109.06640625" y1="0" x2="109.06640625" y2="177" fill="rgb(0, 0, 0)" stroke="rgb(60, 60, 60)" stroke-width="1px" opacity="0.25"></line><line x1="145.421875" y1="0" x2="145.421875" y2="177" fill="rgb(0, 0, 0)" stroke="rgb(60, 60, 60)" stroke-width="1px" opacity="0.25"></line><line x1="181.77734375" y1="0" x2="181.77734375" y2="177" fill="rgb(0, 0, 0)" stroke="rgb(60, 60, 60)" stroke-width="1px" opacity="0.25"></line><line x1="218.1328125" y1="0" x2="218.1328125" y2="177" fill="rgb(0, 0, 0)" stroke="rgb(60, 60, 60)" stroke-width="1px" opacity="0.25"></line><line x1="254.48828125" y1="0" x2="254.48828125" y2="177" fill="rgb(0, 0, 0)" stroke="rgb(60, 60, 60)" stroke-width="1px" opacity="0.25"></line><line x1="290.84375" y1="0" x2="290.84375" y2="177" fill="rgb(0, 0, 0)" stroke="rgb(60, 60, 60)" stroke-width="1px" opacity="0.25"></line></g><g><line x1="0" y1="177" x2="290.84375" y2="177" fill="rgb(0, 0, 0)" stroke="rgb(60, 60, 60)" stroke-width="1px" opacity="0.25"></line><line x1="0" y1="154.875" x2="290.84375" y2="154.875" fill="rgb(0, 0, 0)" stroke="rgb(60, 60, 60)" stroke-width="1px" opacity="0.25"></line><line x1="0" y1="132.75" x2="290.84375" y2="132.75" fill="rgb(0, 0, 0)" stroke="rgb(60, 60, 60)" stroke-width="1px" opacity="0.25"></line><line x1="0" y1="110.625" x2="290.84375" y2="110.625" fill="rgb(0, 0, 0)" stroke="rgb(60, 60, 60)" stroke-width="1px" opacity="0.25"></line><line x1="0" y1="88.5" x2="290.84375" y2="88.5" fill="rgb(0, 0, 0)" stroke="rgb(60, 60, 60)" stroke-width="1px" opacity="0.25"></line><line x1="0" y1="66.375" x2="290.84375" y2="66.375" fill="rgb(0, 0, 0)" stroke="rgb(60, 60, 60)" stroke-width="1px" opacity="0.25"></line><line x1="0" y1="44.25" x2="290.84375" y2="44.25" fill="rgb(0, 0, 0)" stroke="rgb(60, 60, 60)" stroke-width="1px" opacity="0.25"></line><line x1="0" y1="22.125" x2="290.84375" y2="22.125" fill="rgb(0, 0, 0)" stroke="rgb(60, 60, 60)" stroke-width="1px" opacity="0.25"></line><line x1="0" y1="0" x2="290.84375" y2="0" fill="rgb(0, 0, 0)" stroke="rgb(60, 60, 60)" stroke-width="1px" opacity="0.25"></line></g></g></g><g><g><line x1="0" y1="154.875" x2="290.84375" y2="154.875" fill="rgb(0, 0, 0)" stroke="rgb(153, 153, 153)" stroke-width="1.5px"></line></g></g><g><g><line x1="36.35546875" y1="0" x2="36.35546875" y2="177" fill="rgb(0, 0, 0)" stroke="rgb(153, 153, 153)" stroke-width="1.5px"></line></g></g><g><g><g><g><g><path stroke="rgb(255, 112, 67)" stroke-width="2px" d="M36.7190234375,7.875846405029307L37.1552890625,10.70985242843625L37.446132812500004,12.831364559251455L37.664265625,15.239624822280007L38.10053125,17.310244335569024L38.973062500000005,17.790894604722865L39.263906250000005,19.044427370809217L39.409328125,19.878951606418354L39.554750000000006,20.127588873885117L39.627460937500004,20.953265755847838L39.7728828125,20.830155207081674L40.209148437500005,22.15494192342757L40.281859375,21.19329966714949L40.3545703125,21.45873355118374L40.42728125000001,20.738107937888884L41.0816796875,21.91863417300874L41.299812499999994,21.88594779824234L41.5179453125,22.398225381127503L41.590656249999995,23.407508388034415L41.66336718749999,22.48982597308506L41.736078125,23.004059391419645L42.0996328125,24.345836840477034L42.6813203125,25.59350353463566L43.190296875,25.633078382520864L43.771984374999995,25.906637602171088L43.9901171875,26.635933390308963L44.062828124999996,27.334559406448932L44.5718046875,27.754766266906216L44.935359375,27.512372518732548L45.517046875,27.616917552906415L45.7351796875,28.844599425057652L45.807890625,29.37850756129606L46.4622890625,29.196891454374622L46.6077109375,30.860503816773587L46.680421875,30.5394140399155L46.7531328125,31.065763267024778L47.262109375,31.248914626387375L47.6256640625,31.120632192104125L47.771085937500004,32.54900538656L47.843796875,31.615384340307145L48.134640625,31.480631818675818L48.4981953125,32.10910370088294L48.57090625,32.500911622498336L48.7890390625,33.379868445819255L49.22530468750001,34.54140791453614L49.298015625000005,34.75798250508285L49.4434375,35.32547938344203L49.661570312500004,35.48609845160203L49.8069921875,35.18790919302751L49.879703125000006,35.306570405954176L50.025124999999996,35.180014142985925L50.170546875,35.2926938495614L50.2432578125,35.05042743644543L50.75223437499999,35.28086309028549L51.333921874999994,36.59978708024636L51.4066328125,37.454070246195016L51.47934375,36.73310657642779L51.7701875,36.44197496880585L52.497296874999996,37.25380308431093L52.570007812499995,38.09494316650455L52.7154296875,38.86061146875042L53.0062734375,37.779202818750235L53.22440625,38.439999901699366L53.2971171875,38.97210180869541L53.369828125,39.29405835694578L53.5879609375,39.969785233894015L54.4604921875,40.760475083207524L54.8967578125,40.49620784045186L55.114890625,40.447883578782836L55.2603125,41.15350816240641L55.3330234375,39.97385752195558L55.4784453125,40.6872202748921L55.7692890625,42.135051342181384L56.0601328125,42.622949887950426L56.205554687500005,43.14040414907882L56.569109375000004,43.57221580182525L57.5870625,43.18319315907365L57.9506171875,43.7688421039403L58.023328125000006,44.24258066824797L58.31417187500001,44.26918585212064L58.386882812500005,46.006766729778235L58.677726562500006,46.68292936159739L58.750437500000004,45.78098056312544L58.895859375,45.33902538011159L59.113992187499996,45.981425604043494L59.477546874999994,46.52092779589779L59.55025781249999,47.11019122954062L59.62296875,46.94990480730445L59.9865234375,47.14043427842566L60.059234374999996,47.424151893959674L60.131945312499994,47.40886412221565L60.350078124999996,47.46537775372491L61.004476562499995,48.3707251873912L61.1498984375,48.80234716077456L61.586164062499996,49.8655284441698L62.531406249999996,50.19612334091596L62.7495390625,50.75940503787477L63.0403828125,51.14309059352564L63.3312265625,50.95255421573452L63.4766484375,50.92980050429425L63.7674921875,51.126962364344124L63.840203125,52.52253529824513L63.9129140625,52.44139446996272L64.0583359375,52.77837421859874L64.421890625,53.23837557486041L64.7854453125,53.37834220892992L64.85815625000001,53.65323674015286L66.02153125,53.93848894960931L66.5305078125,55.07817349366694L66.96677343750001,55.96257575757714L67.039484375,56.09129402022012L67.18490625,56.22761590492992L67.621171875,55.746118203236264L68.2755703125,57.0672859732113L68.42099218749999,57.76669540594824L68.493703125,57.641072709267206L68.7118359375,57.51023264533572L69.1481015625,57.63618229655201L69.7297890625,57.59252772204739L69.8025,58.88278057976166L70.0206328125,59.23932021858455L70.09334375,58.71136779643392L70.7477421875,58.96181954870998L70.820453125,59.14396820932852L71.6202734375,60.243356557310975L71.83840625,61.05738652349791L71.9111171875,61.1215511462765L72.0565390625,61.249349358420176L72.2019609375,60.92563924762044L73.2199140625,61.44772626097465L73.58346875,61.01981797704376L73.728890625,62.09253379159735L73.9470234375,63.93605021270254L74.456,63.44097662420354L74.5287109375,63.24259560281803L74.9649765625,63.736074604122464L75.1103984375,63.951845446067225L75.183109375,64.2907122175915L75.32853125,64.81007515770334L75.40124218749999,64.9127775012382L75.619375,64.70804275196363L75.764796875,65.04352862359028L76.1283515625,65.1013749561366L76.2010625,65.62881504021028L76.8554609375,66.52493410469258L77.0008828125,66.69506910539367L77.2917265625,67.61762245688855L77.36443750000001,67.65666989442121L77.72799218749999,66.5862963702465L78.0188359375,67.48480896533637L78.091546875,67.08561072099872L78.3096796875,67.9512587513248L78.45510156249999,68.04933538995505L78.6005234375,68.19850171615077L78.673234375,68.06038301211234L78.7459453125,67.92189139784357L78.81865625,68.18495328963387L78.964078125,68.29943169057721L79.03678906249999,67.65281305182192L79.40034375,68.25946486966735L79.4730546875,68.56960999785024L79.98203125,69.06634644304607L80.127453125,67.70963708946044L80.56371875,68.73049563258253L80.709140625,69.2886273356042L81.0726953125,69.88637847350607L81.43625,70.62666920141324L81.58167187500001,70.21428582260575L82.45420312499999,70.5735161651943L82.9631796875,71.71970878969276L83.035890625,72.18414876014376L83.18131249999999,71.68969091624251L83.2540234375,71.82105069476503L83.32673437499999,71.98194944762075L83.3994453125,72.64538780822087L83.5448671875,73.24069066222745L83.76299999999999,72.81880877599859L84.05384375,72.99225839487161L84.4173984375,73.22544018096593L84.63553125,72.72165543548385L84.926375,73.05091937823369L85.14450781250001,73.3613471133904L85.21721875,74.06904020162798L85.362640625,74.49659453113304L85.4353515625,75.4893910601105L85.5807734375,74.73502535261903L85.65348437499999,73.98329710244056L85.72619531250001,73.55910616063426L85.944328125,74.04384801950067L86.0170390625,73.5859622846008L86.23517187499999,74.44855901443724L86.38059375,75.27119735934593L86.45330468750001,75.56694635139857L86.96228124999999,76.11233190385674L87.1804140625,75.87201053147419L87.4712578125,75.4752113542849L87.689390625,76.82209425031508L87.8348125,77.09709035145858L87.980234375,77.16282530157338L88.271078125,76.6820938015495L88.561921875,76.4319199161836L88.78005468750001,77.19317004663401L88.852765625,77.00508116616399L88.92547656250001,76.59840718968864L88.9981875,76.48034677352999L89.434453125,76.65266405777034L89.87071875,76.81603392050204L90.016140625,76.98903830579245L90.08885156250001,77.94435364753795L90.3796953125,78.58750452250715L90.597828125,79.3158626073031L90.67053906250001,79.15014946135452L90.888671875,79.8089754647766L90.96138281249999,79.69334075371945L91.03409375,79.76252476167991L91.179515625,80.62545009870716L91.3249375,81.5075547882282L91.761203125,80.9217899835326L91.9793359375,80.47380700708733L92.052046875,80.04600188613718L92.27017968749999,80.07871014047137L92.342890625,79.89588810210509L92.41560156249999,78.91912282708337L92.5610234375,80.31515523006351L92.633734375,80.64817504721778L93.07000000000001,81.25358042811094L93.36084375,80.90127760562146L93.43355468749999,81.09917330165412L93.57897656249999,81.76387318265262L93.7243984375,82.4571079366912L93.8698203125,82.10262236699519L93.94253125,81.33820504251156L94.0152421875,80.7678763336124L94.087953125,81.9812243353237L94.16066406249999,80.95205926244911L94.378796875,81.29560140219603L94.669640625,80.92150180201098L94.8877734375,81.5196912423394L95.0331953125,81.59504731986654L95.10590625,82.21812534626564L95.1786171875,83.38527980981017L95.6148828125,83.63899427138415L95.68759375,83.9232167227426L95.833015625,83.97531986518852L96.05114843749999,83.54815780046077L96.3419921875,83.99657098032529L96.560125,84.12314868865904L96.7782578125,83.7326202617794L96.85096875,84.25545786873755L96.996390625,84.64317331133041L97.1418125,84.36387026487442L97.28723437500001,84.01172077953012L97.6507890625,83.68526333319657L97.86892187500001,83.84358872501561L98.01434375000001,84.15741673903769L99.3958515625,85.56314221261206L99.5412734375,86.0365158054725L99.613984375,86.3398075087962L99.90482812500001,86.13321491909609L100.05024999999999,86.51028312321058L100.34109375,86.10392783901422L100.486515625,85.72695414603551L100.63193749999999,86.78736892927168L100.8500703125,87.0204523329048L100.9954921875,87.25214867330243L101.068203125,87.30754683337601L101.213625,86.41289693547483L101.50446874999999,86.80155966397044L101.7953125,86.91722634098483L102.3042890625,87.43764738906353L102.377,88.40343557088929L102.4497109375,88.69098649817322L102.52242187499999,88.62892777536877L102.66784374999999,88.39807718524081L102.8859765625,88.532334699206L102.9586875,88.25920520184782L103.0313984375,88.31341756080596L103.24953124999999,89.08369705137616L103.32224218750001,89.53672792015675L103.394953125,88.77205014931084L103.4676640625,88.9331188987906L104.04935156250001,89.67936873002144L104.1220625,89.65695157553728L104.3401953125,88.77594038501962L104.849171875,88.94758776006451L105.0673046875,88.82613923440783L105.6489921875,89.76342545348649L105.72170312499999,90.17565399645714L105.867125,89.79568039225906L105.9398359375,90.09720538501364L106.012546875,90.25260586955797L106.2306796875,90.25741638123186L106.30339062499999,90.46450790369029L106.4488125,90.53315052773664L106.594234375,90.66538296190566L106.95778906250001,91.0890319316844L107.0305,91.52974165351749L107.32134375,92.39436482853628L107.3940546875,92.62213772646746L107.466765625,92.40134443397618L107.53947656250001,91.88276938316402L107.757609375,91.37392537806737L107.8303203125,91.6886348288912L107.90303125,91.98742110119214L108.12116406250001,92.145988488352L108.193875,92.97292031774265L108.7755625,92.04276773935163L109.06640625,92.5863591299391L109.211828125,92.4356002985201L109.35725,92.79288456265698L109.4299609375,93.30311217680317L109.64809375,93.32412469133581L109.9389375,93.50640221348313L110.01164843749999,93.30058470577542L110.084359375,93.23482392222014L110.3024921875,93.56141034454302L110.8841796875,93.2666393128049L111.02960156249999,93.95879062503646L111.3204453125,94.60035761171622L111.39315625,94.37097524818208L111.61128906249999,94.30912503538384L111.75671093749999,94.30614768968735L111.9021328125,94.93252546683975L112.2656875,95.47127013239877L112.7746640625,94.613098108492L112.847375,94.89803038914305L113.0655078125,95.72747588729442L113.2109296875,95.58777735671747L113.6471953125,95.85230815292208L113.71990625000001,96.25364270425325L113.865328125,96.35055531249334L114.01075,96.32101852074797L114.30159375000001,96.30355302223882L114.5924375,95.91215479307962L114.737859375,95.90898016222474L115.1014140625,96.23842102580164L115.174125,96.43045976574955L115.2468359375,96.09572878608547L115.7558125,97.04622744804288L115.8285234375,95.81945647004643L116.2647890625,97.24490807392239L116.5556328125,97.40550211058878L116.62834375000001,97.83894878832592L116.7010546875,97.69391755180416L117.35545312500001,97.72127522895848L117.50087500000001,97.41148922795125L117.7190078125,97.63268845864575L118.1552734375,97.84226212303902L118.22798437499999,98.10960956264178L118.518828125,98.50904337888144L118.7369609375,98.44428235820045L118.8823828125,98.6355438411898L119.9003359375,99.22031383828322L120.11846874999999,99.67529459569454L120.33660156250001,99.83278849752902L120.4093125,100.52002120490168L120.4820234375,100.40214811417637L120.70015624999999,100.07220093210445L120.7728671875,100.55807526659909L120.84557812499999,100.18317201847998L122.154375,99.93808476016025L122.299796875,101.01170878914057L122.3725078125,101.45764812199508L122.5179296875,101.43403246145388L122.59064062499999,101.52578326166237L123.02690625,101.22972090304235L123.0996171875,102.03209242952072L123.2450390625,102.02749456293705L123.39046093750001,102.45101210336281L123.5358828125,101.14598262822864L123.6813046875,100.96890284750603L123.89943749999999,101.30408410962666L124.044859375,101.26215816841271L124.19028125,101.63049648490994L124.335703125,102.29138644532829L124.48112499999999,102.41292979047579L124.626546875,102.81326501539876L125.35365625,102.95027241713721L125.6445,102.55945235256505L125.93534375,102.47193140604585L126.0080546875,103.63883259545857L126.080765625,102.63948594338353L126.2261875,103.32983135179671L126.44432031250001,103.68741620609757L126.662453125,102.89977916091439L126.807875,103.03157377248857L127.02600781250001,103.89644319537791L127.46227343749999,103.8857003975124L127.6076953125,104.30186193467442L127.7531171875,103.57422236252586L127.825828125,103.33394937973475L128.0439609375,103.82980361068996L128.116671875,104.56347060635538L128.18938281249999,104.47709742423804L128.407515625,104.64230755732603L128.989203125,105.11435548166125L129.3527578125,105.43846768200213L129.4981796875,105.08281869971641L129.9344453125,105.32537392094069L130.2252890625,105.47650582381685L130.298,105.8268309692657L130.3707109375,105.5878564169476L130.443421875,106.25068243232188L130.87968750000002,105.68844418839704L131.0978203125,106.20823973081166L131.60679687500001,106.27624510801826L131.75221875,105.81937357543106L131.97035156249999,105.42037080358382L132.0430625,105.70029895920108L132.2611953125,106.70333956228822L132.69746093749998,106.57641768543202L132.8428828125,106.28128188567327L133.061015625,107.09684506676774L133.2791484375,107.4633611370455L133.351859375,107.1593590436775L133.4245703125,106.78850907244674L133.49728125000001,107.13203664158814L133.5699921875,106.99617176827809L134.0062578125,107.26899989781988L134.4425234375,107.26788956271537L134.8787890625,106.86303564040023L135.3150546875,106.6556159246454L135.678609375,106.7620586722189L135.969453125,107.91801129586062L136.4784296875,107.27079490617848L136.6238515625,107.76408366367778L136.84198437499998,108.31051478103139L136.98740625,108.75736419698798L137.0601171875,109.42457189954044L137.27824999999999,109.13507024238541L137.3509609375,109.61129922550936L137.4963828125,108.88085848428022L137.56909374999998,108.69739074669607L137.7872265625,108.79624172951178L139.0233125,109.45630062547562L139.0960234375,109.42518194083713L139.16873437499999,109.42326517799106L139.5322890625,108.79380239140156L139.750421875,108.7930896700094L140.041265625,109.70116039685426L140.1139765625,109.47016939790261L140.1866875,109.89177050776011L140.47753125,109.82948773495391L140.5502421875,109.68763065214179L140.622953125,110.32195701524748L140.768375,110.18419665482719L140.913796875,110.42604223911214L141.05921874999999,110.43662245955616L141.204640625,110.98500203255742L141.78632812499998,109.97953333928542L142.1498828125,110.58486805960153L142.22259375,110.77864465167889L142.8769921875,111.15823645836572L142.94970312499998,111.7578195605663L143.74952343750002,112.21546282398627L144.3312109375,112.03985013549284L144.403921875,112.39657416668389L144.6220546875,112.58952744678767L144.7674765625,111.89246359179087L144.8401875,112.1030687159876L145.421875,112.50557836643338L145.4945859375,112.33231737966229L145.56729687499998,111.85211830255324L145.64000781250002,111.8338120429333L145.85814062499998,112.05079519084786L146.0035625,112.5204358394843L146.0762734375,112.1724261078776L146.148984375,112.40349373540526L146.73067187499998,111.88319714761523L147.0942265625,112.61253628478495L147.1669375,112.94752265588075L147.3850703125,113.05714082131165L147.894046875,113.09823580962048L148.03946875,113.37638907183185L148.766578125,113.06184081309422L149.13013281250002,113.07507270379892L149.20284375,112.5323472721817L149.34826562499998,112.99242094418061L149.42097656250002,113.05764160764605L149.8572421875,113.89523208983178L150.36621875,114.47912114171646L150.4389296875,114.51397616403378L151.093328125,115.27682480059312L151.384171875,114.5336531536713L151.52959375,114.94965422588197L151.8204375,114.90279688428407L152.4748359375,115.02978029579262L152.62025781250003,115.57737301451169L152.838390625,114.9250905567539L152.9838125,114.42148370111775L153.0565234375,115.02811368563647L153.420078125,115.47926558076665L153.6382109375,115.45613066804007L154.001765625,115.43958132440804L154.1471875,115.751290664762L154.583453125,115.47506462865458L154.65616406249998,115.71681981356969L154.72887500000002,115.96540020723361L155.01971875,116.15714014875422L155.3832734375,115.82440268819053L155.60140625,116.35056527319264L155.74682812499998,116.68374108804889L155.9649609375,116.40493552502171L156.18309375,116.21358800873861L156.4739375,116.79779121771875L156.9829140625,116.84218627390518L157.05562500000002,116.98403697644028L157.1283359375,116.48107802387685L157.6373125,116.72423745916254L157.782734375,115.96340243796091L157.92815625,116.44989987647284L158.1462890625,116.93472093937247L158.21900000000002,116.91557324050336L158.655265625,117.41470434164088L158.72797656249998,117.94306547913004L159.3096640625,118.2751310507837L159.527796875,117.14959280588525L159.60050781249998,117.29112313043056L159.67321875000002,117.96058749825346L159.7459296875,117.78646785539738L159.89135156249998,117.16212608982535L160.109484375,117.70028396230586L160.6184609375,117.91615250934152L160.691171875,117.57182268541447L161.05472656249998,117.52620631266471L161.20014843750002,118.1591740210583L161.272859375,117.06674682901682L161.3455703125,117.86331250933637L161.99996875000002,117.49616577403442L162.29081250000002,118.15897501526294L162.436234375,118.61757993255864L162.5089453125,118.43526016351467L162.65436718750001,118.0863297965341L163.017921875,118.57265860332329L163.0906328125,118.27794757898616L163.2360546875,118.30197448000888L163.308765625,118.85730797902094L163.38147656249998,118.82540506634324L163.599609375,119.27365664454226L163.74503124999998,118.77659023458914L163.890453125,119.10851181897613L164.54485156249999,118.98678204866107L164.762984375,119.07491071326646L165.4173828125,119.63332201542326L165.8536484375,119.9009472345225L165.926359375,120.07924775355531L166.36262499999998,119.4495401072113L166.4353359375,119.94969612548401L166.508046875,119.82124750011951L167.089734375,119.75393768616789L167.52599999999998,119.56164363281891L167.59871093750002,120.4603197978554L168.1803984375,119.86484276524888L168.253109375,120.45747986264054L168.47124218750002,120.51644073740854L168.68937499999998,120.7840649429334L168.98021874999998,121.2124864663704L169.12564062500002,121.2417466787114L169.416484375,121.38569781038845L169.85275,121.5190125430446L170.14359374999998,121.46566800861484L170.2163046875,121.81801024120406L170.4344375,120.32962302399491L170.79799218750003,120.58094906158934L171.08883593750002,121.00043838684374L171.2342578125,121.70642099872L171.37967968750002,121.12273293980817L171.5251015625,121.59372842507875L172.034078125,121.71340096495936L172.1795,121.27118175329203L172.25221093750002,121.41992559708021L172.6884765625,121.69689005063093L172.7611875,121.74583755210708L172.83389843749998,121.8315232526998L172.9793203125,121.75648565266968L173.12474218749998,121.99731906494165L173.99727343749998,122.32553871679703L174.651671875,122.42977075510262L174.942515625,122.32021734197758L175.3060703125,122.26433378195657L175.37878125,122.22405838379797L175.74233593749997,122.40950537329635L175.815046875,122.66558266428542L175.8877578125,122.79167541949411L176.1786015625,123.20913423424041L176.25131249999998,123.64906969001935L176.68757812500002,123.6735086627665L176.978421875,123.58702282308712L177.05113281250001,123.51658353638157L177.12384375,123.39957786841099L177.269265625,123.30183300186934L177.3419765625,122.78303496652688L177.70553125,122.76711625274328L177.9236640625,123.15342751226609L178.06908593749998,123.52250837350954L178.28721875,123.29081166473074L178.5053515625,123.70310909966851L178.72348437500003,123.61220354879038L178.86890625,123.56464585211357L179.37788281250002,123.4861193212657L179.5233046875,123.53116974644595L179.6687265625,123.98411975558241L180.323125,124.09589943513654L180.39583593749998,124.39685161176553L180.46854687500002,124.72622380580444L180.54125781250002,123.96702459720336L181.55921093749998,124.14898298494555L181.8500546875,124.41971075959526L182.1408984375,124.66623970954134L182.21360937499998,124.66075942020723L182.4317421875,125.22828112209504L182.504453125,124.16833457901875L182.72258593749999,123.97594967624426L182.8680078125,124.31678744185494L183.01342968749998,124.26404511373357L183.37698437499998,124.46839341498087L183.5951171875,124.1857991715471L183.7405390625,124.85368548895121L183.958671875,124.78865253940344L184.17680468749998,125.15952729329538L184.3949375,125.05119534936591L184.54035937499998,125.4183710029545L184.7584921875,125.6099047123684L184.976625,125.86511018581947L185.0493359375,125.85978800480224L185.26746875,126.10061788955127L185.48560156250002,126.09724265908477L186.14000000000001,126.12960012731122L186.285421875,125.91299120126466L186.64897656250002,125.8965542117256L187.01253125,125.37150523516524L187.0852421875,125.27509121330374L187.15795312499998,125.73839431233282L187.30337500000002,125.72432725207256L187.3760859375,125.96475410423426L187.5215078125,125.88987089515773L187.6669296875,126.36835778260854L187.8850625,126.07885693946258L187.9577734375,125.6022097630428L188.2486171875,125.79502433652439L188.612171875,125.87181742784237L188.75759375,125.84894711564098L189.193859375,126.18750924152204L189.26657031250002,126.43755748583118L189.33928125,126.47271981712127L189.4119921875,126.56928717896906L189.48470312499998,126.2908868139122L189.7028359375,126.56086328417862L189.8482578125,126.74133618110898L190.1391015625,126.21352009245444L190.357234375,126.45138619106226L190.50265625,126.87105186463127L190.64807812499998,126.85834178924995L190.72078906250002,127.21770324325823L190.7935,126.59589413223422L191.08434375000002,126.86154785476778L191.3751875,126.88398088266047L191.4478984375,127.13369570046422L191.520609375,126.56865036552999L191.81145312499999,126.7215978731266L191.8841640625,127.40631543240256L192.0295859375,127.45368572092835L192.10229687499998,127.42375833807458L192.24771875000002,126.66736517893119L192.3204296875,126.83968541900421L192.393140625,126.89297761797968L192.5385625,126.92309073185959L192.6112734375,127.25278228411698L192.75669531249997,127.46436794835105L192.974828125,127.64473183010682L193.12025,127.34648228272596L193.1929609375,127.33101704755305L193.62922656249998,127.00810549830723L193.7019375,127.08869695529536L193.7746484375,127.3692522460532L194.0654921875,127.59083990659187L194.2109140625,127.47387142518681L194.3563359375,127.35784213459208L194.6471796875,127.42779612014122L195.3742890625,127.66290042370218L195.5197109375,127.9175710456947L195.6651328125,128.43275739487285L195.73784375000002,128.4335330761449L196.02868750000002,127.55074320536713L196.174109375,127.84888107336675L196.24682031249998,127.6885426027603L196.31953125,127.96917483228606L196.5376640625,127.85004530464508L196.8285078125,128.15240905687153L196.90121875000003,128.06614573243223L197.1193515625,128.3002275052247L197.337484375,128.61495483199226L198.06459375000003,128.54953063082377L198.1373046875,128.55070582051087L198.35543750000002,128.7735157393158L198.4281484375,128.64577720634583L198.57357031249998,127.71645462794567L198.791703125,128.17151668622176L198.937125,128.52163964124966L199.00983593750001,127.69394099147587L199.1552578125,127.41719168991726L199.22796875,127.91620199972917L199.3006796875,128.24462429126817L199.373390625,128.4919923253102L199.51881250000002,128.9118090045001L199.664234375,128.86106428453598L199.73694531249998,128.87632993882463L200.0277890625,128.77223104587534L200.10049999999998,128.31834327001178L200.245921875,128.6800281101394L200.4640546875,128.74349146019983L200.827609375,128.65614000398855L201.700140625,128.86416714524591L201.990984375,129.02274957761387L202.2091171875,129.2633293196274L202.572671875,129.21526501731356L202.71809374999998,129.33856281898187L202.9362265625,128.92478139866452L203.3724921875,128.5880760154072L203.445203125,129.01738433986566L203.590625,129.0098184136728L203.8087578125,129.6155076673138L204.026890625,129.44949578920054L204.0996015625,128.76648695563702L204.17231249999998,129.68929225501674L204.82671093750002,129.83940147147928L204.899421875,129.91017717210264L204.9721328125,129.65616367630847L205.04484374999998,129.81665741904192L205.190265625,129.89916267575987L205.33568749999998,130.0109889460931L205.5538203125,130.22436574467002L205.917375,130.13034711174953L206.062796875,130.204087081747L206.1355078125,130.44769643544956L206.20821875,130.47921014642597L206.28092968750002,130.63182985982826L206.8626171875,130.64924431634861L207.517015625,130.4777714471395L207.8805703125,130.5302725026831L208.4622578125,130.5175447424546L208.53496875,130.68028301002352L208.7531015625,130.67771527720552L209.0439453125,130.85176751776373L209.552921875,130.19435627558136L209.7710546875,130.5593186908859L209.98918749999999,130.71382115685333L210.0618984375,130.4666093635761L210.134609375,130.56377539445182L210.28003124999998,131.01223880081903L210.86171875,130.8256018025251L211.007140625,131.0756274923427L211.1525625,131.26506724171298L211.297984375,130.82188573153292L212.02509375,130.90803832215948L212.60678124999998,131.06774049665262L212.6794921875,131.08215006581383L212.75220312500002,131.10706140942239L213.04304687500002,131.67626620356359L213.4793125,132.09602129211495L214.061,132.1741632513432L214.497265625,131.89405580831934L214.56997656250002,131.61080265613418L214.6426875,131.7533967738868L214.7153984375,131.61979434332378L214.8608203125,131.4031692771979L215.0062421875,131.0573816345255L215.224375,131.39497822082762L215.660640625,131.70700455258324L215.8060625,132.23480612510463L216.3150390625,132.0626392178179L216.6058828125,132.31245996120222L216.75130468749998,132.24650199295667L217.0421484375,132.33038914133064L217.114859375,132.30339061217876L217.26028125,132.13094313500744L217.6238359375,131.82667109798444L217.84196875,132.26726746744546L217.98739062500002,132.340423777739L218.2055234375,132.4866855257987L218.27823437499998,132.5075841304206L218.35094531250002,132.15687168339153L219.07805468749999,132.10112745797193L219.150765625,132.26203697511886L219.2961875,132.3780696734746L219.36889843749998,132.3499781947708L219.44160937499998,132.6881509641037L219.51432031250002,132.5645447761551L219.73245312499998,132.3799451197824L219.8051640625,132.59015177188166L219.9505859375,132.8727098032108L220.16871875,132.76719929959003L220.314140625,132.9726852795221L220.4595625,133.29821049480066L220.604984375,132.97668189685598L221.2593828125,132.86885227013263L221.5502265625,133.29639860802075L221.69564843749998,133.02900657280196L221.84107031250002,133.16446824421828L221.9864921875,133.31183193606344L222.204625,132.62641598750477L222.4227578125,132.33576144247843L222.85902343749999,132.9764205495691L222.931734375,133.0928717846975L223.22257812499998,133.30322898359927L223.4407109375,133.40912379152675L223.65884375000002,133.1471501248306L223.804265625,133.36822118528045L223.8769765625,133.50092121367072L224.16782031250003,133.6362588515545L224.45866406250002,133.7290148057142L224.67679687499998,133.71829945502276L224.7495078125,133.7124522682285L224.82221875000002,133.41603753067585L224.8949296875,133.61101397882422L225.1130625,133.04559605819298L225.40390625,133.36564842928834L225.84017187499998,133.30051858943335L225.91288281250002,133.71425236154576L226.131015625,133.97457332854856L226.4945703125,133.9422591262185L226.712703125,133.64259517223377L226.78541406250002,133.5305390827104L226.9308359375,133.63770050193335L227.07625781250002,133.93715582743565L227.2216796875,133.65916602453757L227.294390625,133.7967387619088L227.5125234375,133.85076527252613L227.585234375,133.98920670685067L227.73065625,134.27441606817777L227.9487890625,134.10655141245206L228.0215,133.81942301208306L228.16692187499999,133.77388127764777L228.60318750000002,133.72690314937066L228.82132031249998,133.88025024991293L229.039453125,133.76413982737694L229.11216406249997,133.9720272695341L229.4030078125,134.20056182451953L229.8392734375,134.09989619963113L230.78451562499998,134.26434294743981L231.075359375,134.09178528811722L231.22078125000002,134.49364030281419L231.58433593750001,134.65684587144682L231.80246875,134.81470144071477L231.94789062499999,134.86940639757094L232.238734375,135.04263953174936L232.60228906249998,134.77552382448783L232.8931328125,134.9154840601651L233.1839765625,134.81413024170212L233.402109375,135.17433776797657L234.0565078125,135.21613067973738L234.4927734375,134.77612161462952L235.2198828125,135.12967632189662L235.29259375,134.9724267075972L235.36530468750001,135.13756697121357L235.5834375,135.1026695620006L235.6561484375,135.26732102888738L236.019703125,135.64740554534146L236.16512500000002,135.18614650561062L236.45596874999998,135.02405446144132L236.52867968750002,135.0197062745821L236.601390625,135.17986411661693L236.6741015625,135.22014532238714L236.74681249999998,135.12937991041227L236.8195234375,135.315524636616L236.892234375,135.56875529558044L237.473921875,135.4048391949569L238.1283203125,135.7040575811526L239.1462734375,135.49844764836197L239.218984375,135.71138600997665L239.2916953125,135.9438896466049L239.800671875,136.0132086925955L240.1642265625,136.05029720194645L240.382359375,135.38558755807583L240.52778124999998,135.64756991918387L240.6004921875,135.85002348837557L240.67320312500001,135.9878625122148L240.7459140625,135.98652225586403L241.03675781249999,136.03051096399204L241.6184453125,135.81089050173506L241.69115624999998,136.1240968887791L241.9092890625,136.1311984057894L242.0547109375,136.3744029691023L242.127421875,136.2896883818032L242.27284375,135.90667538717517L243.145375,136.0675398049064L243.290796875,136.15637061222242L243.50892968750003,136.06180201210884L243.6543515625,135.77907498930875L244.01790624999998,136.02746204909673L244.2360390625,136.1899085115015L244.45417187500001,136.74667067376492L245.1085703125,136.50704443840812L245.18128124999998,136.3881289381303L245.61754687500002,136.42478755727518L245.76296875,136.75506078967516L245.83567968749998,136.68428457790054L246.2719453125,136.54920079739952L246.490078125,136.69622411460915L246.5627890625,136.927663179703L246.92634375,136.7067468946382L247.071765625,136.82458746631173L247.2171875,136.59040190910832L247.4353203125,136.71450876173697L247.50803125,136.9172051006396L247.5807421875,136.84368361793992L248.08971875,136.9996491127195L248.45327343749997,137.14896223527086L248.5986953125,137.14869025314982L248.67140625,137.1338211770364L248.7441171875,136.99699160072257L249.0349609375,137.00037502940324L249.5439375,137.16502329645056L249.83478125,136.63766017232834L250.0529140625,136.6833190571934L250.12562499999999,136.8204109861654L250.27104687500002,137.2066951619507L250.78002343749998,137.14460720794924L250.852734375,136.8869119764419L251.2162890625,137.113002429548L252.08882031250002,137.20259243520684L252.452375,137.08144361420028L252.59779687500003,137.636385097048L252.6705078125,137.55689239856082L252.88864062500002,137.61040879652785L252.9613515625,137.78011725667648L253.61575,137.16720179702958L254.05201562500002,137.58853813449215L254.34285937500002,137.24664751219552L254.70641406250002,137.4524967623222L254.8518359375,137.65469428542067L254.9972578125,137.86581526281122L255.1426796875,137.633656783114L255.2881015625,137.81657861424094L255.506234375,137.65073205013636L255.5789453125,137.87623771488407L255.65165625,138.34209947097145L255.86978906250002,138.04237270824814L255.9425,137.86306128211442L256.0152109375,137.85700851456895L256.087921875,137.53225241098747L256.30605468749997,137.68157186742988L256.37876562499997,137.64268554065447L256.45147656250003,137.59963313683164L256.669609375,137.79632579960997L256.7423203125,138.0297913865958L256.8877421875,138.27336291102853L256.96045312499996,138.12331792133025L257.251296875,138.27442088280304L257.39671875,137.75728390022624L257.4694296875,138.14310398652856L257.542140625,138.28223456141177L257.83298437499997,138.08376027343763L257.97840625,138.05257747219858L258.123828125,138.1087658589295L258.3419609375,138.09161731870242L258.996359375,138.2592721261458L259.2144921875,138.15037836968162L259.3599140625,138.11319126283678L259.5053359375,138.40323527619574L259.6507578125,138.27478630426725L259.7961796875,138.06841179873467L260.0143125,138.1931341382618L260.450578125,138.24108979921073L260.741421875,138.06967745435554L260.88684375,138.2471817777891L261.10497656250004,138.4537336920702L261.3958203125,138.70901447290203L261.68666406250003,138.79935072323096L261.9775078125,138.75396093976744L262.2683515625,138.84170779402405L262.7046171875,139.05101748952478L262.92275,138.95586173349147L263.21359375000003,138.81885751708464L263.359015625,138.70690561285087L263.649859375,138.9527767524151L263.7225703125,139.22081951290536L264.231546875,139.15549320691923L264.4496796875,139.14907845207512L264.522390625,139.20314297502316L264.8859453125,139.05747165766405L264.95865625,139.20075345663457L265.0313671875,139.18279013245242L265.1767890625,139.09096501117313L265.39492187499997,138.4924617619834L265.7584765625,138.48176036712658L265.976609375,138.6507939941712L266.04932031249996,138.8228098544495L266.1947421875,139.01790685612062L266.6310078125,138.87066961644948L267.3581171875,139.0909233534268L267.86709375000004,139.28302672934126L268.0852265625,139.22338187927954L268.1579375,139.23471660086486L268.594203125,139.10819823902233L268.6669140625,139.15079992485872L268.739625,139.26417695732613L268.8123359375,139.542780943225L268.885046875,139.2725384046496L268.9577578125,139.07964083301192" style="fill: none;" fill="none"></path></g></g></g></g><g opacity="0.2"><g><g><g><path stroke="rgb(255, 112, 67)" stroke-width="2px" d="M36.7190234375,7.875846405029307L37.1552890625,12.410256042480455L37.446132812500004,14.868016204833992L37.664265625,18.07173889160157L38.10053125,20.01364517211914L38.973062500000005,18.45580696105958L39.263906250000005,20.836999282836928L39.409328125,21.09569595336913L39.554750000000006,20.494280548095702L39.627460937500004,22.17929969787599L39.7728828125,20.64660598754884L40.209148437500005,24.134912567138684L40.281859375,19.753976211547865L40.3545703125,21.856364364624028L40.42728125000001,19.658016586303717L41.0816796875,23.68859092712401L41.299812499999994,21.83693206787109L41.5179453125,23.16651168823242L41.590656249999995,24.921279144287098L41.66336718749999,21.113386230468763L41.736078125,23.77538131713868L42.0996328125,26.3584588623047L42.6813203125,27.464978942871085L43.190296875,25.69244018554687L43.771984374999995,26.31697448730469L43.9901171875,27.729873962402337L44.062828124999996,28.382496643066418L44.5718046875,28.3850759124756L44.935359375,27.14878211975099L45.517046875,27.77373504638672L45.7351796875,30.68612182617187L45.807890625,30.179369659423827L46.4622890625,28.924467315673837L46.6077109375,33.35592224121095L46.680421875,30.057779388427747L46.7531328125,31.85528709411622L47.262109375,31.52364166259767L47.6256640625,30.928208541870106L47.771085937500004,34.69156517028807L47.843796875,30.214952774047845L48.134640625,31.278503036499018L48.4981953125,33.05181152343749L48.57090625,33.08862350463866L48.7890390625,34.69830368041991L49.22530468750001,36.28371711730958L49.298015625000005,35.08284439086913L49.4434375,36.176724700927736L49.661570312500004,35.72702705383301L49.8069921875,34.74062530517577L49.879703125000006,35.48456222534179L50.025124999999996,34.990179748535155L50.170546875,35.46171340942382L50.2432578125,34.687027816772456L50.75223437499999,35.62651657104493L51.333921874999994,38.57817306518555L51.4066328125,38.73549499511719L51.47934375,35.65166107177734L51.7701875,36.005277557373034L52.497296874999996,38.47154525756835L52.570007812499995,39.356653289794934L52.7154296875,40.00911392211913L53.0062734375,36.157089843749986L53.22440625,39.43119552612305L53.2971171875,39.770254669189455L53.369828125,39.776993179321295L53.5879609375,40.983375549316406L54.4604921875,41.946509857177745L54.8967578125,40.09980697631835L55.114890625,40.37539718627929L55.2603125,42.21194503784179L55.3330234375,38.20438156127929L55.4784453125,41.757264404296876L55.7692890625,44.30679794311524L56.0601328125,43.35479770660402L56.205554687500005,43.91658554077148L56.569109375000004,44.219933280944815L57.5870625,42.5996591949463L57.9506171875,44.647315521240245L58.023328125000006,44.95318851470947L58.31417187500001,44.309093627929684L58.386882812500005,48.61313804626465L58.677726562500006,47.69717330932616L58.750437500000004,44.42805736541749L58.895859375,44.67609260559081L59.113992187499996,46.94502593994142L59.477546874999994,47.33018108367921L59.55025781249999,47.99408638000489L59.62296875,46.70947517395018L59.9865234375,47.42622848510743L60.059234374999996,47.84972831726074L60.131945312499994,47.38593246459962L60.350078124999996,47.55014820098876L61.004476562499995,49.72874633789061L61.1498984375,49.449780120849596L61.586164062499996,51.46030036926268L62.531406249999996,50.69201568603516L62.7495390625,51.60432758331298L63.0403828125,51.718618927001955L63.3312265625,50.666749649047844L63.4766484375,50.89566993713379L63.7674921875,51.42270515441895L63.840203125,54.61589469909667L63.9129140625,52.31968322753906L64.0583359375,53.28384384155274L64.421890625,53.928377609252934L64.7854453125,53.588292160034186L64.85815625000001,54.06557853698732L66.02153125,54.36636726379393L66.5305078125,56.787700309753404L66.96677343750001,57.28917915344239L67.039484375,56.28437141418458L67.18490625,56.43209873199464L67.621171875,55.023871650695796L68.2755703125,59.04903762817382L68.42099218749999,58.81580955505372L68.493703125,57.45263866424561L68.7118359375,57.31397254943849L69.1481015625,57.82510677337646L69.7297890625,57.527045860290514L69.8025,60.818159866333005L70.0206328125,59.774129676818845L70.09334375,57.91943916320801L70.7477421875,59.33749717712402L70.820453125,59.41719120025634L71.6202734375,61.89243907928467L71.83840625,62.27843147277832L71.9111171875,61.21779808044434L72.0565390625,61.441046676635736L72.2019609375,60.4400740814209L73.2199140625,62.230856781005855L73.58346875,60.377955551147465L73.728890625,63.70160751342773L73.9470234375,66.70132484436034L74.456,62.69836624145509L74.5287109375,62.94502407073975L74.9649765625,64.4762931060791L75.1103984375,64.27550170898438L75.183109375,64.79901237487793L75.32853125,65.58911956787108L75.40124218749999,65.06683101654052L75.619375,64.40094062805176L75.764796875,65.54675743103027L76.1283515625,65.18814445495606L76.2010625,66.4199751663208L76.8554609375,67.86911270141601L77.0008828125,66.95027160644531L77.2917265625,69.00145248413087L77.36443750000001,67.71524105072022L77.72799218749999,64.98073608398438L78.0188359375,68.83257785797119L78.091546875,66.48681335449218L78.3096796875,69.24973079681396L78.45510156249999,68.1964503479004L78.6005234375,68.42225120544434L78.673234375,67.85320495605468L78.7459453125,67.71415397644043L78.81865625,68.57954612731933L78.964078125,68.47114929199219L79.03678906249999,66.68288509368895L79.40034375,69.16944259643554L79.4730546875,69.03482769012452L79.98203125,69.81145111083984L80.127453125,65.67457305908204L80.56371875,70.26178344726563L80.709140625,70.12582489013671L81.0726953125,70.78300518035888L81.43625,71.73710529327391L81.58167187500001,69.59571075439453L82.45420312499999,71.11236167907715L82.9631796875,73.43899772644043L83.035890625,72.88080871582031L83.18131249999999,70.94800415039062L83.2540234375,72.01809036254883L83.32673437499999,72.2232975769043L83.3994453125,73.6405453491211L83.5448671875,74.1336449432373L83.76299999999999,72.18598594665526L84.05384375,73.25243282318115L84.4173984375,73.57521286010741L84.63553125,71.96597831726073L84.926375,73.5448152923584L85.14450781250001,73.82698871612548L85.21721875,75.13057983398437L85.362640625,75.13792602539061L85.4353515625,76.97858585357665L85.5807734375,73.60347679138184L85.65348437499999,72.85570472717285L85.72619531250001,72.92281974792479L85.944328125,74.7709608078003L86.0170390625,72.89913368225098L86.23517187499999,75.7424541091919L86.38059375,76.50515487670899L86.45330468750001,76.01056983947754L86.96228124999999,76.93041023254395L87.1804140625,75.5115284729004L87.4712578125,74.88001258850099L87.689390625,78.84241859436034L87.8348125,77.50958450317384L87.980234375,77.26142772674561L88.271078125,75.96099655151366L88.561921875,76.05665908813478L88.78005468750001,78.33504524230956L88.852765625,76.72294784545899L88.92547656250001,75.98839622497559L88.9981875,76.303256149292L89.434453125,76.91113998413086L89.87071875,77.0610887145996L90.016140625,77.24854488372803L90.08885156250001,79.37732666015624L90.3796953125,79.55223083496094L90.597828125,80.40839973449707L90.67053906250001,78.90157974243164L90.888671875,80.79721446990966L90.96138281249999,79.51988868713379L91.03409375,79.86630077362061L91.179515625,81.91983810424804L91.3249375,82.83071182250977L91.761203125,80.04314277648926L91.9793359375,79.80183254241945L92.052046875,79.40429420471192L92.27017968749999,80.12777252197266L92.342890625,79.62165504455567L92.41560156249999,77.45397491455078L92.5610234375,82.4092038345337L92.633734375,81.14770477294921L93.07000000000001,82.16168849945068L93.36084375,80.3728233718872L93.43355468749999,81.39601684570313L93.57897656249999,82.7609230041504L93.7243984375,83.49696006774901L93.8698203125,81.57089401245118L93.94253125,80.19157905578614L94.0152421875,79.91238327026367L94.087953125,83.80124633789062L94.16066406249999,79.4083116531372L94.378796875,81.81091461181641L94.669640625,80.3603524017334L94.8877734375,82.41697540283202L95.0331953125,81.70808143615723L95.10590625,83.15274238586426L95.1786171875,85.13601150512694L95.6148828125,84.01956596374511L95.68759375,84.34955039978027L95.833015625,84.05347457885742L96.05114843749999,82.90741470336914L96.3419921875,84.66919075012208L96.560125,84.31301525115967L96.7782578125,83.14682762145995L96.85096875,85.0397142791748L96.996390625,85.22474647521973L97.1418125,83.94491569519042L97.28723437500001,83.48349655151367L97.6507890625,83.19557716369629L97.86892187500001,84.08107681274414L98.01434375000001,84.6281587600708L99.3958515625,87.67173042297362L99.5412734375,86.74657619476318L99.613984375,86.79474506378175L99.90482812500001,85.82332603454589L100.05024999999999,87.07588542938231L100.34109375,85.49439491271971L100.486515625,85.16149360656739L100.63193749999999,88.37799110412597L100.8500703125,87.3700774383545L100.9954921875,87.59969318389892L101.068203125,87.39064407348633L101.213625,85.07092208862305L101.50446874999999,87.38455375671387L101.7953125,87.09072635650635L102.3042890625,88.21827896118165L102.377,89.85211784362792L102.4497109375,89.12231288909912L102.52242187499999,88.53583969116211L102.66784374999999,88.05180130004884L102.8859765625,88.73372097015381L102.9586875,87.84951095581054L103.0313984375,88.39473609924316L103.24953124999999,90.23911628723144L103.32224218750001,90.21627422332763L103.394953125,87.625033493042L103.4676640625,89.17472202301025L104.04935156250001,90.79874347686767L104.1220625,89.62332584381103L104.3401953125,87.45442359924316L104.849171875,89.20505882263184L105.0673046875,88.64396644592286L105.6489921875,91.16935478210449L105.72170312499999,90.79399681091309L105.867125,89.22571998596192L105.9398359375,90.54949287414551L106.012546875,90.48570659637451L106.2306796875,90.26463214874268L106.30339062499999,90.77514518737793L106.4488125,90.63611446380615L106.594234375,90.86373161315917L106.95778906250001,91.72450538635253L107.0305,92.1908062362671L107.32134375,93.69129959106445L107.3940546875,92.96379707336426L107.466765625,92.07015449523925L107.53947656250001,91.1049068069458L107.757609375,90.61065937042237L107.8303203125,92.16069900512696L107.90303125,92.43560050964355L108.12116406250001,92.38383956909179L108.193875,94.21331806182862L108.7755625,90.64753887176514L109.06640625,93.40174621582031L109.211828125,92.2094620513916L109.35725,93.3288109588623L109.4299609375,94.06845359802246L109.64809375,93.35564346313477L109.9389375,93.7798184967041L110.01164843749999,92.99185844421386L110.084359375,93.1361827468872L110.3024921875,94.05128997802734L110.8841796875,92.82448276519776L111.02960156249999,94.99701759338379L111.3204453125,95.56270809173584L111.39315625,94.02690170288086L111.61128906249999,94.21634971618653L111.75671093749999,94.30168167114257L111.9021328125,95.87209213256835L112.2656875,96.2793871307373L112.7746640625,93.32584007263183L112.847375,95.32542881011963L113.0655078125,96.97164413452148L113.2109296875,95.37822956085205L113.6471953125,96.24910434722901L113.71990625000001,96.85564453125L113.865328125,96.49592422485351L114.01075,96.27671333312988L114.30159375000001,96.2773547744751L114.5924375,95.32505744934082L114.737859375,95.90421821594238L115.1014140625,96.73258232116699L115.174125,96.71851787567138L115.2468359375,95.59363231658935L115.7558125,98.47197544097901L115.8285234375,93.97930000305176L116.2647890625,99.38308547973632L116.5556328125,97.64639316558838L116.62834375000001,98.48911880493164L116.7010546875,97.47637069702148L117.35545312500001,97.76231174468994L117.50087500000001,96.94681022644043L117.7190078125,97.9644873046875L118.1552734375,98.1566226196289L118.22798437499999,98.5106307220459L118.518828125,99.10819410324096L118.7369609375,98.34714082717896L118.8823828125,98.92243606567382L119.9003359375,100.09746883392334L120.11846874999999,100.35776573181153L120.33660156250001,100.06902935028076L120.4093125,101.5508702659607L120.4820234375,100.22533847808837L120.70015624999999,99.57728015899659L120.7728671875,101.28688676834106L120.84557812499999,99.62081714630126L122.154375,99.57045387268066L122.299796875,102.62214483261108L122.3725078125,102.12655712127686L122.5179296875,101.39860897064209L122.59064062499999,101.66340946197509L123.02690625,100.7856273651123L123.0996171875,103.23564971923828L123.2450390625,102.02059776306152L123.39046093750001,103.08628841400146L123.5358828125,99.18843841552734L123.6813046875,100.70328317642212L123.89943749999999,101.80685600280762L124.044859375,101.19926925659179L124.19028125,102.18300395965576L124.335703125,103.28272138595581L124.48112499999999,102.59524480819702L124.626546875,103.41376785278321L125.35365625,103.15578351974487L125.6445,101.97322225570679L125.93534375,102.3406499862671L126.0080546875,105.38918437957764L126.080765625,101.14046596527099L126.2261875,104.36534946441651L126.44432031250001,104.22379348754883L126.662453125,101.71832359313964L126.807875,103.22926568984985L127.02600781250001,105.19374732971191L127.46227343749999,103.86958620071411L127.6076953125,104.92610424041749L127.7531171875,102.48276300430298L127.825828125,102.9735399055481L128.0439609375,104.5735849571228L128.116671875,105.66397109985351L128.18938281249999,104.34753765106201L128.407515625,104.89012275695801L128.989203125,105.82242736816406L129.3527578125,105.92463598251342L129.4981796875,104.54934522628784L129.9344453125,105.6892067527771L130.2252890625,105.7032036781311L130.298,106.35231868743897L130.3707109375,105.22939458847046L130.443421875,107.2449214553833L130.87968750000002,104.84508682250977L131.0978203125,106.98793304443359L131.60679687500001,106.37825317382813L131.75221875,105.1340662765503L131.97035156249999,104.82186664581299L132.0430625,106.12019119262695L132.2611953125,108.20790046691894L132.69746093749998,106.38603487014771L132.8428828125,105.83857818603515L133.061015625,108.32018983840942L133.2791484375,108.01313524246216L133.351859375,106.70335590362549L133.4245703125,106.23223411560059L133.49728125000001,107.64732799530029L133.5699921875,106.79237445831299L134.0062578125,107.67824209213256L134.4425234375,107.26622406005859L134.8787890625,106.25575475692749L135.3150546875,106.34448635101319L135.678609375,106.92172279357911L135.969453125,109.65194023132324L136.4784296875,106.29997032165528L136.6238515625,108.50401679992676L136.84198437499998,109.13016145706177L136.98740625,109.42763832092285L137.0601171875,110.42538345336914L137.27824999999999,108.70081775665284L137.3509609375,110.32564270019532L137.4963828125,107.78519737243653L137.56909374999998,108.42218914031983L137.7872265625,108.94451820373536L139.0233125,110.44638896942139L139.0960234375,109.3785039138794L139.16873437499999,109.42039003372193L139.5322890625,107.84960821151734L139.750421875,108.79202058792114L140.041265625,111.06326648712158L140.1139765625,109.1236828994751L140.1866875,110.52417217254639L140.47753125,109.73606357574462L140.5502421875,109.47484502792358L140.622953125,111.273446559906L140.768375,109.97755611419677L140.913796875,110.78881061553955L141.05921874999999,110.45249279022217L141.204640625,111.80757139205933L141.78632812499998,108.47133029937744L142.1498828125,111.49287014007568L142.22259375,111.06930953979492L142.8769921875,111.72762416839599L142.94970312499998,112.65719421386719L143.74952343750002,112.90192771911622L144.3312109375,111.77643110275268L144.403921875,112.93166021347047L144.6220546875,112.87895736694335L144.7674765625,110.84686780929566L144.8401875,112.41897640228271L145.421875,113.10934284210205L145.4945859375,112.07242589950562L145.56729687499998,111.13181968688964L145.64000781250002,111.80635265350342L145.85814062499998,112.37626991271972L146.0035625,113.22489681243897L146.0762734375,111.65041151046753L146.148984375,112.75009517669677L146.73067187499998,111.10275226593018L147.0942265625,113.70654499053956L147.1669375,113.45000221252442L147.3850703125,113.221568069458L147.894046875,113.15987829208375L148.03946875,113.79361896514894L148.766578125,112.59001842498779L149.13013281250002,113.09492053985596L149.20284375,111.71825912475586L149.34826562499998,113.68253145217895L149.42097656250002,113.15547260284424L149.8572421875,115.15161781311036L150.36621875,115.35495471954346L150.4389296875,114.56625869750977L151.093328125,116.42109775543213L151.384171875,113.41889568328857L151.52959375,115.57365583419801L151.8204375,114.83251087188721L152.4748359375,115.22025541305543L152.62025781250003,116.39876209259033L152.838390625,113.94666687011718L152.9838125,113.66607341766357L153.0565234375,115.93805866241456L153.420078125,116.15599342346191L153.6382109375,115.42142829895019L154.001765625,115.41475730895996L154.1471875,116.21885467529296L154.583453125,115.0607255744934L154.65616406249998,116.07945259094238L154.72887500000002,116.33827079772949L155.01971875,116.44475006103517L155.3832734375,115.32529649734497L155.60140625,117.13980915069581L155.74682812499998,117.18350481033326L155.9649609375,115.98672718048095L156.18309375,115.92656673431397L156.4739375,117.67409603118897L156.9829140625,116.9087788581848L157.05562500000002,117.19681303024292L157.1283359375,115.72663959503174L157.6373125,117.08897661209107L157.782734375,114.82214990615844L157.92815625,117.17964603424073L158.1462890625,117.66195253372193L158.21900000000002,116.88685169219971L158.655265625,118.16340099334717L158.72797656249998,118.73560718536378L159.3096640625,118.77322940826417L159.527796875,115.4612854385376L159.60050781249998,117.50341861724854L159.67321875000002,118.9647840499878L159.7459296875,117.52528839111329L159.89135156249998,116.22561344146729L160.109484375,118.5075207710266L160.6184609375,118.23995532989503L160.691171875,117.05532794952393L161.05472656249998,117.45778175354003L161.20014843750002,119.10862558364869L161.272859375,115.42810604095459L161.3455703125,119.05816102981566L161.99996875000002,116.94544567108154L162.29081250000002,119.15318887710572L162.436234375,119.3054873085022L162.5089453125,118.16178050994873L162.65436718750001,117.56293424606324L163.017921875,119.30215181350708L163.0906328125,117.83588104248048L163.2360546875,118.33801483154298L163.308765625,119.69030822753906L163.38147656249998,118.77755069732666L163.599609375,119.94603401184082L163.74503124999998,118.03099061965943L163.890453125,119.60639419555665L164.54485156249999,118.80418739318847L164.762984375,119.20710371017455L165.4173828125,120.47093896865846L165.8536484375,120.30238506317139L165.926359375,120.34669853210448L166.36262499999998,118.5049786376953L166.4353359375,120.69993015289306L166.508046875,119.62857456207274L167.089734375,119.65297296524048L167.52599999999998,119.27320255279541L167.59871093750002,121.80833404541016L168.1803984375,118.9716272163391L168.253109375,121.34643550872802L168.47124218750002,120.60488204956056L168.68937499999998,121.1855012512207L168.98021874999998,121.85511875152588L169.12564062500002,121.2856369972229L169.416484375,121.60162450790406L169.85275,121.71898464202881L170.14359374999998,121.38565120697021L170.2163046875,122.34652359008788L170.4344375,118.09704219818116L170.79799218750003,120.95793811798096L171.08883593750002,121.62967237472535L171.2342578125,122.76539491653443L171.37967968750002,120.24720085144043L171.5251015625,122.30022165298462L172.034078125,121.89290977478026L172.1795,120.60785293579102L172.25221093750002,121.64304136276246L172.6884765625,122.11233673095703L172.7611875,121.8192588043213L172.83389843749998,121.96005180358887L172.9793203125,121.6439292526245L173.12474218749998,122.35856918334962L173.99727343749998,122.81786819458007L174.651671875,122.58611881256104L174.942515625,122.15588722229003L175.3060703125,122.18050844192504L175.37878125,122.16364528656007L175.74233593749997,122.68767585754395L175.815046875,123.04969860076903L175.8877578125,122.98081455230712L176.1786015625,123.83532245635986L176.25131249999998,124.30897287368775L176.68757812500002,123.7101671218872L176.978421875,123.45729406356811L177.05113281250001,123.41092460632325L177.12384375,123.22406936645507L177.269265625,123.15521570205688L177.3419765625,122.00483791351319L177.70553125,122.74323818206787L177.9236640625,123.73289440155028L178.06908593749998,124.07612966537476L178.28721875,122.9432666015625L178.5053515625,124.3215552520752L178.72348437500003,123.47584522247314L178.86890625,123.4933093070984L179.37788281250002,123.3683295249939L179.5233046875,123.59874538421631L179.6687265625,124.66354476928711L180.323125,124.26356895446777L180.39583593749998,124.84827987670899L180.46854687500002,125.2202820968628L180.54125781250002,122.82822578430176L181.55921093749998,124.42192056655884L181.8500546875,124.82580242156982L182.1408984375,125.03603313446044L182.21360937499998,124.65253898620605L182.4317421875,126.07956367492676L182.504453125,122.5784147644043L182.72258593749999,123.68737232208252L182.8680078125,124.82804409027099L183.01342968749998,124.18493162155151L183.37698437499998,124.77491586685181L183.5951171875,123.7619078063965L183.7405390625,125.85551496505737L183.958671875,124.69110311508179L184.17680468749998,125.7158394241333L184.3949375,124.88869743347169L184.54035937499998,125.9691344833374L184.7584921875,125.89720527648926L184.976625,126.2479183959961L185.0493359375,125.85180473327637L185.26746875,126.4618627166748L185.48560156250002,126.09217981338502L186.14000000000001,126.17813632965087L186.285421875,125.58807781219483L186.64897656250002,125.87189872741699L187.01253125,124.58393177032471L187.0852421875,125.13047018051148L187.15795312499998,126.43334896087646L187.30337500000002,125.70322666168212L187.3760859375,126.32539438247682L187.5215078125,125.77754608154297L187.6669296875,127.0860881137848L187.8850625,125.64460567474366L187.9577734375,124.8872389984131L188.2486171875,126.08424619674683L188.612171875,125.98700706481934L188.75759375,125.81464164733887L189.193859375,126.69535243034363L189.26657031250002,126.81262985229492L189.33928125,126.5254633140564L189.4119921875,126.71413822174071L189.48470312499998,125.87328626632691L189.7028359375,126.96582798957826L189.8482578125,127.01204552650452L190.1391015625,125.42179595947266L190.357234375,126.808185338974L190.50265625,127.50055037498474L190.64807812499998,126.83927667617797L190.72078906250002,127.75674542427063L190.7935,125.66318046569825L191.08434375000002,127.26002843856811L191.3751875,126.91763042449952L191.4478984375,127.50826792716981L191.520609375,125.72108236312866L191.81145312499999,126.95101913452149L191.8841640625,128.4333917713165L192.0295859375,127.52474115371703L192.10229687499998,127.37886726379395L192.24771875000002,125.53277544021607L192.3204296875,127.09816577911377L192.393140625,126.97291591644287L192.5385625,126.96826040267945L192.6112734375,127.74731961250305L192.75669531249997,127.78174644470215L192.974828125,127.91527765274049L193.12025,126.89910796165466L193.1929609375,127.3078191947937L193.62922656249998,126.52373817443848L193.7019375,127.2095841407776L193.7746484375,127.79008518218994L194.0654921875,127.92322139739991L194.2109140625,127.29841870307922L194.3563359375,127.18379819869995L194.6471796875,127.53272709846496L195.3742890625,128.01555687904357L195.5197109375,128.29957697868346L195.6651328125,129.20553691864012L195.73784375000002,128.434696598053L196.02868750000002,126.22655839920043L196.174109375,128.2960878753662L196.24682031249998,127.44803489685059L196.31953125,128.39012317657472L196.5376640625,127.6713510131836L196.8285078125,128.6059546852112L196.90121875000003,127.93675074577331L197.1193515625,128.65135016441346L197.337484375,129.08704582214355L198.06459375000003,128.45139432907104L198.1373046875,128.5524686050415L198.35543750000002,129.1077306175232L198.4281484375,128.45416940689086L198.57357031249998,126.32247076034545L198.791703125,128.85410977363586L198.937125,129.0468240737915L199.00983593750001,126.45239301681518L199.1552578125,127.00206773757935L199.22796875,128.66471746444702L199.3006796875,128.73725772857665L199.373390625,128.8630443763733L199.51881250000002,129.5415340232849L199.664234375,128.78494720458986L199.73694531249998,128.89922842025757L200.0277890625,128.61608270645144L200.10049999999998,127.63751160621644L200.245921875,129.2225553703308L200.4640546875,128.83868648529054L200.827609375,128.52511281967162L201.700140625,129.17620785713194L201.990984375,129.26062322616576L202.2091171875,129.62419893264772L202.572671875,129.14316856384278L202.71809374999998,129.52350952148439L202.9362265625,128.30410926818848L203.3724921875,128.08301794052124L203.445203125,129.66134682655334L203.590625,128.99846952438355L203.8087578125,130.52404154777525L204.026890625,129.20047797203063L204.0996015625,127.74197370529174L204.17231249999998,131.07350020408632L204.82671093750002,130.0645652961731L204.899421875,130.01634072303773L204.9721328125,129.2751434326172L205.04484374999998,130.05739803314208L205.190265625,130.02292056083678L205.33568749999998,130.178728351593L205.5538203125,130.5444309425354L205.917375,129.98931916236876L206.062796875,130.31469703674315L206.1355078125,130.81311046600342L206.20821875,130.52648071289065L206.28092968750002,130.86075942993165L206.8626171875,130.67536600112913L207.517015625,130.22056214332582L207.8805703125,130.60902408599856L208.4622578125,130.4984531021118L208.53496875,130.92439041137695L208.7531015625,130.67386367797852L209.0439453125,131.11284587860106L209.552921875,129.20823941230773L209.7710546875,131.10676231384278L209.98918749999999,130.94557485580444L210.0618984375,130.09579167366027L210.134609375,130.7095244407654L210.28003124999998,131.68493391036986L210.86171875,130.54564630508423L211.007140625,131.45066602706908L211.1525625,131.54922686576845L211.297984375,130.1571134662628L212.02509375,131.03726720809937L212.60678124999998,131.30729375839235L212.6794921875,131.10376441955566L212.75220312500002,131.1444284248352L213.04304687500002,132.5300733947754L213.4793125,132.72565392494204L214.061,132.29137619018553L214.497265625,131.47389464378358L214.56997656250002,131.18592292785644L214.6426875,131.96728795051575L214.7153984375,131.41939069747926L214.8608203125,131.07823167800905L215.0062421875,130.53870017051696L215.224375,131.90137310028075L215.660640625,132.17504405021668L215.8060625,133.02650848388672L216.3150390625,131.8043888568878L216.6058828125,132.68719107627868L216.75130468749998,132.14756504058838L217.0421484375,132.4562198638916L217.114859375,132.26289281845092L217.26028125,131.8722719192505L217.6238359375,131.37026304244995L217.84196875,132.92816202163698L217.98739062500002,132.45015824317932L218.2055234375,132.70607814788818L218.27823437499998,132.5389320373535L218.35094531250002,131.6308030128479L219.07805468749999,132.01751111984254L219.150765625,132.50340125083923L219.2961875,132.5521187210083L219.36889843749998,132.30784097671508L219.44160937499998,133.19541011810304L219.51432031250002,132.37913549423217L219.73245312499998,132.1030456352234L219.8051640625,132.90546175003053L219.9505859375,133.29654685020446L220.16871875,132.60893354415893L220.314140625,133.28091424942016L220.4595625,133.7864983177185L220.604984375,132.49438899993896L221.2593828125,132.70710783004762L221.5502265625,133.9377181148529L221.69564843749998,132.62791851997378L221.84107031250002,133.36766075134278L221.9864921875,133.53287747383118L222.204625,131.59829206466674L222.4227578125,131.89977962493896L222.85902343749999,133.9374092102051L222.931734375,133.26754863739012L223.22257812499998,133.6187647819519L223.4407109375,133.56796600341798L223.65884375000002,132.75418962478636L223.804265625,133.6998277759552L223.8769765625,133.6999712562561L224.16782031250003,133.83926530838013L224.45866406250002,133.86814873695374L224.67679687499998,133.7022264289856L224.7495078125,133.70368148803712L224.82221875000002,132.97141542434693L224.8949296875,133.90347865104675L225.1130625,132.1974691772461L225.40390625,133.8457269859314L225.84017187499998,133.20282382965087L225.91288281250002,134.33485301971436L226.131015625,134.36505477905274L226.4945703125,133.8937878227234L226.712703125,133.1930992412567L226.78541406250002,133.3624549484253L226.9308359375,133.79844263076782L227.07625781250002,134.3863388156891L227.2216796875,133.24218132019044L227.294390625,134.0030978679657L227.5125234375,133.93180503845215L227.585234375,134.1968688583374L227.73065625,134.70223011016844L227.9487890625,133.85475442886352L228.0215,133.38873041152954L228.16692187499999,133.70556867599487L228.60318750000002,133.65643595695497L228.82132031249998,134.11027090072633L229.039453125,133.589974193573L229.11216406249997,134.28385843276976L229.4030078125,134.54336365699768L229.8392734375,133.9488977622986L230.78451562499998,134.51101306915282L231.075359375,133.8329487991333L231.22078125000002,135.09642282485962L231.58433593750001,134.90165422439574L231.80246875,135.0514847946167L231.94789062499999,134.9514638328552L232.238734375,135.30248923301696L232.60228906249998,134.3748502635956L232.8931328125,135.12542441368103L233.1839765625,134.66209951400756L233.402109375,135.7146490573883L234.0565078125,135.27882004737853L234.4927734375,134.11610801696776L235.2198828125,135.66000838279723L235.29259375,134.73655228614808L235.36530468750001,135.38527736663818L235.5834375,135.05032344818116L235.6561484375,135.51429822921753L236.019703125,136.2175323200226L236.16512500000002,134.49425794601441L236.45596874999998,134.78091639518738L236.52867968750002,135.01318399429323L236.601390625,135.42010087966918L236.6741015625,135.2805671310425L236.74681249999998,134.99323179244996L236.8195234375,135.59474172592164L236.892234375,135.9486012840271L237.473921875,135.1589650440216L238.1283203125,136.15288516044617L239.1462734375,135.19003274917603L239.218984375,136.03079355239868L239.2916953125,136.29264510154724L239.800671875,136.11718726158142L240.1642265625,136.1059299659729L240.382359375,134.3885230922699L240.52778124999998,136.04054346084595L240.6004921875,136.15370384216308L240.67320312500001,136.19462104797364L240.7459140625,135.9845118713379L241.03675781249999,136.09649402618408L241.6184453125,135.4814598083496L241.69115624999998,136.5939064693451L241.9092890625,136.14185068130493L242.0547109375,136.73920981407167L242.127421875,136.16261650085448L242.27284375,135.33215589523314L243.145375,136.3088364315033L243.290796875,136.2896168231964L243.50892968750003,135.91994911193848L243.6543515625,135.35498445510865L244.01790624999998,136.4000426387787L244.2360390625,136.43357820510863L244.45417187500001,137.58181391716005L245.1085703125,136.14760508537293L245.18128124999998,136.20975568771362L245.61754687500002,136.47977548599243L245.76296875,137.25047063827515L245.83567968749998,136.57812026023865L246.2719453125,136.34657512664796L246.490078125,136.91675909042357L246.5627890625,137.27482177734376L246.92634375,136.37537246704102L247.071765625,137.00134832382201L247.2171875,136.23912357330323L247.4353203125,136.90066904067993L247.50803125,137.22124960899353L247.5807421875,136.73340139389038L248.08971875,137.2335973548889L248.45327343749997,137.3729319190979L248.5986953125,137.14828227996827L248.67140625,137.1115175628662L248.7441171875,136.79174723625184L249.0349609375,137.00545017242433L249.5439375,137.4119956970215L249.83478125,135.84661548614503L250.0529140625,136.75180738449097L250.12562499999999,137.0260488796234L250.27104687500002,137.78612142562866L250.78002343749998,137.05147527694703L250.852734375,136.5003691291809L251.2162890625,137.45213810920717L252.08882031250002,137.33697744369508L252.452375,136.89972038269042L252.59779687500003,138.46879732131958L252.6705078125,137.4376533508301L252.88864062500002,137.6906833934784L252.9613515625,138.03467994689942L253.61575,136.2478286075592L254.05201562500002,138.22054264068603L254.34285937500002,136.73381157875062L254.70641406250002,137.7612706375122L254.8518359375,137.95799057006838L254.9972578125,138.1824967288971L255.1426796875,137.2854190635681L255.2881015625,138.0909613609314L255.506234375,137.4019622039795L255.5789453125,138.2144962120056L255.65165625,139.04089210510253L255.86978906250002,137.5927825641632L255.9425,137.59409414291383L256.0152109375,137.84792936325073L256.087921875,137.04511825561525L256.30605468749997,137.9055510520935L256.37876562499997,137.58435605049132L256.45147656250003,137.53505453109742L256.669609375,138.09136479377747L256.7423203125,138.3799897670746L256.8877421875,138.63872019767763L256.96045312499996,137.89825043678283L257.251296875,138.5010753250122L257.39671875,136.98157842636107L257.4694296875,138.72183411598206L257.542140625,138.4909304237366L257.83298437499997,137.78604884147643L257.97840625,138.00580327033998L258.123828125,138.1930484390259L258.3419609375,138.06589450836182L258.996359375,138.5107543373108L259.2144921875,137.98703773498534L259.3599140625,138.05741060256958L259.5053359375,138.83830129623414L259.6507578125,138.0821128463745L259.7961796875,137.7588500404358L260.0143125,138.38021764755248L260.450578125,138.31302329063416L260.741421875,137.81255893707277L260.88684375,138.51343826293945L261.10497656250004,138.7635615634918L261.3958203125,139.09193564414977L261.68666406250003,138.93485509872437L261.9775078125,138.68587626457213L262.2683515625,138.97332807540894L262.7046171875,139.36498203277588L262.92275,138.81312809944154L263.21359375000003,138.61335119247437L263.359015625,138.53897775650023L263.649859375,139.32158346176146L263.7225703125,139.62288365364074L264.231546875,139.05750374794007L264.4496796875,139.13945631980897L264.522390625,139.2842397594452L264.8859453125,138.83896468162536L264.95865625,139.41567615509032L265.0313671875,139.1558451461792L265.1767890625,138.95322732925416L265.39492187499997,137.59470688819886L265.7584765625,138.46570827484132L265.976609375,138.90434443473816L266.04932031249996,139.08083364486694L266.1947421875,139.31055235862732L266.6310078125,138.64981375694276L267.3581171875,139.42130395889282L267.86709375000004,139.5711817932129L268.0852265625,139.133914604187L268.1579375,139.2517186832428L268.594203125,138.91842069625855L268.6669140625,139.21470245361328L268.739625,139.43424250602723L268.8123359375,139.96068692207336L268.885046875,138.8671745967865L268.9577578125,138.7902944755554" style="fill: none;" fill="none"></path></g></g></g></g></g></g><g transform="translate(39, 177)" clip-path="url(#clip_1)"><clipPath id="clip_1"><rect width="290" height="23"></rect></clipPath><g><g><line x1="0" y1="0" x2="0" y2="5" style="visibility: inherit;" fill="rgb(0, 0, 0)" stroke="rgb(204, 204, 204)" stroke-width="1px"></line><line x1="36.35546875" y1="0" x2="36.35546875" y2="5" style="visibility: inherit;" fill="rgb(0, 0, 0)" stroke="rgb(204, 204, 204)" stroke-width="1px"></line><line x1="72.7109375" y1="0" x2="72.7109375" y2="5" style="visibility: inherit;" fill="rgb(0, 0, 0)" stroke="rgb(204, 204, 204)" stroke-width="1px"></line><line x1="109.06640625" y1="0" x2="109.06640625" y2="5" style="visibility: inherit;" fill="rgb(0, 0, 0)" stroke="rgb(204, 204, 204)" stroke-width="1px"></line><line x1="145.421875" y1="0" x2="145.421875" y2="5" style="visibility: inherit;" fill="rgb(0, 0, 0)" stroke="rgb(204, 204, 204)" stroke-width="1px"></line><line x1="181.77734375" y1="0" x2="181.77734375" y2="5" style="visibility: inherit;" fill="rgb(0, 0, 0)" stroke="rgb(204, 204, 204)" stroke-width="1px"></line><line x1="218.1328125" y1="0" x2="218.1328125" y2="5" style="visibility: inherit;" fill="rgb(0, 0, 0)" stroke="rgb(204, 204, 204)" stroke-width="1px"></line><line x1="254.48828125" y1="0" x2="254.48828125" y2="5" style="visibility: inherit;" fill="rgb(0, 0, 0)" stroke="rgb(204, 204, 204)" stroke-width="1px"></line><line x1="290.84375" y1="0" x2="290.84375" y2="5" style="visibility: inherit;" fill="rgb(0, 0, 0)" stroke="rgb(204, 204, 204)" stroke-width="1px"></line></g><g transform="translate(0, 8)"><text x="0" y="0" dx="0em" dy="0.95em" style="text-anchor: middle; visibility: hidden; font-family: &quot;Helvetica Neue&quot;, sans-serif; font-size: 12px; font-weight: 200;" fill="rgb(50, 49, 63)" stroke="none" stroke-width="1px">-500</text><text x="36.35546875" y="0" dx="0em" dy="0.95em" style="text-anchor: middle; visibility: inherit; font-family: &quot;Helvetica Neue&quot;, sans-serif; font-size: 12px; font-weight: 200;" fill="rgb(50, 49, 63)" stroke="none" stroke-width="1px">0</text><text x="72.7109375" y="0" dx="0em" dy="0.95em" style="text-anchor: middle; visibility: inherit; font-family: &quot;Helvetica Neue&quot;, sans-serif; font-size: 12px; font-weight: 200;" fill="rgb(50, 49, 63)" stroke="none" stroke-width="1px">500</text><text x="109.06640625" y="0" dx="0em" dy="0.95em" style="text-anchor: middle; visibility: inherit; font-family: &quot;Helvetica Neue&quot;, sans-serif; font-size: 12px; font-weight: 200;" fill="rgb(50, 49, 63)" stroke="none" stroke-width="1px">1k</text><text x="145.421875" y="0" dx="0em" dy="0.95em" style="text-anchor: middle; visibility: inherit; font-family: &quot;Helvetica Neue&quot;, sans-serif; font-size: 12px; font-weight: 200;" fill="rgb(50, 49, 63)" stroke="none" stroke-width="1px">1.5k</text><text x="181.77734375" y="0" dx="0em" dy="0.95em" style="text-anchor: middle; visibility: inherit; font-family: &quot;Helvetica Neue&quot;, sans-serif; font-size: 12px; font-weight: 200;" fill="rgb(50, 49, 63)" stroke="none" stroke-width="1px">2k</text><text x="218.1328125" y="0" dx="0em" dy="0.95em" style="text-anchor: middle; visibility: inherit; font-family: &quot;Helvetica Neue&quot;, sans-serif; font-size: 12px; font-weight: 200;" fill="rgb(50, 49, 63)" stroke="none" stroke-width="1px">2.5k</text><text x="254.48828125" y="0" dx="0em" dy="0.95em" style="text-anchor: middle; visibility: inherit; font-family: &quot;Helvetica Neue&quot;, sans-serif; font-size: 12px; font-weight: 200;" fill="rgb(50, 49, 63)" stroke="none" stroke-width="1px">3k</text><text x="290.84375" y="0" dx="0em" dy="0.95em" style="text-anchor: middle; visibility: hidden; font-family: &quot;Helvetica Neue&quot;, sans-serif; font-size: 12px; font-weight: 200;" fill="rgb(50, 49, 63)" stroke="none" stroke-width="1px">3.5k</text></g><line x1="0" y1="0" x2="290.84375" y2="0" fill="rgb(0, 0, 0)" stroke="rgb(204, 204, 204)" stroke-width="1px"></line></g></g></g></g></svg>