<svg viewBox="0 0 330 200" xmlns="http://www.w3.org/2000/svg"><g><g><g><g><g><line x1="39.15625" y1="177" x2="34.15625" y2="177" style="visibility: inherit;" fill="rgb(0, 0, 0)" stroke="rgb(204, 204, 204)" stroke-width="1px"></line><line x1="39.15625" y1="154.875" x2="34.15625" y2="154.875" style="visibility: inherit;" fill="rgb(0, 0, 0)" stroke="rgb(204, 204, 204)" stroke-width="1px"></line><line x1="39.15625" y1="132.75" x2="34.15625" y2="132.75" style="visibility: inherit;" fill="rgb(0, 0, 0)" stroke="rgb(204, 204, 204)" stroke-width="1px"></line><line x1="39.15625" y1="110.625" x2="34.15625" y2="110.625" style="visibility: inherit;" fill="rgb(0, 0, 0)" stroke="rgb(204, 204, 204)" stroke-width="1px"></line><line x1="39.15625" y1="88.5" x2="34.15625" y2="88.5" style="visibility: inherit;" fill="rgb(0, 0, 0)" stroke="rgb(204, 204, 204)" stroke-width="1px"></line><line x1="39.15625" y1="66.375" x2="34.15625" y2="66.375" style="visibility: inherit;" fill="rgb(0, 0, 0)" stroke="rgb(204, 204, 204)" stroke-width="1px"></line><line x1="39.15625" y1="44.25" x2="34.15625" y2="44.25" style="visibility: inherit;" fill="rgb(0, 0, 0)" stroke="rgb(204, 204, 204)" stroke-width="1px"></line><line x1="39.15625" y1="22.125" x2="34.15625" y2="22.125" style="visibility: inherit;" fill="rgb(0, 0, 0)" stroke="rgb(204, 204, 204)" stroke-width="1px"></line><line x1="39.15625" y1="0" x2="34.15625" y2="0" style="visibility: inherit;" fill="rgb(0, 0, 0)" stroke="rgb(204, 204, 204)" stroke-width="1px"></line></g><g transform="translate(29.15625, 0)"><text x="0" y="177" dx="0em" dy="0.3em" style="text-anchor: end; visibility: hidden; font-family: &quot;Helvetica Neue&quot;, sans-serif; font-size: 12px; font-weight: 200;" fill="rgb(50, 49, 63)" stroke="none" stroke-width="1px">-10</text><text x="0" y="154.875" dx="0em" dy="0.3em" style="text-anchor: end; visibility: inherit; font-family: &quot;Helvetica Neue&quot;, sans-serif; font-size: 12px; font-weight: 200;" fill="rgb(50, 49, 63)" stroke="none" stroke-width="1px">0</text><text x="0" y="132.75" dx="0em" dy="0.3em" style="text-anchor: end; visibility: hidden; font-family: &quot;Helvetica Neue&quot;, sans-serif; font-size: 12px; font-weight: 200;" fill="rgb(50, 49, 63)" stroke="none" stroke-width="1px">10</text><text x="0" y="110.625" dx="0em" dy="0.3em" style="text-anchor: end; visibility: inherit; font-family: &quot;Helvetica Neue&quot;, sans-serif; font-size: 12px; font-weight: 200;" fill="rgb(50, 49, 63)" stroke="none" stroke-width="1px">20</text><text x="0" y="88.5" dx="0em" dy="0.3em" style="text-anchor: end; visibility: hidden; font-family: &quot;Helvetica Neue&quot;, sans-serif; font-size: 12px; font-weight: 200;" fill="rgb(50, 49, 63)" stroke="none" stroke-width="1px">30</text><text x="0" y="66.375" dx="0em" dy="0.3em" style="text-anchor: end; visibility: inherit; font-family: &quot;Helvetica Neue&quot;, sans-serif; font-size: 12px; font-weight: 200;" fill="rgb(50, 49, 63)" stroke="none" stroke-width="1px">40</text><text x="0" y="44.25" dx="0em" dy="0.3em" style="text-anchor: end; visibility: hidden; font-family: &quot;Helvetica Neue&quot;, sans-serif; font-size: 12px; font-weight: 200;" fill="rgb(50, 49, 63)" stroke="none" stroke-width="1px">50</text><text x="0" y="22.125" dx="0em" dy="0.3em" style="text-anchor: end; visibility: inherit; font-family: &quot;Helvetica Neue&quot;, sans-serif; font-size: 12px; font-weight: 200;" fill="rgb(50, 49, 63)" stroke="none" stroke-width="1px">60</text><text x="0" y="0" dx="0em" dy="0.3em" style="text-anchor: end; visibility: hidden; font-family: &quot;Helvetica Neue&quot;, sans-serif; font-size: 12px; font-weight: 200;" fill="rgb(50, 49, 63)" stroke="none" stroke-width="1px">70</text></g><line x1="39.15625" y1="0" x2="39.15625" y2="177" fill="rgb(0, 0, 0)" stroke="rgb(204, 204, 204)" stroke-width="1px"></line></g></g><g transform="translate(39, 0)" clip-path="url(#clip_0)"><clipPath id="clip_0"><rect width="290" height="177"></rect></clipPath><g><g><g><line x1="0" y1="0" x2="0" y2="177" fill="rgb(0, 0, 0)" stroke="rgb(60, 60, 60)" stroke-width="1px" opacity="0.25"></line><line x1="36.35546875" y1="0" x2="36.35546875" y2="177" fill="rgb(0, 0, 0)" stroke="rgb(60, 60, 60)" stroke-width="1px" opacity="0.25"></line><line x1="72.7109375" y1="0" x2="72.7109375" y2="177" fill="rgb(0, 0, 0)" stroke="rgb(60, 60, 60)" stroke-width="1px" opacity="0.25"></line><line x1="109.06640625" y1="0" x2="109.06640625" y2="177" fill="rgb(0, 0, 0)" stroke="rgb(60, 60, 60)" stroke-width="1px" opacity="0.25"></line><line x1="145.421875" y1="0" x2="145.421875" y2="177" fill="rgb(0, 0, 0)" stroke="rgb(60, 60, 60)" stroke-width="1px" opacity="0.25"></line><line x1="181.77734375" y1="0" x2="181.77734375" y2="177" fill="rgb(0, 0, 0)" stroke="rgb(60, 60, 60)" stroke-width="1px" opacity="0.25"></line><line x1="218.1328125" y1="0" x2="218.1328125" y2="177" fill="rgb(0, 0, 0)" stroke="rgb(60, 60, 60)" stroke-width="1px" opacity="0.25"></line><line x1="254.48828125" y1="0" x2="254.48828125" y2="177" fill="rgb(0, 0, 0)" stroke="rgb(60, 60, 60)" stroke-width="1px" opacity="0.25"></line><line x1="290.84375" y1="0" x2="290.84375" y2="177" fill="rgb(0, 0, 0)" stroke="rgb(60, 60, 60)" stroke-width="1px" opacity="0.25"></line></g><g><line x1="0" y1="177" x2="290.84375" y2="177" fill="rgb(0, 0, 0)" stroke="rgb(60, 60, 60)" stroke-width="1px" opacity="0.25"></line><line x1="0" y1="154.875" x2="290.84375" y2="154.875" fill="rgb(0, 0, 0)" stroke="rgb(60, 60, 60)" stroke-width="1px" opacity="0.25"></line><line x1="0" y1="132.75" x2="290.84375" y2="132.75" fill="rgb(0, 0, 0)" stroke="rgb(60, 60, 60)" stroke-width="1px" opacity="0.25"></line><line x1="0" y1="110.625" x2="290.84375" y2="110.625" fill="rgb(0, 0, 0)" stroke="rgb(60, 60, 60)" stroke-width="1px" opacity="0.25"></line><line x1="0" y1="88.5" x2="290.84375" y2="88.5" fill="rgb(0, 0, 0)" stroke="rgb(60, 60, 60)" stroke-width="1px" opacity="0.25"></line><line x1="0" y1="66.375" x2="290.84375" y2="66.375" fill="rgb(0, 0, 0)" stroke="rgb(60, 60, 60)" stroke-width="1px" opacity="0.25"></line><line x1="0" y1="44.25" x2="290.84375" y2="44.25" fill="rgb(0, 0, 0)" stroke="rgb(60, 60, 60)" stroke-width="1px" opacity="0.25"></line><line x1="0" y1="22.125" x2="290.84375" y2="22.125" fill="rgb(0, 0, 0)" stroke="rgb(60, 60, 60)" stroke-width="1px" opacity="0.25"></line><line x1="0" y1="0" x2="290.84375" y2="0" fill="rgb(0, 0, 0)" stroke="rgb(60, 60, 60)" stroke-width="1px" opacity="0.25"></line></g></g></g><g><g><line x1="0" y1="154.875" x2="290.84375" y2="154.875" fill="rgb(0, 0, 0)" stroke="rgb(153, 153, 153)" stroke-width="1.5px"></line></g></g><g><g><line x1="36.35546875" y1="0" x2="36.35546875" y2="177" fill="rgb(0, 0, 0)" stroke="rgb(153, 153, 153)" stroke-width="1.5px"></line></g></g><g><g><g><g><g><path stroke="rgb(255, 112, 67)" stroke-width="2px" d="M46.7531328125,-20.776544141946516L47.262109375,2.2504666321918307L47.6256640625,0.4989320113855058L47.771085937500004,-1.5490992022725436L48.4981953125,-8.276487074605086L48.57090625,4.0035610172970735L48.7890390625,14.947912330963192L49.22530468750001,23.653979828987275L49.298015625000005,24.303458206118194L49.4434375,35.231253429023695L49.661570312500004,33.46493539553984L49.8069921875,34.32782449569734L49.879703125000006,30.254188326841017L50.025124999999996,32.07655035725847L50.170546875,35.96485580488155L50.2432578125,35.804370884204246L50.75223437499999,33.83877468353566L51.333921874999994,45.00926611094022L51.4066328125,49.515826218537256L51.47934375,45.25116714072831L51.7701875,33.202273999645286L52.497296874999996,33.56974403082967L52.570007812499995,39.99167759907064L52.7154296875,43.716113966058714L53.0062734375,42.38290347179827L53.22440625,42.5822550149027L53.2971171875,40.82895511694332L53.369828125,45.067931122229L53.5879609375,45.140619703916L54.4604921875,46.30152914809423L54.8967578125,50.079113404078726L55.114890625,54.165679502560764L55.2603125,58.215766897245686L55.3330234375,56.39690511133935L55.4784453125,57.624621319214484L55.7692890625,48.96394965615272L56.0601328125,51.693047375478756L56.205554687500005,59.394415652154905L56.569109375000004,61.757579147457506L57.5870625,63.662999675058984L57.9506171875,65.45119763218382L58.023328125000006,60.79743610860717L58.31417187500001,51.27536228085644L58.386882812500005,56.2056386255329L58.677726562500006,57.1919529690209L58.750437500000004,43.906279607645445L58.895859375,28.923968951721065L59.113992187499996,33.40857791949455L59.477546874999994,44.830858955676234L59.55025781249999,44.448289810356414L59.62296875,56.85075401469287L59.9865234375,53.54383961203227L60.059234374999996,59.39894483472423L60.131945312499994,59.38515751591633L60.350078124999996,59.74563962597436L61.004476562499995,67.68669222819082L61.1498984375,63.69572032348675L61.586164062499996,59.54551559481837L62.531406249999996,62.30143430348524L62.7495390625,60.44638239453012L63.0403828125,61.451761931835264L63.3312265625,65.67141232649007L63.4766484375,69.16957446193409L63.7674921875,64.3784059015257L63.840203125,69.88726887508288L63.9129140625,75.86364126088651L64.0583359375,74.94307422567864L64.421890625,77.05433269458685L64.7854453125,72.74997388433025L64.85815625000001,78.0277969068921L66.02153125,83.19029157797314L66.5305078125,63.822152642248966L66.96677343750001,70.75504459133083L67.039484375,74.96148681873281L67.18490625,75.45803627153752L67.621171875,74.92810148704362L68.2755703125,77.9682008427877L68.42099218749999,82.20260122314089L68.493703125,80.95815008935328L68.7118359375,81.86097283635733L69.1481015625,77.85614373370528L69.7297890625,76.33298307707621L69.8025,66.97562207967468L70.0206328125,72.01729837292687L70.09334375,68.86445764085207L70.7477421875,79.62208456147047L70.820453125,82.2325432440539L71.6202734375,75.17711755638719L71.83840625,71.10475251320243L71.9111171875,73.64356371190095L72.0565390625,80.08692330137457L72.2019609375,76.38103963145952L73.2199140625,68.76524288898314L73.58346875,71.63371612218383L73.728890625,66.81969773285009L73.9470234375,75.97565784640561L74.456,79.77332714192542L74.5287109375,77.24450814123435L74.9649765625,85.18933746454407L75.1103984375,88.47151103280359L75.183109375,90.07782689250931L75.32853125,93.05104620645895L75.40124218749999,96.16476335162196L75.619375,95.44202130099698L75.764796875,93.08237922346929L76.1283515625,93.64792189214431L76.2010625,93.73909071692111L76.8554609375,90.91676890616584L77.0008828125,90.32930678704363L77.2917265625,84.45982795345175L77.36443750000001,80.99631263129346L77.72799218749999,84.13652965374251L78.0188359375,90.57770394413149L78.091546875,93.44030833678528L78.3096796875,93.24270266793421L78.45510156249999,97.16059967578798L78.6005234375,93.44582800806373L78.673234375,85.8527075096417L78.7459453125,87.4007015874653L78.81865625,85.62679336611446L78.964078125,88.9916042980195L79.03678906249999,93.18172423461918L79.40034375,80.92343071234134L79.4730546875,82.2651973815674L79.98203125,88.69325712751832L80.127453125,86.29415942330054L80.56371875,90.12720517813499L80.709140625,91.4505580311974L81.0726953125,92.81157013213397L81.43625,93.66355288288452L81.58167187500001,90.96749698317919L82.45420312499999,97.26962494848296L82.9631796875,91.80962588309123L83.035890625,95.51892100524232L83.18131249999999,100.23847098083094L83.2540234375,98.01979227859256L83.32673437499999,96.52306280612038L83.3994453125,89.69805982875279L83.5448671875,89.22628168086678L83.76299999999999,90.34939432513994L84.05384375,92.96935781700779L84.4173984375,88.18276836909872L84.63553125,84.85938178561939L84.926375,85.65418150820024L85.14450781250001,90.6906762480598L85.21721875,84.53689644097456L85.362640625,78.37175401067236L85.4353515625,86.32791099557579L85.5807734375,89.07086434369862L85.65348437499999,76.93686758998382L85.72619531250001,68.62758073999493L85.944328125,68.59593778725866L86.0170390625,74.97586790726426L86.23517187499999,86.39248559001591L86.38059375,89.93459888651077L86.45330468750001,88.23908266755404L86.96228124999999,89.22072867234029L87.1804140625,97.96960641193078L87.4712578125,99.36120690135769L87.689390625,98.96733268993266L87.8348125,102.93979010163049L87.980234375,99.58119978653373L88.271078125,101.34993847696174L88.561921875,101.70458509736174L88.78005468750001,102.31608456976957L88.852765625,98.12199362401812L88.92547656250001,98.50893215349107L88.9981875,99.72665808207267L89.434453125,98.13751426223799L89.87071875,96.62411382009913L90.016140625,99.40384644872147L90.08885156250001,102.63837443951486L90.3796953125,100.65607985474897L90.597828125,96.10364638697047L90.67053906250001,102.64083650428617L90.888671875,101.43098681162931L90.96138281249999,104.99232915515385L91.03409375,107.59378285571744L91.179515625,109.63845377066617L91.3249375,107.05584926664164L91.761203125,106.73273592030603L91.9793359375,106.96912313482522L92.052046875,106.01160771001196L92.27017968749999,103.89309849708567L92.342890625,104.91302395802313L92.41560156249999,100.75489054287418L92.5610234375,98.43253964760866L92.633734375,101.65303021060805L93.07000000000001,94.90514276854623L93.36084375,94.9690958883311L93.43355468749999,98.982187751886L93.57897656249999,101.3997674584131L93.7243984375,100.53091401813867L93.8698203125,99.41189509247806L93.94253125,95.7269399691526L94.0152421875,91.09310451799058L94.087953125,98.90651428016082L94.16066406249999,91.19779124326737L94.378796875,96.32317145387668L94.669640625,99.06262866807187L94.8877734375,102.70797304244162L95.0331953125,101.63500507790638L95.10590625,107.10390036653752L95.1786171875,101.29802240223452L95.6148828125,98.66872331911782L95.68759375,102.62977550872839L95.833015625,106.36810408621237L96.05114843749999,100.26581766718152L96.3419921875,103.98701032229377L96.560125,104.86422868864605L96.7782578125,98.59044757543127L96.85096875,95.29930941973997L96.996390625,80.89696041533274L97.1418125,77.87142400615765L97.28723437500001,73.30755300446363L97.6507890625,87.3091446299792L97.86892187500001,94.64713001605516L98.01434375000001,93.32560584280876L99.3958515625,100.86901835759869L99.5412734375,103.38173171615834L99.613984375,103.49781687698504L99.90482812500001,101.23359714294517L100.05024999999999,105.53413430658009L100.34109375,105.06952441100492L100.486515625,104.16511684157976L100.63193749999999,103.42370650707798L100.8500703125,105.47348815404841L100.9954921875,104.21926243664902L101.068203125,107.70617828108121L101.213625,108.83880580745488L101.50446874999999,113.93417257596462L101.7953125,112.09233203488236L102.3042890625,111.17649341915634L102.377,105.3501004391586L102.4497109375,108.131139574866L102.52242187499999,106.44298402453691L102.66784374999999,106.04971290579576L102.8859765625,110.26248862833464L102.9586875,112.98027052456548L103.0313984375,112.04953608259207L103.24953124999999,110.78605516281513L103.32224218750001,109.91274855331652L103.394953125,109.98343810675188L103.4676640625,113.42474318288352L104.04935156250001,113.3752815386211L104.1220625,111.02423676374883L104.3401953125,108.56875933959086L104.849171875,112.00791935535669L105.0673046875,114.59689930684803L105.6489921875,111.21086651091241L105.72170312499999,112.87005982163228L105.867125,114.0546203885238L105.9398359375,114.15759105406765L106.012546875,116.42675373865703L106.2306796875,115.24826684661828L106.30339062499999,118.35467348496988L106.4488125,119.63450200319811L106.594234375,117.5672688803704L106.95778906250001,115.64278623590657L107.0305,115.69535509306067L107.32134375,111.31009166454001L107.3940546875,112.59948387750819L107.466765625,114.32694248562356L107.53947656250001,117.0795745575744L107.757609375,116.06922876622188L107.8303203125,114.17077524534409L107.90303125,113.01396559161869L108.12116406250001,116.09690334846334L108.193875,113.42089303523157L108.7755625,115.08067061537417L109.06640625,116.45768836280055L109.211828125,114.4394965740463L109.35725,112.42599996163969L109.4299609375,115.42433085581376L109.64809375,112.86374459350536L109.9389375,115.59182740738648L110.01164843749999,115.78925317699108L110.084359375,115.20680061682697L110.3024921875,117.1031722146549L110.8841796875,117.58656632889975L111.02960156249999,115.32376077168982L111.3204453125,115.66858767982603L111.39315625,115.61939005563427L111.61128906249999,115.45979224032025L111.75671093749999,116.7266203927151L111.9021328125,112.0403536061735L112.2656875,111.56697133423633L112.7746640625,112.92218246484843L112.847375,112.03045932784705L113.0655078125,109.15184859475511L113.2109296875,105.24419514203677L113.6471953125,105.68996745028859L113.71990625000001,109.34889327573042L113.865328125,111.77290404252564L114.01075,111.82831342466089L114.30159375000001,110.96795698790201L114.5924375,111.89909137718945L114.737859375,114.1326563872878L115.1014140625,115.79960975873377L115.174125,114.64599392073097L115.2468359375,115.44037823949303L115.7558125,116.99359554454114L115.8285234375,112.29250788214462L116.2647890625,112.11215446187649L116.5556328125,110.83304693814274L116.62834375000001,114.5344004637966L116.7010546875,112.99558559459265L117.35545312500001,112.87060081125388L117.50087500000001,113.38476706481629L117.7190078125,117.52173480592164L118.1552734375,118.52382499457593L118.22798437499999,108.9776171307635L118.518828125,108.46224647169541L118.7369609375,108.28559649828213L118.8823828125,110.5295876505562L119.9003359375,106.88479725853135L120.11846874999999,106.77400026521403L120.33660156250001,106.02301806569885L120.4093125,106.82404117084022L120.4820234375,111.76298297581955L120.70015624999999,108.72755821429422L120.7728671875,107.14679997374255L120.84557812499999,113.49907174831412L122.154375,119.94883245423904L122.299796875,119.48573655483406L122.3725078125,121.04469272731114L122.5179296875,118.43011649393063L122.59064062499999,117.94021095241918L123.02690625,117.07498308542856L123.0996171875,115.75375434710674L123.2450390625,118.13190896602924L123.39046093750001,121.42809094960961L123.5358828125,118.47477212652846L123.6813046875,119.53359399739077L123.89943749999999,118.45493643345338L124.044859375,120.30011372603121L124.19028125,120.71508294604504L124.335703125,123.73176487840584L124.48112499999999,120.54633349750858L124.626546875,120.21193667992605L125.35365625,119.99018335309418L125.6445,119.48783838252302L125.93534375,116.84835068881557L126.0080546875,114.6038924628499L126.080765625,112.85646185481565L126.2261875,116.97491311790954L126.44432031250001,121.17529961444384L126.662453125,121.43237959013847L126.807875,123.22067577044051L127.02600781250001,122.03129154205251L127.46227343749999,123.29154820060687L127.6076953125,124.23970415840122L127.7531171875,121.98535948425277L127.825828125,122.54803239244069L128.0439609375,122.09146254383234L128.116671875,121.71509764386838L128.18938281249999,124.85360057946221L128.407515625,123.93672731278048L128.989203125,121.00372809146467L129.3527578125,122.7284717343725L129.4981796875,123.23220448627933L129.9344453125,123.77289151748934L130.2252890625,122.91314899683547L130.298,123.54033086157173L130.3707109375,125.02150075350005L130.443421875,126.05455062337994L130.87968750000002,125.65155421226191L131.0978203125,123.71120702343563L131.60679687500001,123.67032708595622L131.75221875,125.07662013215082L131.97035156249999,125.78915790463839L132.0430625,124.75032961693617L132.2611953125,125.87273974136838L132.69746093749998,124.37998268912034L132.8428828125,122.46596605008719L133.061015625,124.10812300697492L133.2791484375,125.35339335832313L133.351859375,123.24639393945525L133.4245703125,125.82054384982578L133.49728125000001,122.94886458656784L133.5699921875,125.84838635886666L134.0062578125,115.99366139867877L134.4425234375,120.01530202090129L134.8787890625,119.68369307434193L135.3150546875,116.28708689639348L135.678609375,116.5489672448002L135.969453125,118.99636515294091L136.4784296875,122.1219448251401L136.6238515625,122.30352962034192L136.84198437499998,124.22606812487393L136.98740625,125.32776023489444L137.0601171875,124.63289847339517L137.27824999999999,124.70444068888023L137.3509609375,127.0079623030376L137.4963828125,125.17224256317327L137.56909374999998,125.51860460353203L137.7872265625,126.84628473229591L139.0233125,127.54063693110575L139.0960234375,125.40315288200635L139.16873437499999,124.25024035629427L139.5322890625,124.49794614706514L139.750421875,126.81770678278255L140.041265625,128.13403260181218L140.1139765625,128.15596119087854L140.1866875,127.50822191430282L140.47753125,128.24314810867997L140.5502421875,128.63915904304918L140.622953125,127.0907582661005L140.768375,127.53891262415004L140.913796875,127.53220152499051L141.05921874999999,126.3498336103068L141.204640625,126.85521499314942L141.78632812499998,126.31075038909339L142.1498828125,128.60190347671164L142.22259375,125.21837245845589L142.8769921875,127.71117577686186L142.94970312499998,129.00241099914476L143.74952343750002,129.2710540671382L144.3312109375,127.02090997095311L144.403921875,126.67989852544906L144.6220546875,129.68494683335567L144.7674765625,126.81307955402342L144.8401875,127.87517599951153L145.421875,129.45277084285573L145.4945859375,131.8630352865133L145.56729687499998,125.92600066485842L145.64000781250002,125.01881533993983L145.85814062499998,128.98894807656828L146.0035625,129.3741313467039L146.0762734375,127.80816995201191L146.148984375,124.4147263330083L146.73067187499998,126.65690175782805L147.0942265625,127.8571551805208L147.1669375,130.27533751520335L147.3850703125,129.5140169965793L147.894046875,130.0218781964522L148.03946875,131.45349763968835L148.766578125,131.33900441610365L149.13013281250002,131.22424624135226L149.20284375,129.76322645288784L149.34826562499998,130.87422355617332L149.42097656250002,131.3381938731983L149.8572421875,132.9519472239205L150.36621875,132.92291239486866L150.4389296875,133.3299112915202L151.093328125,131.95652046914125L151.384171875,131.4837291283323L151.52959375,134.02418932455262L151.8204375,133.71936632834363L152.4748359375,134.46275772120052L152.62025781250003,134.66848162094053L152.838390625,132.82323794412193L152.9838125,133.7187087538694L153.0565234375,133.6729370929512L153.420078125,133.89465717898088L153.6382109375,134.15284372106956L154.001765625,134.27580005130628L154.1471875,131.99216718555368L154.583453125,132.42053835797833L154.65616406249998,131.82381613498046L154.72887500000002,132.61759708073805L155.01971875,128.11093490211408L155.3832734375,129.0734576802745L155.60140625,130.1119178498563L155.74682812499998,132.65666782169203L155.9649609375,134.24658921306528L156.18309375,132.59704472389933L156.4739375,133.22541121582458L156.9829140625,134.72340472185772L157.05562500000002,135.47549221780397L157.1283359375,135.50518102327882L157.6373125,135.5162152843469L157.782734375,132.53746654014552L157.92815625,134.04360250843027L158.1462890625,133.61226150162491L158.21900000000002,133.87227069358514L158.655265625,133.54191765678218L158.72797656249998,132.85957797939952L159.3096640625,134.50480026588068L159.527796875,133.36997055164113L159.60050781249998,131.36742756337605L159.67321875000002,132.05181697351145L159.7459296875,130.36232270325667L159.89135156249998,130.83597501233487L160.109484375,126.61946534702341L160.6184609375,130.27397998564936L160.691171875,130.43861497159895L161.05472656249998,131.05844720790446L161.20014843750002,132.21654432648216L161.272859375,131.01473481198428L161.3455703125,134.22511231625245L161.99996875000002,135.16302456214527L162.29081250000002,133.88844926449357L162.436234375,134.6280722528261L162.5089453125,135.5835263389088L162.65436718750001,136.07669627056939L163.017921875,135.56850761524692L163.0906328125,137.29458846540365L163.2360546875,137.18916768247553L163.308765625,138.12380973347825L163.38147656249998,136.7829036799002L163.599609375,137.4079842619257L163.74503124999998,136.61041959596616L163.890453125,137.8210220508155L164.54485156249999,137.33660896851876L164.762984375,137.76748472830212L165.4173828125,138.38018371093605L165.8536484375,139.41981925385198L165.926359375,139.8535824431002L166.36262499999998,139.03889522630095L166.4353359375,139.6748477630503L166.508046875,140.00451275424285L167.089734375,140.2821686644323L167.52599999999998,139.58473649853272L167.59871093750002,139.11049838801506L168.1803984375,139.1775999971645L168.253109375,139.18919359853368L168.47124218750002,140.18884016520084L168.68937499999998,140.1178775325197L168.98021874999998,141.0907307204472L169.12564062500002,141.15829250674648L169.416484375,140.95198522485018L169.85275,139.03595634506178L170.14359374999998,139.29929419640322L170.2163046875,140.2316689532019L170.4344375,138.81811433559758L170.79799218750003,138.6627112098104L171.08883593750002,139.74687838957107L171.2342578125,139.7883356261575L171.37967968750002,139.9402524905398L171.5251015625,141.05063011866775L172.034078125,140.6005487264512L172.1795,140.78040600665318L172.25221093750002,140.10524962453786L172.6884765625,140.57715128248182L172.7611875,140.34200935831814L172.83389843749998,141.3189509825179L172.9793203125,141.2178064916294L173.12474218749998,142.18371755205163L173.99727343749998,141.12799303485494L174.651671875,141.11825157853093L174.942515625,140.4163580230005L175.3060703125,140.5379352838473L175.37878125,141.49814061109282L175.74233593749997,140.906492408419L175.815046875,141.72053540247938L175.8877578125,140.72578338443196L176.1786015625,141.59845910345885L176.25131249999998,138.55253122493846L176.68757812500002,140.09077759650484L176.978421875,141.95838157455404L177.05113281250001,142.30313373637367L177.12384375,142.2336567439566L177.269265625,142.41140636670173L177.3419765625,141.4370244912361L177.70553125,140.71569957328168L177.9236640625,140.56384411568837L178.06908593749998,140.8725522036278L178.28721875,141.74535997837327L178.5053515625,142.1419919927689L178.72348437500003,142.44307721375063L178.86890625,142.0099246830859L179.37788281250002,141.95395243234145L179.5233046875,141.93365282575314L179.6687265625,143.27520083880438L180.323125,143.3718648832799L180.39583593749998,143.39419579516417L180.46854687500002,142.5616108561192L180.54125781250002,141.81025534061396L181.55921093749998,142.57637779943826L181.8500546875,143.09654172559192L182.1408984375,143.25438778579002L182.21360937499998,143.87225962507586L182.4317421875,143.73318582551394L182.504453125,142.7810784660382L182.72258593749999,142.88045237079876L182.8680078125,143.15669820794832L183.01342968749998,143.84286310964447L183.37698437499998,143.19137639697564L183.5951171875,143.06421213445768L183.7405390625,143.69298590360702L183.958671875,143.36322481834068L184.17680468749998,143.64261825205787L184.3949375,141.1441312129611L184.54035937499998,138.4805410513469L184.7584921875,139.76937772090366L184.976625,141.1797086265989L185.0493359375,141.1911083952968L185.26746875,142.4762488613358L185.48560156250002,143.79281021892015L186.14000000000001,144.03094331824175L186.285421875,143.49421438457603L186.64897656250002,143.38506423283837L187.01253125,144.0740530660702L187.0852421875,143.22455132549723L187.15795312499998,143.61526301947666L187.30337500000002,144.013364345118L187.3760859375,142.80221997158802L187.5215078125,142.57810348544763L187.6669296875,143.47099221631436L187.8850625,143.397481933144L187.9577734375,143.87130166942316L188.2486171875,143.42356967600844L188.612171875,143.63018956466115L188.75759375,144.0023490803456L189.193859375,144.5437136088023L189.26657031250002,144.62660132850465L189.33928125,144.85866408470426L189.4119921875,145.08688864304514L189.48470312499998,145.24357555147344L189.7028359375,145.20238536498746L189.8482578125,145.303815757643L190.1391015625,145.42876833165337L190.357234375,145.4520835917273L190.50265625,144.8964327431368L190.64807812499998,144.29421036819502L190.72078906250002,144.44461589443614L190.7935,144.2922458373781L191.08434375000002,144.52972876091457L191.3751875,144.76816759025846L191.4478984375,144.7942265004861L191.520609375,144.0466854841082L191.81145312499999,144.60995821419766L191.8841640625,144.59576844372398L192.0295859375,143.9545748185995L192.10229687499998,144.73853945445316L192.24771875000002,144.51097097224772L192.3204296875,145.20010837451684L192.393140625,145.24106109461823L192.5385625,145.65425713969256L192.6112734375,145.48862782545677L192.75669531249997,145.47961244242066L192.974828125,145.56178696427747L193.12025,145.95951206609013L193.1929609375,146.10784737780335L193.62922656249998,145.5084963352361L193.7019375,144.75150435631744L193.7746484375,145.61256312528414L194.0654921875,145.9525310921619L194.2109140625,146.16246672677693L194.3563359375,146.23217623357593L194.6471796875,146.43785559728514L195.3742890625,145.8586207699464L195.5197109375,145.68053601692236L195.6651328125,143.7050095421679L195.73784375000002,144.36890322343152L196.02868750000002,144.1806818340757L196.174109375,144.51880295840135L196.24682031249998,145.5839217672779L196.31953125,144.25725553810798L196.5376640625,144.96049032676342L196.8285078125,145.48520445149018L196.90121875000003,145.29071837020442L197.1193515625,146.06549325199438L197.337484375,145.6329612720699L198.06459375000003,143.136798569482L198.1373046875,143.5838494044074L198.35543750000002,144.82575642833285L198.4281484375,143.58090841632588L198.57357031249998,143.63050644553604L198.791703125,143.54384408090652L198.937125,144.58924983557546L199.00983593750001,144.29324819217015L199.1552578125,144.66661746960813L199.22796875,144.72879156864843L199.3006796875,144.40114417670463L199.373390625,144.6961352884668L199.51881250000002,145.1065859091221L199.664234375,145.60341909598938L199.73694531249998,145.92643963737268L200.0277890625,146.24741348888264L200.10049999999998,145.85326549330824L200.245921875,146.26360171746893L200.4640546875,146.27944308585933L200.827609375,146.37818632404213L201.700140625,146.59310628342752L201.990984375,147.25973064165188L202.2091171875,147.3403864709191L202.572671875,147.50312975929097L202.71809374999998,147.706367738759L202.9362265625,147.28895098430843L203.3724921875,147.08963372387248L203.445203125,147.38766620443914L203.590625,147.5515171103874L203.8087578125,147.7139701004743L204.026890625,147.07607349133013L204.0996015625,146.4620161627264L204.17231249999998,147.1683872136194L204.82671093750002,147.3993149276208L204.899421875,147.2628373322267L204.9721328125,147.3127760444509L205.04484374999998,147.33471070494812L205.190265625,147.3566655776892L205.33568749999998,147.79412958514652L205.5538203125,147.74562709743952L205.917375,147.9569648290585L206.062796875,148.29139907746975L206.1355078125,148.37872094982544L206.20821875,148.29304129167605L206.28092968750002,148.49736202409392L206.8626171875,148.19380446583347L207.517015625,147.61245582765528L207.8805703125,147.74497979918831L208.4622578125,147.92985725307295L208.53496875,148.13658193530932L208.7531015625,148.16449296106276L209.0439453125,148.4417360808216L209.552921875,148.3151023522474L209.7710546875,148.47568652721986L209.98918749999999,148.7349789589211L210.0618984375,148.7396863585451L210.134609375,148.26724453960293L210.28003124999998,148.22197826978226L210.86171875,148.54594012425338L211.007140625,148.6971123643279L211.1525625,148.39211159751176L211.297984375,147.74142359259938L212.02509375,147.90631436922084L212.60678124999998,148.19462721835333L212.6794921875,148.6872670941994L212.75220312500002,148.98655428847346L213.04304687500002,149.1565969810526L213.4793125,149.15819735799076L214.061,148.51875246211196L214.497265625,148.75488666441623L214.56997656250002,148.556039690653L214.6426875,148.81830154161423L214.7153984375,148.91792597711546L214.8608203125,149.24146174156942L215.0062421875,148.90757273891137L215.224375,149.24309226309398L215.660640625,149.2587387802311L215.8060625,149.4286895872419L216.3150390625,148.97479079969315L216.6058828125,149.32332454924338L216.75130468749998,149.4806319523129L217.0421484375,149.58565208245952L217.114859375,149.30197692948366L217.26028125,149.58004269980063L217.6238359375,149.56380889405412L217.84196875,149.52681874745846L217.98739062500002,149.73066880055524L218.2055234375,149.68875022499714L218.27823437499998,149.85956742864224L218.35094531250002,149.48586140216216L219.07805468749999,149.8067044683744L219.150765625,149.6157239668637L219.2961875,149.53016510683713L219.36889843749998,149.14917768048298L219.44160937499998,149.15311467532547L219.51432031250002,149.1740668552174L219.73245312499998,149.5379887149962L219.8051640625,149.6339562991996L219.9505859375,149.4021900439107L220.16871875,149.69145675801298L220.314140625,149.87298374118245L220.4595625,150.02718695605896L220.604984375,149.80606010320844L221.2593828125,149.7886573312465L221.5502265625,149.87756775842809L221.69564843749998,149.68123487011613L221.84107031250002,149.89470097885146L221.9864921875,149.17640575209626L222.204625,149.19970518374066L222.4227578125,149.42643110289347L222.85902343749999,149.6954370232473L222.931734375,149.83742642474473L223.22257812499998,149.91681966347875L223.4407109375,150.23261058308708L223.65884375000002,150.1007783030154L223.804265625,150.16958940116655L223.8769765625,149.9373772864824L224.16782031250003,149.79089836867365L224.45866406250002,149.99166405434437L224.67679687499998,150.19466525635139L224.7495078125,150.48465115976938L224.82221875000002,150.63932993681794L224.8949296875,150.45134657067993L225.1130625,150.14430975462759L225.40390625,150.07772357669927L225.84017187499998,149.94407585744534L225.91288281250002,150.05831316163824L226.131015625,150.2909385612648L226.4945703125,150.59275119728096L226.712703125,150.66923319951442L226.78541406250002,150.6871360406622L226.9308359375,150.85116724582582L227.07625781250002,150.76542699821036L227.2216796875,150.61749867729688L227.294390625,150.7258609356424L227.5125234375,150.74289700102452L227.585234375,150.28986178822305L227.73065625,150.19061159245365L227.9487890625,150.3293796303999L228.0215,150.18895582456182L228.16692187499999,150.10456228076688L228.60318750000002,150.2975661499457L228.82132031249998,150.61049278635718L229.039453125,150.6653988805946L229.11216406249997,150.66898456856825L229.4030078125,150.72077763345968L229.8392734375,150.82844146351295L230.78451562499998,150.80433401501344L231.075359375,150.80316995880705L231.22078125000002,151.10320623577655L231.58433593750001,151.14805858648432L231.80246875,151.23168723235494L231.94789062499999,151.12971347779018L232.238734375,151.04010050243127L232.60228906249998,150.9574095150589L232.8931328125,150.98749327127692L233.1839765625,151.0082123641047L233.402109375,151.09432032131394L234.0565078125,151.20279010726952L234.4927734375,151.06962978359428L235.2198828125,150.98345242271643L235.29259375,151.0483255441774L235.36530468750001,151.25137758825952L235.5834375,151.21521674737176L235.6561484375,151.2779182043364L236.019703125,151.32401053528133L236.16512500000002,150.7856497563132L236.45596874999998,151.04366900546603L236.52867968750002,150.9862877489522L236.601390625,150.97177005180092L236.6741015625,150.5440148757003L236.74681249999998,150.81339557922496L236.8195234375,150.61951357577212L236.892234375,150.86251675578336L237.473921875,150.99565473373164L238.1283203125,151.14173817083494L239.1462734375,151.09304755416667L239.218984375,151.31189595989676L239.2916953125,151.21540301759418L239.800671875,151.29723174523934L240.1642265625,151.387174658487L240.382359375,151.10269717366083L240.52778124999998,151.0556175904905L240.6004921875,151.25822236522646L240.67320312500001,151.49906050970918L240.7459140625,151.6001642978833L241.03675781249999,151.34247385064637L241.6184453125,151.48021019041465L241.69115624999998,151.62575702869847L241.9092890625,151.63256525280448L242.0547109375,151.4612570189379L242.127421875,151.58011021393193L242.27284375,151.57576528476272L243.145375,151.50582302204722L243.290796875,151.42031466360066L243.50892968750003,151.26754343924028L243.6543515625,151.41240956316653L244.01790624999998,151.6182395918981L244.2360390625,151.55371912382935L244.45417187500001,151.58476780928908L245.1085703125,151.60830974386775L245.18128124999998,151.6903158569732L245.61754687500002,151.73335166540136L245.76296875,151.82262625853056L245.83567968749998,151.5511839733114L246.2719453125,151.69225250158252L246.490078125,151.78448056145632L246.5627890625,151.66054445841385L246.92634375,151.60411804520174L247.071765625,151.47469345035006L247.2171875,151.6512065559736L247.4353203125,151.84728134394354L247.50803125,151.78144962144296L247.5807421875,151.8315062442565L248.08971875,151.89459206576015L248.45327343749997,151.9934667856387L248.5986953125,151.85218642836165L248.67140625,151.88985955527633L248.7441171875,151.84978321797377L249.0349609375,151.70181369070247L249.5439375,151.5385773031952L249.83478125,151.43474507683766L250.0529140625,151.50827632638368L250.12562499999999,151.68582489843698L250.27104687500002,151.67344896230418L250.78002343749998,151.70006568451714L250.852734375,151.67600007188315L251.2162890625,151.54039327819345L252.08882031250002,151.51613721024512L252.452375,151.65965792698572L252.59779687500003,151.59135337569063L252.6705078125,151.65799120961276L252.88864062500002,151.75839662968306L252.9613515625,151.94373877357953L253.61575,151.67586129791445L254.05201562500002,151.80949298433606L254.34285937500002,151.85584155674067L254.70641406250002,151.9710731420236L254.8518359375,151.95054502864582L254.9972578125,152.07098573553503L255.1426796875,152.1308329946276L255.2881015625,152.01722728052596L255.506234375,152.04959480189598L255.5789453125,152.11751039042065L255.65165625,151.98271476038687L255.86978906250002,152.05014136438604L255.9425,151.86606215539595L256.0152109375,151.81919497134103L256.087921875,151.79686883855948L256.30605468749997,151.66777940076045L256.37876562499997,151.86745108176143L256.45147656250003,151.69150141661686L256.669609375,151.68055022946191L256.7423203125,151.69355845922942L256.8877421875,151.86330634221264L256.96045312499996,152.02330299594897L257.251296875,152.0758888076478L257.39671875,151.9285963196L257.4694296875,152.0121878754163L257.542140625,152.06700486368322L257.83298437499997,151.80129514292707L257.97840625,151.74433355185886L258.123828125,151.96968228848874L258.3419609375,151.8928681578165L258.996359375,152.03089771604095L259.2144921875,151.90833416125508L259.3599140625,151.86609003151258L259.5053359375,151.99834073367595L259.6507578125,152.14435452927876L259.7961796875,152.07278765982227L260.0143125,152.1173705216994L260.450578125,152.17594227056208L260.741421875,152.1984447053701L260.88684375,152.2841369081515L261.10497656250004,152.3349506675588L261.3958203125,152.29308792647043L261.68666406250003,152.32422458229257L261.9775078125,152.2482928168642L262.2683515625,152.34979484152004L262.7046171875,152.1321912972403L262.92275,152.2776122634573L263.21359375000003,152.2825105264761L263.359015625,152.3406941476451L263.649859375,152.35265876072566L263.7225703125,152.32761216949177L264.231546875,152.28838404649946L264.4496796875,152.32788429340394L264.522390625,152.16853955316944L264.8859453125,152.24067552881482L264.95865625,152.26165668843413L265.0313671875,152.2894886891736L265.1767890625,152.28958352629502L265.39492187499997,152.2549951054106L265.7584765625,152.16729889198837L265.976609375,152.2108170800489L266.04932031249996,152.29128402787936L266.1947421875,152.19243981253203L266.6310078125,152.25274046666084L267.3581171875,152.2267579132715L267.86709375000004,152.28877487149236L268.0852265625,152.3410583905363L268.1579375,152.418287021636L268.594203125,152.3469043104166L268.6669140625,152.3346187912413L268.739625,152.32190389352968L268.8123359375,152.30970753382402L268.885046875,152.29820019871448L268.9577578125,152.3435034261373" style="fill: none;" fill="none"></path></g></g></g></g><g opacity="0.2"><g><g><g><path stroke="rgb(255, 112, 67)" stroke-width="2px" d="M43.190296875,-7.255123615264893L43.771984374999995,3.5801879882812386L43.9901171875,-2.1903533935546875L46.6077109375,-15.61735811233521L46.680421875,1.1618528366088867L46.7531328125,-38.12769556045532L47.262109375,36.79098243713378L47.6256640625,-2.1283699035644474L48.4981953125,-6.958423233032221L48.57090625,22.423633146286022L48.7890390625,31.364439296722423L49.22530468750001,36.713081073760975L49.298015625000005,25.277675771713263L49.4434375,51.62294626235962L49.661570312500004,30.81545834541322L49.8069921875,35.622158145904535L49.879703125000006,24.14373407363891L50.025124999999996,34.81009340286255L50.170546875,41.79731397628785L50.2432578125,35.5636435031891L50.75223437499999,30.890380382537842L51.333921874999994,61.765003252029416L51.4066328125,56.27566637992858L51.47934375,38.85417852401733L51.7701875,15.128934288024908L52.497296874999996,34.12094907760621L52.570007812499995,49.62457795143128L52.7154296875,49.302768516540525L53.0062734375,40.38308773040771L53.22440625,42.881282329559326L53.2971171875,38.19900527000428L53.369828125,51.42639513015747L53.5879609375,45.24965257644652L54.4604921875,48.04289331436158L54.8967578125,55.74548978805542L55.114890625,60.29552865028381L55.2603125,64.29089798927306L55.3330234375,53.66861243247986L55.4784453125,59.46619563102722L55.7692890625,35.97294216156007L56.0601328125,55.786693954467765L56.205554687500005,70.94646806716919L56.569109375000004,65.30232439041139L57.5870625,66.52113046646117L57.9506171875,68.1334945678711L58.023328125000006,53.81679382324218L58.31417187500001,36.99225153923035L58.386882812500005,63.6010531425476L58.677726562500006,58.67142448425294L58.750437500000004,23.977769565582264L58.895859375,6.450502967834467L59.113992187499996,40.135491371154785L59.477546874999994,61.96428050994872L59.55025781249999,43.8744360923767L59.62296875,75.45445032119751L59.9865234375,48.58346800804139L60.059234374999996,68.18160266876221L60.131945312499994,59.364476537704476L60.350078124999996,60.28636279106139L61.004476562499995,79.5982711315155L61.1498984375,57.70926246643067L61.586164062499996,53.3202085018158L62.531406249999996,66.4353123664856L62.7495390625,57.66380453109741L63.0403828125,62.95983123779297L63.3312265625,72.00088791847229L63.4766484375,74.4168176651001L63.7674921875,57.19165306091308L63.840203125,78.15056333541871L63.9129140625,84.82819983959199L64.0583359375,73.56222367286682L64.421890625,80.22122039794921L64.7854453125,66.29343566894532L64.85815625000001,85.94453144073486L66.02153125,90.93403358459473L66.5305078125,34.76994423866273L66.96677343750001,81.15438251495361L67.039484375,81.27115015983581L67.18490625,76.20286045074464L67.621171875,74.13319931030274L68.2755703125,82.52834987640381L68.42099218749999,88.55420179367066L68.493703125,79.09147338867187L68.7118359375,83.21520695686341L69.1481015625,71.84890007972717L69.7297890625,74.04824209213257L69.8025,52.93958058357238L70.0206328125,79.57981281280517L70.09334375,64.13519654273988L70.7477421875,95.75852494239807L70.820453125,86.14823126792908L71.6202734375,64.59397902488708L71.83840625,64.9962049484253L71.9111171875,77.45178050994873L72.0565390625,89.75196268558503L72.2019609375,70.82221412658691L73.2199140625,57.34154777526855L73.58346875,75.93642597198486L73.728890625,59.59867014884948L73.9470234375,89.7095980167389L74.456,85.46983108520509L74.5287109375,73.45127964019775L74.9649765625,97.10658144950867L75.1103984375,93.39477138519287L75.183109375,92.48730068206787L75.32853125,97.51087517738343L75.40124218749999,100.83533906936646L75.619375,94.3579082250595L75.764796875,89.54291610717773L76.1283515625,94.49623589515686L76.2010625,93.8758439540863L76.8554609375,86.68328619003296L77.0008828125,89.44811360836029L77.2917265625,75.65560970306397L77.36443750000001,75.80103964805603L77.72799218749999,88.84685518741608L78.0188359375,100.23946537971497L78.091546875,97.734214925766L78.3096796875,92.94629416465759L78.45510156249999,103.03744518756866L78.6005234375,87.87367050647735L78.673234375,74.46302676200867L78.7459453125,89.72269270420074L78.81865625,82.96593103408814L78.964078125,94.03882069587708L79.03678906249999,99.46690413951873L79.40034375,62.53599042892456L79.4730546875,84.2778473854065L79.98203125,98.3353467464447L80.127453125,82.69551286697389L80.56371875,95.87677381038665L80.709140625,93.43558731079102L81.0726953125,94.85308828353882L81.43625,94.94152700901031L81.58167187500001,86.92341313362122L82.45420312499999,106.7228168964386L82.9631796875,83.61962728500366L83.035890625,101.08286368846893L83.18131249999999,107.31779594421387L83.2540234375,94.69177422523498L83.32673437499999,94.27796859741211L83.3994453125,79.46055536270141L83.5448671875,88.51861445903778L83.76299999999999,92.03406329154969L84.05384375,96.89930305480956L84.4173984375,81.0028841972351L84.63553125,79.87430191040039L84.926375,86.84638109207152L85.14450781250001,98.24541835784912L85.21721875,75.30622673034668L85.362640625,69.12404036521912L85.4353515625,98.26214647293091L85.5807734375,93.18529436588287L85.65348437499999,58.735872459411624L85.72619531250001,56.1636504650116L85.944328125,68.5484733581543L86.0170390625,84.54576308727265L86.23517187499999,103.51741211414337L86.38059375,95.24776883125305L86.45330468750001,85.69580833911895L86.96228124999999,90.69319767951966L87.1804140625,111.09292302131652L87.4712578125,101.44860763549805L87.689390625,98.37652137279511L87.8348125,108.89847621917724L87.980234375,94.54331431388854L88.271078125,104.00304651260376L88.561921875,102.23655502796173L88.78005468750001,103.23333377838135L88.852765625,91.83085720539093L88.92547656250001,99.0893399477005L88.9981875,101.55324697494507L89.434453125,95.75379853248596L89.87071875,94.35401315689087L90.016140625,103.57344539165497L90.08885156250001,107.49016642570496L90.3796953125,97.6826379776001L90.597828125,89.27499618530274L90.67053906250001,112.44662168025971L90.888671875,99.61621227264405L90.96138281249999,110.33434267044068L91.03409375,111.49596340656281L91.179515625,112.7054601430893L91.3249375,103.18194251060486L91.761203125,106.24806590080262L91.9793359375,107.323703956604L92.052046875,104.57533457279206L92.27017968749999,100.71533467769623L92.342890625,106.44291214942932L92.41560156249999,94.51769042015076L92.5610234375,94.94901330471039L92.633734375,106.48376605510711L93.07000000000001,84.78331160545349L93.36084375,95.06502556800842L93.43355468749999,105.00182554721832L93.57897656249999,105.02613701820374L93.7243984375,99.22763385772706L93.8698203125,97.73336670398712L93.94253125,90.19950728416443L94.0152421875,84.14235134124756L94.087953125,110.62662892341613L94.16066406249999,79.63470668792725L94.378796875,104.01124176979064L94.669640625,103.17181448936462L94.8877734375,108.17598960399627L95.0331953125,100.02555313110352L95.10590625,115.30724329948424L95.1786171875,92.58920545578003L95.6148828125,94.72477469444274L95.68759375,108.57135379314423L95.833015625,111.97559695243835L96.05114843749999,91.11238803863526L96.3419921875,109.56879930496216L96.560125,106.18005623817444L96.7782578125,89.17977590560913L96.85096875,90.362602186203L96.996390625,59.293436908721915L97.1418125,73.33311939239502L97.28723437500001,66.4617465019226L97.6507890625,108.31153206825256L97.86892187500001,105.65410809516906L98.01434375000001,91.34331958293915L99.3958515625,112.18413712978364L99.5412734375,107.1508017539978L99.613984375,103.6719446182251L99.90482812500001,97.83726754188538L100.05024999999999,111.98494005203247L100.34109375,104.37260956764221L100.486515625,102.80850548744202L100.63193749999999,102.31159100532531L100.8500703125,108.54816062450409L100.9954921875,102.33792386054992L101.068203125,112.93655204772949L101.213625,110.53774709701538L101.50446874999999,121.57722272872925L101.7953125,109.32957122325897L102.3042890625,109.80273549556732L102.377,96.610510969162L102.4497109375,112.30269827842713L102.52242187499999,103.91075069904328L102.66784374999999,105.45980622768403L102.8859765625,116.58165221214296L102.9586875,117.05694336891173L103.0313984375,110.65343441963196L103.24953124999999,108.89083378314972L103.32224218750001,108.6027886390686L103.394953125,110.08947243690491L103.4676640625,118.586700797081L104.04935156250001,113.30108907222748L104.1220625,107.49766960144044L104.3401953125,104.88554320335388L104.849171875,117.16665937900544L105.0673046875,118.48036923408509L105.6489921875,106.13181731700897L105.72170312499999,115.3588497877121L105.867125,115.8314612388611L105.9398359375,114.31204705238343L106.012546875,119.83049776554108L106.2306796875,113.48053650856019L106.30339062499999,123.01428344249726L106.4488125,121.55424478054047L106.594234375,114.46641919612884L106.95778906250001,112.75606226921082L107.0305,115.7742083787918L107.32134375,104.73219652175904L107.3940546875,114.53357219696045L107.466765625,116.91813039779663L107.53947656250001,121.20852266550065L107.757609375,114.55371007919311L107.8303203125,111.3230949640274L107.90303125,111.27875111103057L108.12116406250001,120.72130998373032L108.193875,109.40687756538391L108.7755625,117.57033698558809L109.06640625,118.52321498394014L109.211828125,111.41220889091491L109.35725,109.40575504302979L109.4299609375,119.92182719707489L109.64809375,109.02286520004273L109.9389375,119.68395162820815L110.01164843749999,116.085391831398L110.084359375,114.33312177658081L110.3024921875,119.9477296113968L110.8841796875,118.31165750026702L111.02960156249999,111.92955243587494L111.3204453125,116.18582804203032L111.39315625,115.54559361934662L111.61128906249999,115.22039551734923L111.75671093749999,118.62686262130737L111.9021328125,105.01095342636108L112.2656875,110.85689792633056L112.7746640625,114.95499916076659L112.847375,110.69287462234497L113.0655078125,104.83393249511718L113.2109296875,99.38271496295928L113.6471953125,106.35862591266633L113.71990625000001,114.83728201389312L113.865328125,115.40892019271851L114.01075,111.91142749786377L114.30159375000001,109.67742233276367L114.5924375,113.29579296112061L114.737859375,117.48300390243531L115.1014140625,118.30003981590272L115.174125,112.91557016372681L115.2468359375,116.63195471763612L115.7558125,119.32342150211335L115.8285234375,105.24087638854981L116.2647890625,111.8416243314743L116.5556328125,108.91438565254211L116.62834375000001,120.08643075227738L116.7010546875,110.68736329078675L117.35545312500001,112.68312363624572L117.50087500000001,114.1560164451599L117.7190078125,123.72718641757965L118.1552734375,120.02696027755738L118.22798437499999,94.65830533504486L118.518828125,107.68919048309326L118.7369609375,108.02062153816223L118.8823828125,113.8955743789673L119.9003359375,101.41761167049408L120.11846874999999,106.60780477523804L120.33660156250001,104.89654476642609L120.4093125,108.02557582855225L120.4820234375,119.17139568328858L120.70015624999999,104.17442107200623L120.7728671875,104.77566261291504L120.84557812499999,123.02747941017151L122.154375,129.62347351312638L122.299796875,118.79109270572661L122.3725078125,123.38312698602675L122.5179296875,114.50825214385986L122.59064062499999,117.20535264015197L123.02690625,115.77714128494262L123.0996171875,113.77191123962402L123.2450390625,121.699140894413L123.39046093750001,126.37236392498016L123.5358828125,114.04479389190675L123.6813046875,121.12182680368423L123.89943749999999,116.83695008754731L124.044859375,123.06787966489793L124.19028125,121.33753677606583L124.335703125,128.25678777694702L124.48112499999999,115.76818642616271L124.626546875,119.71034145355225L125.35365625,119.65755336284639L125.6445,118.73432092666627L125.93534375,112.8891191482544L126.0080546875,111.23720512390136L126.080765625,110.23531594276429L126.2261875,123.15259001255035L126.44432031250001,127.47587935924531L126.662453125,121.81799955368041L126.807875,125.90312004089355L127.02600781250001,120.24721519947053L127.46227343749999,125.18193318843842L127.6076953125,125.66193809509278L127.7531171875,118.60384247303008L127.825828125,123.39204175472258L128.0439609375,121.4066077709198L128.116671875,121.15055029392244L128.18938281249999,129.56135498285295L128.407515625,122.56141741275786L128.989203125,116.60422925949098L129.3527578125,125.31558719873428L129.4981796875,123.98780361413955L129.9344453125,124.58392206430435L130.2252890625,121.62353521585464L130.298,124.48110365867615L130.3707109375,127.24325559139251L130.443421875,127.60412542819978L130.87968750000002,125.04705959558487L131.0978203125,120.80068624019623L131.60679687500001,123.60900717973709L131.75221875,127.18605970144273L131.97035156249999,126.85796456336976L132.0430625,123.19208718538283L132.2611953125,127.55635492801667L132.69746093749998,122.1408471107483L132.8428828125,119.59494109153746L133.061015625,126.57135844230652L133.2791484375,127.22129888534545L133.351859375,120.08589481115342L133.4245703125,129.68176871538162L133.49728125000001,118.6413456916809L133.5699921875,130.19766901731492L134.0062578125,101.21157395839691L134.4425234375,126.04776295423508L134.8787890625,119.18627965450287L135.3150546875,111.19217762947082L135.678609375,116.94178776741029L135.969453125,122.66746201515198L136.4784296875,126.81031433343887L136.6238515625,122.57590681314468L136.84198437499998,127.10987588167191L136.98740625,126.98029839992523L137.0601171875,123.59060583114623L137.27824999999999,124.81175401210785L137.3509609375,130.4632447242737L137.4963828125,122.41866295337678L137.56909374999998,126.03814766407012L137.7872265625,128.83780492544173L139.0233125,128.58216522932054L139.0960234375,122.19692680835723L139.16873437499999,122.52087156772615L139.5322890625,124.86950483322144L139.750421875,130.29734773635863L140.041265625,130.1085213303566L140.1139765625,128.18885407447814L140.1866875,126.53661299943923L140.47753125,129.34553740024566L140.5502421875,129.23317544460298L140.622953125,124.76815710067748L140.768375,128.21114416122435L140.913796875,127.52213487625122L141.05921874999999,124.57628173828124L141.204640625,127.61328706741332L141.78632812499998,125.49405348300934L142.1498828125,132.03863310813904L142.22259375,120.14307593107225L142.8769921875,131.4503807544708L142.94970312499998,130.9392638325691L143.74952343750002,129.67401866912843L144.3312109375,123.64569382667543L144.403921875,126.168381357193L144.6220546875,134.19251929521562L144.7674765625,122.50527863502504L144.8401875,129.46832066774368L145.421875,131.81916310787201L145.4945859375,135.47843195199965L145.56729687499998,117.02044873237611L145.64000781250002,123.65803735256196L145.85814062499998,134.9441471815109L146.0035625,129.95190625190736L146.0762734375,125.45922785997391L146.148984375,119.32456090450287L146.73067187499998,130.0201648950577L147.0942265625,129.65753531455994L147.1669375,133.90261101722717L147.3850703125,128.3720362186432L147.894046875,130.7836699962616L148.03946875,133.60092680454255L148.766578125,131.16726458072662L149.13013281250002,131.05210897922515L149.20284375,127.57169677019118L149.34826562499998,132.54071921110153L149.42097656250002,132.0341493487358L149.8572421875,135.37257725000381L150.36621875,132.87936015129088L150.4389296875,133.9404096364975L151.093328125,129.89643423557283L151.384171875,130.77454211711884L151.52959375,137.83487961888312L151.8204375,133.26213183403016L152.4748359375,135.57784481048583L152.62025781250003,134.97706747055054L152.838390625,130.05537242889403L152.9838125,135.0619149684906L153.0565234375,133.60427960157395L153.420078125,134.22723730802537L153.6382109375,134.54012353420256L154.001765625,134.46023454666138L154.1471875,128.56671788692475L154.583453125,133.0630951166153L154.65616406249998,130.92873280048371L154.72887500000002,133.80826849937438L155.01971875,121.35094163417816L155.3832734375,130.5172418475151L155.60140625,131.66960810422898L155.74682812499998,136.47379277944566L155.9649609375,136.63147130012513L156.18309375,130.12272799015045L156.4739375,134.16796095371245L156.9829140625,136.97039498090743L157.05562500000002,136.60362346172332L157.1283359375,135.5497142314911L157.6373125,135.5327666759491L157.782734375,128.06934342384338L157.92815625,136.3028064608574L158.1462890625,132.96524999141693L158.21900000000002,134.26228448152543L158.655265625,133.04638810157775L158.72797656249998,131.8360684633255L159.3096640625,136.9726336956024L159.527796875,131.66772598028183L159.60050781249998,128.36361308097838L159.67321875000002,133.0784010887146L159.7459296875,127.82808129787446L159.89135156249998,131.54645347595215L160.109484375,120.29470084905626L160.6184609375,135.75575194358825L160.691171875,130.68556745052337L161.05472656249998,131.98819556236268L161.20014843750002,133.95369000434874L161.272859375,129.21202054023743L161.3455703125,139.0406785726547L161.99996875000002,136.5698929309845L162.29081250000002,131.97658631801605L162.436234375,135.73750673532487L162.5089453125,137.01670746803285L162.65436718750001,136.8164511680603L163.017921875,134.8062246322632L163.0906328125,139.88370974063872L163.2360546875,137.03103650808333L163.308765625,139.5257728099823L163.38147656249998,134.7715445995331L163.599609375,138.345605134964L163.74503124999998,135.41407259702683L163.890453125,139.63692573308944L164.54485156249999,136.6099893450737L164.762984375,138.41379836797714L165.4173828125,139.29923218488693L165.8536484375,140.97927256822587L165.926359375,140.50422722697257L166.36262499999998,137.81686440110207L166.4353359375,140.62877656817437L166.508046875,140.49901024103164L167.089734375,140.6986525297165L167.52599999999998,138.5385882496834L167.59871093750002,138.39914122223854L168.1803984375,139.27825241088868L168.253109375,139.20658400058747L168.47124218750002,141.68831001520158L168.68937499999998,140.011433583498L168.98021874999998,142.5500105023384L169.12564062500002,141.25963518619537L169.416484375,140.64252430200577L169.85275,136.1619130253792L170.14359374999998,139.69430097341538L170.2163046875,141.63023108839988L170.4344375,136.69778240919112L170.79799218750003,138.4296065211296L171.08883593750002,141.3731291592121L171.2342578125,139.85052148103713L171.37967968750002,140.16812778711318L171.5251015625,142.7161965608597L172.034078125,139.92542663812637L172.1795,141.0501919269562L172.25221093750002,139.0925150513649L172.6884765625,141.28500376939775L172.7611875,139.9892964720726L172.83389843749998,142.78436341881752L172.9793203125,141.0660897552967L173.12474218749998,143.63258414268495L173.99727343749998,139.5444062590599L174.651671875,141.10363939404488L174.942515625,139.3635176897049L175.3060703125,140.7203011751175L175.37878125,142.93844860196114L175.74233593749997,140.01902010440827L175.815046875,142.94159989356996L175.8877578125,139.23365535736085L176.1786015625,142.9074726819992L176.25131249999998,133.9836394071579L176.68757812500002,142.39814715385438L176.978421875,144.75978754162787L177.05113281250001,142.8202619791031L177.12384375,142.12944125533105L177.269265625,142.67803080081939L177.3419765625,139.97545167803764L177.70553125,139.6337121963501L177.9236640625,140.3360609292984L178.06908593749998,141.33561433553695L178.28721875,143.05457164049147L178.5053515625,142.73694001436235L178.72348437500003,142.89470504522325L178.86890625,141.36019588708876L179.37788281250002,141.8699940562248L179.5233046875,141.90320341587068L179.6687265625,145.28752285838127L180.323125,143.51686094999314L180.39583593749998,143.42769216299058L180.46854687500002,141.31273344755172L180.54125781250002,140.6832220673561L181.55921093749998,143.72556148767472L181.8500546875,143.87678761482238L182.1408984375,143.4911568760872L182.21360937499998,144.7990673840046L182.4317421875,143.5245751261711L182.504453125,141.35291742682458L182.72258593749999,143.02951322793962L182.8680078125,143.57106696367265L183.01342968749998,144.87211046218872L183.37698437499998,142.2141463279724L183.5951171875,142.8734657406807L183.7405390625,144.63614655733107L183.958671875,142.86858319044114L184.17680468749998,144.06170840263366L184.3949375,137.39640065431595L184.54035937499998,134.48515580892564L184.7584921875,141.7026327252388L184.976625,143.29520498514177L185.0493359375,141.20820804834366L185.26746875,144.4039595603943L185.48560156250002,145.7676522552967L186.14000000000001,144.38814296722413L186.285421875,142.68912098407745L186.64897656250002,143.22133900523187L187.01253125,145.10753631591797L187.0852421875,141.95029871463777L187.15795312499998,144.2013305604458L187.30337500000002,144.61051633358002L187.3760859375,140.98550341129302L187.5215078125,142.24192875623703L187.6669296875,144.81032531261445L187.8850625,143.28721650838852L187.9577734375,144.58203127384186L188.2486171875,142.7519716858864L188.612171875,143.94011939764022L188.75759375,144.5605883538723L189.193859375,145.35576040148734L189.26657031250002,144.75093290805816L189.33928125,145.2067582190037L189.4119921875,145.42922548055648L189.48470312499998,145.47860591411592L189.7028359375,145.14060008525848L189.8482578125,145.45596134662628L190.1391015625,145.61619719266892L190.357234375,145.48705648183824L190.50265625,144.0629564702511L190.64807812499998,143.3908768057823L190.72078906250002,144.67022418379784L190.7935,144.063690751791L191.08434375000002,144.88595314621926L191.3751875,145.12582583427428L191.4478984375,144.83331486582756L191.520609375,142.92537395954133L191.81145312499999,145.4548673093319L191.8841640625,144.57448378801345L192.0295859375,142.99278438091278L192.10229687499998,145.91448640823364L192.24771875000002,144.1696182489395L192.3204296875,146.23381447792053L192.393140625,145.30249017477036L192.5385625,146.274051207304L192.6112734375,145.2401838541031L192.75669531249997,145.46608936786652L192.974828125,145.6850487470627L193.12025,146.55609971880912L193.1929609375,146.33035034537315L193.62922656249998,144.6094697713852L193.7019375,143.61601638793945L193.7746484375,146.90415127873422L194.0654921875,146.46248304247857L194.2109140625,146.4773701786995L194.3563359375,146.3367404937744L194.6471796875,146.74637464284896L195.3742890625,144.9897685289383L195.5197109375,145.4134088873863L195.6651328125,140.74171983003617L195.73784375000002,145.364743745327L196.02868750000002,143.89834975004197L196.174109375,145.02598464488983L196.24682031249998,147.18159998059272L196.31953125,142.2672561943531L196.5376640625,146.01534250974655L196.8285078125,146.2722756385803L196.90121875000003,144.99898924827576L197.1193515625,147.22765557467937L197.337484375,144.98416330218316L198.06459375000003,139.3925545156002L198.1373046875,144.2544256567955L198.35543750000002,146.688616964221L198.4281484375,141.71363639831543L198.57357031249998,143.70490348935127L198.791703125,143.41385053396226L198.937125,146.1573584675789L199.00983593750001,143.84924572706223L199.1552578125,145.2266713857651L199.22796875,144.82205271720886L199.3006796875,143.909673088789L199.373390625,145.13862195611L199.51881250000002,145.72226184010506L199.664234375,146.34866887629033L199.73694531249998,146.41097044944763L200.0277890625,146.7288742661476L200.10049999999998,145.2620434999466L200.245921875,146.87910605371L200.4640546875,146.3032051384449L200.827609375,146.52630118131637L201.700140625,146.91548622250556L201.990984375,148.25966717898845L202.2091171875,147.4613702148199L202.572671875,147.74724469184875L202.71809374999998,148.01122470796108L202.9362265625,146.66282585263252L203.3724921875,146.79065783321857L203.445203125,147.83471492528915L203.590625,147.7972934693098L203.8087578125,147.95764958560466L204.026890625,146.11922857761382L204.0996015625,145.5409301698208L204.17231249999998,148.22794378995894L204.82671093750002,147.7457064986229L204.899421875,147.05812093913556L204.9721328125,147.38768411278724L205.04484374999998,147.36761269569396L205.190265625,147.38959788680077L205.33568749999998,148.45032559633256L205.5538203125,147.67287336587907L205.917375,148.27397142648698L206.062796875,148.79305045008658L206.1355078125,148.50970375835897L206.20821875,148.16452180445194L206.28092968750002,148.8038431227207L206.8626171875,147.73846812844278L207.517015625,146.74043287038802L207.8805703125,147.94376575648784L208.4622578125,148.20717343389987L208.53496875,148.44666895866393L208.7531015625,148.20635949969292L209.0439453125,148.8576007604599L209.552921875,148.12515175938606L209.7710546875,148.71656278967856L209.98918749999999,149.12391760647296L210.0618984375,148.74674745798112L210.134609375,147.55858181118964L210.28003124999998,148.15407886505128L210.86171875,149.0318829059601L211.007140625,148.9238707244396L211.1525625,147.93461044728755L211.297984375,146.76539158523082L212.02509375,148.15365053415297L212.60678124999998,148.6270964920521L212.6794921875,149.42622690796853L212.75220312500002,149.43548507988453L213.04304687500002,149.4116610199213L213.4793125,149.16059792339803L214.061,147.55958511829377L214.497265625,149.10908796787263L214.56997656250002,148.25776923000814L214.6426875,149.21169431805612L214.7153984375,149.06736263036728L214.8608203125,149.72676538825036L215.0062421875,148.40673923492432L215.224375,149.7463715493679L215.660640625,149.28220855593682L215.8060625,149.6836157977581L216.3150390625,148.29394261837007L216.6058828125,149.84612517356874L216.75130468749998,149.7165930569172L217.0421484375,149.74318227767944L217.114859375,148.87646420001983L217.26028125,149.9971413552761L217.6238359375,149.53945818543434L217.84196875,149.471333527565L217.98739062500002,150.03644388020038L218.2055234375,149.62587236166002L218.27823437499998,150.11579323410987L218.35094531250002,148.925302362442L219.07805468749999,150.28796906769276L219.150765625,149.3292532145977L219.2961875,149.40182681679727L219.36889843749998,148.57769654095173L219.44160937499998,149.15902016758918L219.51432031250002,149.2054951250553L219.73245312499998,150.08387150466442L219.8051640625,149.77790767550468L219.9505859375,149.05454066097735L220.16871875,150.1253568291664L220.314140625,150.14527421593667L220.4595625,150.25849177837372L220.604984375,149.47436982393265L221.2593828125,149.76255317330362L221.5502265625,150.01093339920044L221.69564843749998,149.3867355376482L221.84107031250002,150.21490014195442L221.9864921875,148.09896291196347L222.204625,149.23465433120728L222.4227578125,149.7665199816227L222.85902343749999,150.0989459037781L222.931734375,150.0504105269909L223.22257812499998,150.03590952157975L223.4407109375,150.7062969624996L223.65884375000002,149.90302988290787L223.804265625,150.27280604839325L223.8769765625,149.58905911445618L224.16782031250003,149.57117999196052L224.45866406250002,150.29281258285044L224.67679687499998,150.49916705936192L224.7495078125,150.9196300148964L224.82221875000002,150.87134810239075L224.8949296875,150.16937152147293L225.1130625,149.68375453054904L225.40390625,149.9778443098068L225.84017187499998,149.74360427856445L225.91288281250002,150.22966911792756L226.131015625,150.6398766607046L226.4945703125,151.0454701513052L226.712703125,150.78395620286466L226.78541406250002,150.7139903023839L226.9308359375,151.09721405357124L227.07625781250002,150.63681662678718L227.2216796875,150.39560619592666L227.294390625,150.88840432316064L227.5125234375,150.76845109909772L227.585234375,149.61030896902085L227.73065625,150.04173629879952L227.9487890625,150.53753168731927L228.0215,149.97832011580468L228.16692187499999,149.97797196507454L228.60318750000002,150.5870719537139L228.82132031249998,151.07988274097443L229.039453125,150.74775802195072L229.11216406249997,150.67436310052872L229.4030078125,150.7984672307968L229.8392734375,150.9899372085929L230.78451562499998,150.76817284226416L231.075359375,150.8014238744974L231.22078125000002,151.5532606512308L231.58433593750001,151.21533711254597L231.80246875,151.3571302011609L231.94789062499999,150.97675284594297L232.238734375,150.90568103939296L232.60228906249998,150.8333730340004L232.8931328125,151.0326189056039L233.1839765625,151.03929100334645L233.402109375,151.22348225712776L234.0565078125,151.3654947862029L234.4927734375,150.8698892980814L235.2198828125,150.85418638139964L235.29259375,151.1456352263689L235.36530468750001,151.5559556543827L235.5834375,151.16097548604012L235.6561484375,151.37197038978337L236.019703125,151.3931490316987L236.16512500000002,149.97810858786107L236.45596874999998,151.4306978791952L236.52867968750002,150.90021586418152L236.601390625,150.94999350607395L236.6741015625,149.90238211154937L236.74681249999998,151.21746663451194L236.8195234375,150.32869057059287L236.892234375,151.22702152580024L237.473921875,151.19536170065402L238.1283203125,151.36086332648992L239.1462734375,151.02001162916423L239.218984375,151.64016856849193L239.2916953125,151.0706636041403L239.800671875,151.41997483670713L240.1642265625,151.52208902835847L240.382359375,150.67598094642162L240.52778124999998,150.98499821573495L240.6004921875,151.5621295273304L240.67320312500001,151.86031772643327L240.7459140625,151.7518199801445L241.03675781249999,150.95593817979096L241.6184453125,151.68681470006703L241.69115624999998,151.84407728612422L241.9092890625,151.6427775889635L242.0547109375,151.20429466813803L242.127421875,151.75839000642299L242.27284375,151.56924789100884L243.145375,151.40090962797404L243.290796875,151.29205212593078L243.50892968750003,151.03838660269975L243.6543515625,151.62970874905585L244.01790624999998,151.92698463499545L244.2360390625,151.45693842172622L244.45417187500001,151.63134083747863L245.1085703125,151.64362264573575L245.18128124999998,151.81332502663136L245.61754687500002,151.79790537804365L245.76296875,151.95653814822435L245.83567968749998,151.14402054548265L246.2719453125,151.90385529398918L246.490078125,151.92282265126704L246.5627890625,151.47464030385018L246.92634375,151.51947842538357L247.071765625,151.28055655807256L247.2171875,151.9159762144089L247.4353203125,152.14139352589845L247.50803125,151.68270203769208L247.5807421875,151.90659117847682L248.08971875,151.9892207980156L248.45327343749997,152.1417788654566L248.5986953125,151.64026589244605L248.67140625,151.94636924564838L248.7441171875,151.78966871201993L249.0349609375,151.47985939979554L249.5439375,151.29372272193433L249.83478125,151.27899673730136L250.0529140625,151.61857320070266L250.12562499999999,151.95214775651692L250.27104687500002,151.65488505810498L250.78002343749998,151.73999076783656L250.852734375,151.63990165293217L251.2162890625,151.3369830876589L252.08882031250002,151.47975310832263L252.452375,151.87493900209665L252.59779687500003,151.48889654874802L252.6705078125,151.75794796049595L252.88864062500002,151.9090047597885L252.9613515625,152.22175198942423L253.61575,151.27404508441685L254.05201562500002,152.00994051396847L254.34285937500002,151.9253644153476L254.70641406250002,152.143920519948L254.8518359375,151.91975285857916L254.9972578125,152.25164679586888L255.1426796875,152.22060388326645L255.2881015625,151.84681870937348L255.506234375,152.098146083951L255.5789453125,152.21938377320765L255.65165625,151.78052131533622L255.86978906250002,152.1512812703848L255.9425,151.58994334191084L256.0152109375,151.74889419525863L256.087921875,151.76337963938713L256.30605468749997,151.47414524406196L256.37876562499997,152.1669586032629L256.45147656250003,151.4275769189L256.669609375,151.66412344872953L256.7423203125,151.7130708038807L256.8877421875,152.11792816668748L256.96045312499996,152.26329797655345L257.251296875,152.15476752519606L257.39671875,151.70765758752822L257.4694296875,152.13757520914078L257.542140625,152.14923034608364L257.83298437499997,151.40273056179285L257.97840625,151.6588911652565L258.123828125,152.30770539343357L258.3419609375,151.77764696180822L258.996359375,152.23794205337762L259.2144921875,151.72448882907628L259.3599140625,151.8027238368988L259.5053359375,152.19671678692103L259.6507578125,152.36337522268295L259.7961796875,151.96543735563756L260.0143125,152.18424481451513L260.450578125,152.26379989385606L260.741421875,152.2321983575821L260.88684375,152.41267521232368L261.10497656250004,152.4111713066697L261.3958203125,152.23029381483792L261.68666406250003,152.37092956602572L261.9775078125,152.13439516872168L262.2683515625,152.5020478785038L262.7046171875,151.80578598082064L262.92275,152.49574371278285L263.21359375000003,152.28985792100428L263.359015625,152.42796957939862L263.649859375,152.3706056803465L263.7225703125,152.29004228264094L264.231546875,152.22954186201096L264.4496796875,152.38713466376066L264.522390625,151.9295224428177L264.8859453125,152.34887949228286L264.95865625,152.2931284278631L265.0313671875,152.33123669028282L265.1767890625,152.28972578197718L265.39492187499997,152.2031124740839L265.7584765625,152.03575457185508L265.976609375,152.2760943621397L266.04932031249996,152.411984449625L266.1947421875,152.04417348951102L266.6310078125,152.34319144785405L267.3581171875,152.18778408318758L267.86709375000004,152.38180030882359L268.0852265625,152.4194836691022L268.1579375,152.53412996828555L268.594203125,152.2398302435875L268.6669140625,152.31619051247836L268.739625,152.30283154696227L268.8123359375,152.29141299426556L268.885046875,152.28093919605016L268.9577578125,152.4114582672715" style="fill: none;" fill="none"></path></g></g></g></g></g></g><g transform="translate(39, 177)" clip-path="url(#clip_1)"><clipPath id="clip_1"><rect width="290" height="23"></rect></clipPath><g><g><line x1="0" y1="0" x2="0" y2="5" style="visibility: inherit;" fill="rgb(0, 0, 0)" stroke="rgb(204, 204, 204)" stroke-width="1px"></line><line x1="36.35546875" y1="0" x2="36.35546875" y2="5" style="visibility: inherit;" fill="rgb(0, 0, 0)" stroke="rgb(204, 204, 204)" stroke-width="1px"></line><line x1="72.7109375" y1="0" x2="72.7109375" y2="5" style="visibility: inherit;" fill="rgb(0, 0, 0)" stroke="rgb(204, 204, 204)" stroke-width="1px"></line><line x1="109.06640625" y1="0" x2="109.06640625" y2="5" style="visibility: inherit;" fill="rgb(0, 0, 0)" stroke="rgb(204, 204, 204)" stroke-width="1px"></line><line x1="145.421875" y1="0" x2="145.421875" y2="5" style="visibility: inherit;" fill="rgb(0, 0, 0)" stroke="rgb(204, 204, 204)" stroke-width="1px"></line><line x1="181.77734375" y1="0" x2="181.77734375" y2="5" style="visibility: inherit;" fill="rgb(0, 0, 0)" stroke="rgb(204, 204, 204)" stroke-width="1px"></line><line x1="218.1328125" y1="0" x2="218.1328125" y2="5" style="visibility: inherit;" fill="rgb(0, 0, 0)" stroke="rgb(204, 204, 204)" stroke-width="1px"></line><line x1="254.48828125" y1="0" x2="254.48828125" y2="5" style="visibility: inherit;" fill="rgb(0, 0, 0)" stroke="rgb(204, 204, 204)" stroke-width="1px"></line><line x1="290.84375" y1="0" x2="290.84375" y2="5" style="visibility: inherit;" fill="rgb(0, 0, 0)" stroke="rgb(204, 204, 204)" stroke-width="1px"></line></g><g transform="translate(0, 8)"><text x="0" y="0" dx="0em" dy="0.95em" style="text-anchor: middle; visibility: hidden; font-family: &quot;Helvetica Neue&quot;, sans-serif; font-size: 12px; font-weight: 200;" fill="rgb(50, 49, 63)" stroke="none" stroke-width="1px">-500</text><text x="36.35546875" y="0" dx="0em" dy="0.95em" style="text-anchor: middle; visibility: inherit; font-family: &quot;Helvetica Neue&quot;, sans-serif; font-size: 12px; font-weight: 200;" fill="rgb(50, 49, 63)" stroke="none" stroke-width="1px">0</text><text x="72.7109375" y="0" dx="0em" dy="0.95em" style="text-anchor: middle; visibility: inherit; font-family: &quot;Helvetica Neue&quot;, sans-serif; font-size: 12px; font-weight: 200;" fill="rgb(50, 49, 63)" stroke="none" stroke-width="1px">500</text><text x="109.06640625" y="0" dx="0em" dy="0.95em" style="text-anchor: middle; visibility: inherit; font-family: &quot;Helvetica Neue&quot;, sans-serif; font-size: 12px; font-weight: 200;" fill="rgb(50, 49, 63)" stroke="none" stroke-width="1px">1k</text><text x="145.421875" y="0" dx="0em" dy="0.95em" style="text-anchor: middle; visibility: inherit; font-family: &quot;Helvetica Neue&quot;, sans-serif; font-size: 12px; font-weight: 200;" fill="rgb(50, 49, 63)" stroke="none" stroke-width="1px">1.5k</text><text x="181.77734375" y="0" dx="0em" dy="0.95em" style="text-anchor: middle; visibility: inherit; font-family: &quot;Helvetica Neue&quot;, sans-serif; font-size: 12px; font-weight: 200;" fill="rgb(50, 49, 63)" stroke="none" stroke-width="1px">2k</text><text x="218.1328125" y="0" dx="0em" dy="0.95em" style="text-anchor: middle; visibility: inherit; font-family: &quot;Helvetica Neue&quot;, sans-serif; font-size: 12px; font-weight: 200;" fill="rgb(50, 49, 63)" stroke="none" stroke-width="1px">2.5k</text><text x="254.48828125" y="0" dx="0em" dy="0.95em" style="text-anchor: middle; visibility: inherit; font-family: &quot;Helvetica Neue&quot;, sans-serif; font-size: 12px; font-weight: 200;" fill="rgb(50, 49, 63)" stroke="none" stroke-width="1px">3k</text><text x="290.84375" y="0" dx="0em" dy="0.95em" style="text-anchor: middle; visibility: hidden; font-family: &quot;Helvetica Neue&quot;, sans-serif; font-size: 12px; font-weight: 200;" fill="rgb(50, 49, 63)" stroke="none" stroke-width="1px">3.5k</text></g><line x1="0" y1="0" x2="290.84375" y2="0" fill="rgb(0, 0, 0)" stroke="rgb(204, 204, 204)" stroke-width="1px"></line></g></g></g></g></svg>