<svg viewBox="0 0 330 200" xmlns="http://www.w3.org/2000/svg"><g><g><g><g><g><line x1="68.3125" y1="177" x2="63.3125" y2="177" style="visibility: inherit;" fill="rgb(0, 0, 0)" stroke="rgb(204, 204, 204)" stroke-width="1px"></line><line x1="68.3125" y1="157.33333333333334" x2="63.3125" y2="157.33333333333334" style="visibility: inherit;" fill="rgb(0, 0, 0)" stroke="rgb(204, 204, 204)" stroke-width="1px"></line><line x1="68.3125" y1="137.66666666666669" x2="63.3125" y2="137.66666666666669" style="visibility: inherit;" fill="rgb(0, 0, 0)" stroke="rgb(204, 204, 204)" stroke-width="1px"></line><line x1="68.3125" y1="118" x2="63.3125" y2="118" style="visibility: inherit;" fill="rgb(0, 0, 0)" stroke="rgb(204, 204, 204)" stroke-width="1px"></line><line x1="68.3125" y1="98.33333333333334" x2="63.3125" y2="98.33333333333334" style="visibility: inherit;" fill="rgb(0, 0, 0)" stroke="rgb(204, 204, 204)" stroke-width="1px"></line><line x1="68.3125" y1="78.66666666666666" x2="63.3125" y2="78.66666666666666" style="visibility: inherit;" fill="rgb(0, 0, 0)" stroke="rgb(204, 204, 204)" stroke-width="1px"></line><line x1="68.3125" y1="59" x2="63.3125" y2="59" style="visibility: inherit;" fill="rgb(0, 0, 0)" stroke="rgb(204, 204, 204)" stroke-width="1px"></line><line x1="68.3125" y1="39.33333333333334" x2="63.3125" y2="39.33333333333334" style="visibility: inherit;" fill="rgb(0, 0, 0)" stroke="rgb(204, 204, 204)" stroke-width="1px"></line><line x1="68.3125" y1="19.666666666666686" x2="63.3125" y2="19.666666666666686" style="visibility: inherit;" fill="rgb(0, 0, 0)" stroke="rgb(204, 204, 204)" stroke-width="1px"></line><line x1="68.3125" y1="0" x2="63.3125" y2="0" style="visibility: inherit;" fill="rgb(0, 0, 0)" stroke="rgb(204, 204, 204)" stroke-width="1px"></line></g><g transform="translate(58.3125, 0)"><text x="0" y="177" dx="0em" dy="0.3em" style="text-anchor: end; visibility: hidden; font-family: &quot;Helvetica Neue&quot;, sans-serif; font-size: 12px; font-weight: 200;" fill="rgb(50, 49, 63)" stroke="none" stroke-width="1px">-2e+3</text><text x="0" y="157.33333333333334" dx="0em" dy="0.3em" style="text-anchor: end; visibility: inherit; font-family: &quot;Helvetica Neue&quot;, sans-serif; font-size: 12px; font-weight: 200;" fill="rgb(50, 49, 63)" stroke="none" stroke-width="1px">0</text><text x="0" y="137.66666666666669" dx="0em" dy="0.3em" style="text-anchor: end; visibility: hidden; font-family: &quot;Helvetica Neue&quot;, sans-serif; font-size: 12px; font-weight: 200;" fill="rgb(50, 49, 63)" stroke="none" stroke-width="1px">2e+3</text><text x="0" y="118" dx="0em" dy="0.3em" style="text-anchor: end; visibility: inherit; font-family: &quot;Helvetica Neue&quot;, sans-serif; font-size: 12px; font-weight: 200;" fill="rgb(50, 49, 63)" stroke="none" stroke-width="1px">4e+3</text><text x="0" y="98.33333333333334" dx="0em" dy="0.3em" style="text-anchor: end; visibility: hidden; font-family: &quot;Helvetica Neue&quot;, sans-serif; font-size: 12px; font-weight: 200;" fill="rgb(50, 49, 63)" stroke="none" stroke-width="1px">6e+3</text><text x="0" y="78.66666666666666" dx="0em" dy="0.3em" style="text-anchor: end; visibility: inherit; font-family: &quot;Helvetica Neue&quot;, sans-serif; font-size: 12px; font-weight: 200;" fill="rgb(50, 49, 63)" stroke="none" stroke-width="1px">8e+3</text><text x="0" y="59" dx="0em" dy="0.3em" style="text-anchor: end; visibility: hidden; font-family: &quot;Helvetica Neue&quot;, sans-serif; font-size: 12px; font-weight: 200;" fill="rgb(50, 49, 63)" stroke="none" stroke-width="1px">1e+4</text><text x="0" y="39.33333333333334" dx="0em" dy="0.3em" style="text-anchor: end; visibility: inherit; font-family: &quot;Helvetica Neue&quot;, sans-serif; font-size: 12px; font-weight: 200;" fill="rgb(50, 49, 63)" stroke="none" stroke-width="1px">1.2e+4</text><text x="0" y="19.666666666666686" dx="0em" dy="0.3em" style="text-anchor: end; visibility: hidden; font-family: &quot;Helvetica Neue&quot;, sans-serif; font-size: 12px; font-weight: 200;" fill="rgb(50, 49, 63)" stroke="none" stroke-width="1px">1.4e+4</text><text x="0" y="0" dx="0em" dy="0.3em" style="text-anchor: end; visibility: hidden; font-family: &quot;Helvetica Neue&quot;, sans-serif; font-size: 12px; font-weight: 200;" fill="rgb(50, 49, 63)" stroke="none" stroke-width="1px">1.6e+4</text></g><line x1="68.3125" y1="0" x2="68.3125" y2="177" fill="rgb(0, 0, 0)" stroke="rgb(204, 204, 204)" stroke-width="1px"></line></g></g><g transform="translate(68, 0)" clip-path="url(#clip_0)"><clipPath id="clip_0"><rect width="261" height="177"></rect></clipPath><g><g><g><line x1="0" y1="0" x2="0" y2="177" fill="rgb(0, 0, 0)" stroke="rgb(60, 60, 60)" stroke-width="1px" opacity="0.25"></line><line x1="32.7109375" y1="0" x2="32.7109375" y2="177" fill="rgb(0, 0, 0)" stroke="rgb(60, 60, 60)" stroke-width="1px" opacity="0.25"></line><line x1="65.421875" y1="0" x2="65.421875" y2="177" fill="rgb(0, 0, 0)" stroke="rgb(60, 60, 60)" stroke-width="1px" opacity="0.25"></line><line x1="98.1328125" y1="0" x2="98.1328125" y2="177" fill="rgb(0, 0, 0)" stroke="rgb(60, 60, 60)" stroke-width="1px" opacity="0.25"></line><line x1="130.84375" y1="0" x2="130.84375" y2="177" fill="rgb(0, 0, 0)" stroke="rgb(60, 60, 60)" stroke-width="1px" opacity="0.25"></line><line x1="163.5546875" y1="0" x2="163.5546875" y2="177" fill="rgb(0, 0, 0)" stroke="rgb(60, 60, 60)" stroke-width="1px" opacity="0.25"></line><line x1="196.265625" y1="0" x2="196.265625" y2="177" fill="rgb(0, 0, 0)" stroke="rgb(60, 60, 60)" stroke-width="1px" opacity="0.25"></line><line x1="228.9765625" y1="0" x2="228.9765625" y2="177" fill="rgb(0, 0, 0)" stroke="rgb(60, 60, 60)" stroke-width="1px" opacity="0.25"></line><line x1="261.6875" y1="0" x2="261.6875" y2="177" fill="rgb(0, 0, 0)" stroke="rgb(60, 60, 60)" stroke-width="1px" opacity="0.25"></line></g><g><line x1="0" y1="177" x2="261.6875" y2="177" fill="rgb(0, 0, 0)" stroke="rgb(60, 60, 60)" stroke-width="1px" opacity="0.25"></line><line x1="0" y1="157.33333333333334" x2="261.6875" y2="157.33333333333334" fill="rgb(0, 0, 0)" stroke="rgb(60, 60, 60)" stroke-width="1px" opacity="0.25"></line><line x1="0" y1="137.66666666666669" x2="261.6875" y2="137.66666666666669" fill="rgb(0, 0, 0)" stroke="rgb(60, 60, 60)" stroke-width="1px" opacity="0.25"></line><line x1="0" y1="118" x2="261.6875" y2="118" fill="rgb(0, 0, 0)" stroke="rgb(60, 60, 60)" stroke-width="1px" opacity="0.25"></line><line x1="0" y1="98.33333333333334" x2="261.6875" y2="98.33333333333334" fill="rgb(0, 0, 0)" stroke="rgb(60, 60, 60)" stroke-width="1px" opacity="0.25"></line><line x1="0" y1="78.66666666666666" x2="261.6875" y2="78.66666666666666" fill="rgb(0, 0, 0)" stroke="rgb(60, 60, 60)" stroke-width="1px" opacity="0.25"></line><line x1="0" y1="59" x2="261.6875" y2="59" fill="rgb(0, 0, 0)" stroke="rgb(60, 60, 60)" stroke-width="1px" opacity="0.25"></line><line x1="0" y1="39.33333333333334" x2="261.6875" y2="39.33333333333334" fill="rgb(0, 0, 0)" stroke="rgb(60, 60, 60)" stroke-width="1px" opacity="0.25"></line><line x1="0" y1="19.666666666666686" x2="261.6875" y2="19.666666666666686" fill="rgb(0, 0, 0)" stroke="rgb(60, 60, 60)" stroke-width="1px" opacity="0.25"></line><line x1="0" y1="0" x2="261.6875" y2="0" fill="rgb(0, 0, 0)" stroke="rgb(60, 60, 60)" stroke-width="1px" opacity="0.25"></line></g></g></g><g><g><line x1="0" y1="157.33333333333334" x2="261.6875" y2="157.33333333333334" fill="rgb(0, 0, 0)" stroke="rgb(153, 153, 153)" stroke-width="1.5px"></line></g></g><g><g><line x1="32.7109375" y1="0" x2="32.7109375" y2="177" fill="rgb(0, 0, 0)" stroke="rgb(153, 153, 153)" stroke-width="1.5px"></line></g></g><g><g><g><g><g><path stroke="rgb(255, 112, 67)" stroke-width="2px" d="M35.066125,-2.298975768234442L35.3278125,0.7825244806772957L35.458656250000004,2.7192027564913133L35.5895,3.7370629330748955L35.654921875,5.000251428676222L35.785765625,5.196893435283243L36.178296875,6.800280126142212L36.243718750000006,5.832040857795164L36.309140625000005,6.3440249454777415L36.3745625,5.528116886443485L36.963359374999996,7.040219759580765L37.159625,7.152079565918598L37.355890624999994,7.737429583506952L37.4213125,9.008719592399103L37.486734375,8.073184464855416L37.552156249999996,8.800053316907736L37.879265624999995,10.343742673030278L38.402640625,11.839259367490513L38.86059375,12.000256773986365L39.38396875,12.413074118251785L39.580234374999996,13.275816775965723L39.64565625,14.061416195153697L40.103609375,14.436066744037959L40.43071875,14.188153822265178L40.95409375,14.334540633013034L41.150359375,15.750364541567222L41.21578125,16.385657252063623L41.804578125,16.132179495384094L41.935421875,18.001695641419303L42.00084375,17.686935803919823L42.066265625,18.213358883614973L42.52421875,18.588566113740995L42.851328125,18.44505184219088L42.982171875,20.004728309310167L43.047593750000004,18.97590716650248L43.309281250000005,18.779819169535898L43.636390625000004,19.46165478329965L43.7018125,20.000333364926973L43.898078125000005,21.070128664974845L44.290609375,22.445057798086168L44.35603125,22.681759158033145L44.486875000000005,23.404964544326134L44.683140625,23.557727424515747L44.813984375000004,23.235186715121756L44.87940625,23.340810726990583L45.01025,23.214620746089594L45.141093749999996,23.37550213515422L45.206515624999994,23.094254275883713L45.66446875,23.344628346780468L46.18784375,24.90307831015261L46.253265625,25.90085499390446L46.318687499999996,25.06675056144664L46.580375,24.634848513951283L47.234593749999995,25.528992116183332L47.300015625,26.50796675408506L47.430859375,27.391039101930232L47.692546875,26.17742098719981L47.8888125,26.92452668086156L47.954234375,27.513018807996104L48.01965625,27.895295269172664L48.215921875,28.67212429692026L49.000984375,29.575002247422987L49.393515625,29.287782858870457L49.58978125,29.249107736155594L49.720625,30.062853769297504L49.786046875000004,28.744053537620147L49.916890625,29.5551457944471L50.178578125,31.101031682397434L50.440265625,31.66647760318847L50.571109375,32.29182217389226L50.898218750000005,32.80421543975203L51.814125000000004,32.37743942010124L52.141234375,33.04853806612323L52.20665625,33.524236641757284L52.46834375,33.49926815692936L52.533765625,35.46161675353261L52.795453125,36.22929088545291L52.860875,35.13228000002175L52.991718750000004,34.52415816928388L53.187984375,35.28040030521615L53.51509375,35.97081010500469L53.580515625,36.61466431821114L53.645937499999995,36.52827391644752L53.973046874999994,36.71913479257685L54.03846875,37.0652800942961L54.103890625,37.05247782220266L54.30015625,37.125483568321584L54.888953125,38.2046947633888L55.019796875,38.658170634074935L55.412328124999995,39.809102640861624L56.2628125,40.1807007772253L56.459078125,40.781163630397685L56.720765625,41.2211335949053L56.982453125,41.03728406319314L57.113296875,41.04139055510339L57.374984375,41.23038817420789L57.44040625,42.83868003994138L57.505828125,42.78796401354816L57.636671875,43.14856304354555L57.963781250000004,43.67623964904399L58.290890625,43.81436293005143L58.3563125,44.16736547938504L59.403062500000004,44.52778862356851L59.861015625,45.6459550751828L60.253546875000005,46.67505715969301L60.31896875,46.84219783748247L60.4498125,46.996534848322824L60.842343750000005,46.44523809649368L61.431140625,47.92151942039621L61.561984374999994,48.741781313696066L61.62740625,48.59235954342597L61.823671874999995,48.443445283347245L62.216203125,48.55054828980002L62.739578124999994,48.48449538013L62.805,49.85834000151549L63.001265624999995,50.29428004257596L63.0666875,49.69263872867059L63.655484375,50.06884664866068L63.72090625,50.28019015065473L64.440546875,51.449099116434496L64.6368125,52.32717945683986L64.702234375,52.41229204910391L64.833078125,52.612365333629015L64.963921875,52.227444590802406L65.87982812499999,52.743091819585615L66.2069375,52.27824727925136L66.33778125,53.44905813317581L66.53404687499999,55.56407224969715L66.992,55.03610051127663L67.05742187499999,54.797976452599315L67.449953125,55.40198209551792L67.58079687499999,55.659130403144076L67.64621875,56.04908520803228L67.7770625,56.655722218569366L67.842484375,56.788417510829134L68.03875000000001,56.563074595039154L68.16959375,56.917353741398486L68.496703125,56.9822483776516L68.56212500000001,57.57003496409098L69.150921875,58.534032957621235L69.28176562499999,58.72607394123942L69.543453125,59.699022554847815L69.608875,59.72530702249202L69.93598437499999,58.538276661411885L70.197671875,59.594287676534634L70.26309375000001,59.17860463717078L70.45935937499999,60.15597996980247L70.590203125,60.291884856881495L70.721046875,60.42663534121222L70.78646875000001,60.214217988581495L70.851890625,60.067319855648904L70.91731250000001,60.36518156182683L71.04815625,60.516200082929444L71.113578125,59.81288860444516L71.44068750000001,60.406404647042095L71.506109375,60.76169994968359L71.96406250000001,61.3615345531435L72.09490625000001,59.8000941693861L72.48743750000001,60.97633644954833L72.61828125000001,61.62157992962483L72.945390625,62.30514340048323L73.27250000000001,63.13280635278993L73.40334375,62.64003250959064L74.18840625,63.09291533908771L74.646359375,64.33259842220264L74.71178124999999,64.8812857460299L74.842625,64.36238466376378L74.908046875,64.49232637117493L74.97346875,64.66118827062162L75.03889062500001,65.33990261081048L75.169734375,66.01323427481962L75.366,65.52869173676675L75.6276875,65.73716152643506L75.954796875,65.95997751481937L76.1510625,65.37376339691247L76.41274999999999,65.73826266054331L76.609015625,66.1305397577843L76.6744375,66.88741838592058L76.80528125,67.32892355759402L76.870703125,68.49747926476475L77.001546875,67.6559124937547L77.06696875,66.71742614208615L77.132390625,66.18276265139752L77.32865625,66.72945661427602L77.39407812500001,66.25618692429478L77.59034375,67.31323442020187L77.7211875,68.24353459743362L77.786609375,68.5603486230435L78.2445625,69.1844519472636L78.44082812500001,68.98195847304567L78.702515625,68.53789448486907L78.89878125,70.04767490706728L79.029625,70.38322135049036L79.16046874999999,70.4390542946692L79.42215625,69.91211551950987L79.68384375,69.63735980649759L79.880109375,70.49541119639856L79.94553125,70.26194072825581L80.010953125,69.80104594737013L80.076375,69.66950465175543L80.46890625,69.85116320771992L80.8614375,70.00307930484027L80.99228125,70.20732766102917L81.057703125,71.30341508620084L81.31939062500001,72.01666044494966L81.51565625,72.79158988676147L81.581078125,72.65806246070272L81.77734375,73.3988103930883L81.842765625,73.29316481658215L81.9081875,73.39057167640763L82.03903125,74.37426331834459L82.169875,75.32309536079843L82.56240625,74.66722271127072L82.75867187499999,74.17082555384576L82.82409375,73.68668400418247L83.020359375,73.70648683480114L83.08578125,73.5134741321307L83.151203125,72.38855908865342L83.28204687499999,73.93168740631705L83.34746875,74.33550658441526L83.74,74.9605797970033L84.0016875,74.56141389382698L84.067109375,74.80453896129619L84.197953125,75.56200124136106L84.328796875,76.3250801067958L84.45964062499999,75.91841225678581L84.5250625,75.02766629938398L84.59048437499999,74.35825238379705L84.65590625,75.77090781048659L84.721328125,74.56818960816695L84.91759375000001,74.98846220240017L85.17928125,74.5862558370651L85.375546875,75.29015350223906L85.506390625,75.36181469248928L85.57181250000001,76.0997323050769L85.63723437499999,77.3634740184628L86.029765625,77.63581409857768L86.09518750000001,77.98094467659453L86.22603125,78.06238874606086L86.422296875,77.54311130753237L86.683984375,78.05471391993609L86.88025,78.21000016185748L87.076515625,77.7269961908645L87.14193750000001,78.28787701139369L87.27278125000001,78.61855543860706L87.403625,78.28939647931007L87.53446875,77.83127551779437L87.861578125,77.56380098775995L88.05784375,77.80581073588515L88.1886875,78.15323562772902L89.431703125,79.76972786752282L89.562546875,80.32064638848244L89.62796875000001,80.66276895288114L89.88965625,80.40686684047868L90.0205,80.86045708345387L90.28218749999999,80.4012532214265L90.41303124999999,79.9661236125434L90.543875,81.16014679122395L90.740140625,81.43200760598437L90.870984375,81.67019352843437L90.93640624999999,81.75176774466479L91.06724999999999,80.75725348534053L91.3289375,81.23486732557932L91.59062499999999,81.33705294743092L92.048578125,81.92662558356272L92.11399999999999,82.96392027201266L92.179421875,83.31192403820758L92.24484375,83.22413222240372L92.3756875,82.96194759516099L92.57195312500001,83.1465429711591L92.63737499999999,82.85719492332048L92.702796875,82.91554136805478L92.8990625,83.76729591458286L92.964484375,84.26737256828098L93.02990625,83.40894626232274L93.09532812500001,83.61641000999782L93.61870312500001,84.44509512709244L93.684125,84.40684086531797L93.880390625,83.38084029393036L94.33834374999999,83.60393109693113L94.534609375,83.47957415295035L95.057984375,84.49684986286397L95.12340625,84.97603439688504L95.25425,84.5529984376102L95.31967187500001,84.8788057682953L95.38509375,85.07602252347715L95.581359375,85.07628727710713L95.64678125,85.34542044569137L95.777625,85.43493840022732L95.90846875,85.5595644073239L96.235578125,86.01993343606101L96.301,86.5111745147616L96.5626875,87.41571066588821L96.62810937500001,87.68428209614751L96.69353124999999,87.46622895820934L96.758953125,86.89892383325893L96.95521875,86.31742819318453L97.02064062500001,86.65964897320238L97.0860625,87.0053714802756L97.282328125,87.2015446655091L97.34775,88.1046476651909L97.871125,87.07298791552078L98.1328125,87.68381364774999L98.26365625,87.49164515479582L98.3945,87.87057469053373L98.45992187499999,88.4750503481744L98.6561875,88.48347070369631L98.917875,88.71130169305113L98.983296875,88.47619081400775L99.04871875,88.39517868111298L99.24498437499999,88.77392960450112L99.76835937499999,88.45029454655484L99.899203125,89.19421543236L100.160890625,89.91867268389517L100.2263125,89.65181936554542L100.422578125,89.58039559068142L100.553421875,89.59369503670052L100.684265625,90.25256454806197L101.011375,90.84808485513928L101.46932812499999,89.89800735839606L101.53475,90.20038494889181L101.731015625,91.1266557740226L101.861859375,90.94075446701773L102.254390625,91.22466348750231L102.3198125,91.69308565760555L102.45065625000001,91.82223316539667L102.5815,91.78880858413385L102.8431875,91.76434035881364L103.104875,91.31765343403818L103.23571875,91.33361719063124L103.562828125,91.72614039901417L103.62825000000001,91.925722325346L103.69367187499999,91.56431226890551L104.15162500000001,92.64135044728081L104.217046875,91.21029321107683L104.609578125,92.80397312716691L104.87126562499999,92.97473205338349L104.9366875,93.49299912786343L105.002109375,93.32088150796805L105.59090625,93.34646409358291L105.72175,92.99089531812892L105.918015625,93.27294855155444L106.310546875,93.52857170254724L106.37596875,93.77005955798668L106.63765624999999,94.21260266187534L106.833921875,94.11311211795854L106.964765625,94.35779402858762L107.880671875,94.99418217887134L108.0769375,95.49210409898944L108.273203125,95.65175783699785L108.338625,96.43264148605287L108.404046875,96.33196955960047L108.6003125,95.94462151440612L108.665734375,96.47497398286242L108.73115625,96.10071713711328L109.90875,95.87553308174715L110.03959375,97.06312121623579L110.10501562500001,97.57519701359564L110.235859375,97.52956794774072L110.30128125,97.61909578166527L110.69381249999999,97.27901821118665L110.759234375,98.15359998921198L110.890078125,98.17557763675637L111.020921875,98.68079003908507L111.15176562500001,97.19588330079479L111.282609375,96.98682138672687L111.478875,97.35650217448405L111.60971875,97.31989948177376L111.7405625,97.74665668125176L111.87140624999999,98.51949492020938L112.00225,98.63456010316729L112.13309375,99.06436731190038L112.7873125,99.21653946266106L113.04899999999999,98.77301313072164L113.3106875,98.65599140707882L113.37610937500001,99.95105412159104L113.44153125,98.79868803936087L113.572375,99.60411490694985L113.768640625,100.041467414222L113.96490625,99.15381296806446L114.09575,99.32424409594284L114.292015625,100.28714222579488L114.684546875,100.28709978860194L114.81539062499999,100.76408894217157L114.94623437499999,99.91314962181335L115.01165625,99.64432278090052L115.207921875,100.19581658520698L115.27334375,101.00785095372835L115.338765625,100.95254429619534L115.53503125,101.13728578995679L116.05840625,101.648193707047L116.385515625,102.02256348985318L116.516359375,101.61507487776608L116.908890625,101.89517083811798L117.17057812499999,102.03724690391245L117.236,102.43669059026413L117.30142187499999,102.18202053905432L117.36684375,102.93080073489092L117.759375,102.30657038234081L117.955640625,102.85987823200864L118.41359375,102.94318716055936L118.5444375,102.44674071430437L118.740703125,102.00009182441595L118.80612500000001,102.31456232121207L119.00239062499999,103.44107189793557L119.394921875,103.26918490308425L119.52576562499999,102.91508952257972L119.72203125,103.85021878516241L119.918296875,104.27965835443078L119.98371875000001,103.92290585250223L120.04914062499999,103.525587521918L120.1145625,103.89794831393206L120.179984375,103.76535779044256L120.572515625,103.99224624978638L120.965046875,104.02102121992391L121.357578125,103.53991481528769L121.750109375,103.28952991130804L122.07721875,103.41695811605565L122.33890625000001,104.71399098291464L122.796859375,104.00979152985295L122.927703125,104.55767013275552L123.12396874999999,105.19830793902831L123.2548125,105.70884537539615L123.320234375,106.44396647002935L123.5165,106.11049895753845L123.581921875,106.66888342400223L123.712765625,105.8171824958076L123.77818749999999,105.62541301310955L123.974453125,105.7583894745324L125.086625,106.49643251284444L125.152046875,106.43619114833167L125.21746875,106.40764411608232L125.544578125,105.70893145662856L125.74084375,105.73565705106049L126.00253124999999,106.77157040251129L126.067953125,106.50828934437135L126.133375,106.97676742172698L126.3950625,106.91621699600495L126.46048437500001,106.75500916895713L126.52590624999999,107.44775517585344L126.65675,107.30788666670998L126.78759375,107.57416858856766L126.9184375,107.57117686928642L127.04928124999999,108.20002116063436L127.57265625,107.04332197372436L127.899765625,107.75222528058877L127.9651875,107.95509578033244L128.553984375,108.39718692783488L128.61940625,109.07909070487801L129.339046875,109.58639921459347L129.862421875,109.36111911859983L129.92784375,109.75410477194114L130.12410937500002,110.00533180847718L130.25495312500001,109.18113720357589L130.320375,109.43315289506221L130.84375,109.91181999224565L130.909171875,109.7282839875349L130.97459375,109.1352343248126L131.040015625,109.10525661051255L131.23628125,109.38766871240128L131.367125,109.91301157900327L131.43254687499999,109.51517771563114L131.49796874999998,109.74611125177451L132.02134375,109.16674201148138L132.34845312500002,109.99118081886799L132.413875,110.39468987152912L132.610140625,110.51080379921956L133.06809374999997,110.55575246182339L133.1989375,110.88455121667737L133.85315624999998,110.52109231854809L134.180265625,110.5378281450351L134.2456875,109.90376902243771L134.37653125,110.4327286660668L134.441953125,110.50904950432758L134.834484375,111.46194203983613L135.2924375,112.11864562754751L135.357859375,112.167294993716L135.94665625,112.99130603268794L136.20834374999998,112.15178641909193L136.3391875,112.65089795822598L136.600875,112.60866423066476L137.189671875,112.75114365558635L137.320515625,113.36627538606015L137.51678124999998,112.60231627330276L137.647625,112.03943859210666L137.713046875,112.72232363703482L138.04015625,113.23321123951257L138.236421875,113.20764409396796L138.56353124999998,113.1932256816412L138.694375,113.52079589075555L139.08690625,113.20088059434917L139.152328125,113.46682672900533L139.21775,113.7497835374032L139.47943750000002,113.93120781775443L139.806546875,113.56427309560056L140.0028125,114.16928641595409L140.13365625,114.56085524800997L140.329921875,114.26232861104555L140.52618750000002,114.03296467964816L140.787875,114.70326220622641L141.24582812499997,114.763478873215L141.31125,114.92859647106442L141.376671875,114.36222116388866L141.83462500000002,114.63003068010403L141.96546874999999,113.73859197577075L142.0963125,114.28930570629578L142.29257812499998,114.8388636321108L142.358,114.82373647353732L142.75053125,115.3657532122474L142.815953125,115.95866039089012L143.33932812499998,116.34669529052366L143.53559375,115.06319894514752L143.601015625,115.20739755719268L143.6664375,115.95950855384686L143.731859375,115.74919347866228L143.862703125,115.05287083980153L144.05896875,115.62523246481842L144.516921875,115.89632834607855L144.58234375,115.49613701415754L144.909453125,115.45464210432786L145.040296875,116.1800054448884L145.10571875,114.92402839714137L145.171140625,115.86279532604523L145.7599375,115.45770838052297L146.021625,116.19155178612628L146.15246875,116.70865769927994L146.217890625,116.51060321331796L146.34873437500002,116.10945206470953L146.67584375,116.65084555523197L146.74126562499998,116.34751026282669L146.872109375,116.37576188686268L146.93753125,117.00635703446136L147.002953125,116.94757444203097L147.19921875,117.45773319060922L147.3300625,116.89066973207386L147.46090625,117.28553478195265L148.04970312499998,117.13761709312992L148.24596875,117.23573054233628L148.834765625,117.86291534363093L149.227296875,118.17699390018899L149.29271875,118.38388621641548L149.68525,117.66330562307846L149.75067187500002,118.23600651837832L149.81609375,118.09744801909991L150.33946875,118.02548297161619L150.732,117.79626572698014L150.797421875,118.80148778905266L151.320796875,118.13179589608785L151.38621875,118.79334532736624L151.582484375,118.87983261959683L151.77875,119.17704457501331L152.0404375,119.66747156922673L152.17128125,119.70052408736936L152.43296875000001,119.86144856700494L152.82549999999998,119.97615650999464L153.0871875,119.9250491794343L153.15260937500003,120.33085226156683L153.348875,118.62668303662758L153.675984375,118.91792059671614L153.937671875,119.39500932417552L154.068515625,120.18492416546886L154.199359375,119.53675433652089L154.330203125,120.08438141050628L154.78815625000001,120.20383031114753L154.91899999999998,119.70592686507393L154.984421875,119.86178152594539L155.376953125,120.187256317911L155.442375,120.23311293788201L155.507796875,120.34714968004691L155.638640625,120.2614102181844L155.769484375,120.54581136528563L156.554546875,120.90747031526513L157.14334375,121.02233729983615L157.40503125,120.88983932651628L157.732140625,120.8166381011181L157.7975625,120.78487651301461L158.124671875,120.97380896444939L158.19009375000002,121.27027873804462L158.25551562500002,121.40670983722782L158.517203125,121.88064385481064L158.582625,122.3186289723916L158.97515625,122.36548138734122L159.23684375000002,122.30048346131099L159.302265625,122.2326473033491L159.3676875,122.1006511749782L159.49853125,121.99448481305984L159.563953125,121.39144682859111L159.8910625,121.36156817853487L160.087328125,121.79382135959489L160.218171875,122.21537429362151L160.4144375,121.96002355078228L160.61070312500001,122.42710342083396L160.80696875,122.33161910002642L160.9378125,122.26759017746377L161.395765625,122.18439082522826L161.526609375,122.22904214487653L161.65745312500002,122.7600735942176L162.24625,122.88657563439514L162.311671875,123.22080351865792L162.37709375,123.5715156072885L162.442515625,122.70378123937311L163.358421875,122.91441988294679L163.620109375,123.22318547468996L163.881796875,123.50678296450147L163.94721875,123.51376382166964L164.14348437499999,124.14765730016325L164.20890624999998,122.9325667433792L164.40517187499998,122.71952041712126L164.536015625,123.11137852631443L164.666859375,123.06270953766366L164.99396875,123.28023070306693L165.190234375,122.94944291402767L165.321078125,123.71159279919786L165.51734374999998,123.63273943602913L165.713609375,124.05648441682581L165.909875,123.90488938056424L166.04071875,124.28038190307812L166.236984375,124.50999966593542L166.43325000000002,124.8160768503425L166.49867187499999,124.80562430030966L166.6949375,125.0931744988056L166.891203125,125.11432121946565L167.48,125.15465493871065L167.61084375,124.89806933041388L167.937953125,124.87555909499312L168.2650625,124.29180412561567L168.330484375,124.17760107888502L168.39590625,124.69947969029977L168.52675,124.68688921391944L168.592171875,124.94398219371624L168.72301562500002,124.85725985659434L168.85385937499998,125.40242476161285L169.050125,125.06484414733228L169.115546875,124.52660364009208L169.377234375,124.73685551087817L169.70434375,124.82173640223002L169.83518750000002,124.80571664602552L170.22771874999998,125.19131836652156L170.293140625,125.47576403423585L170.3585625,125.52160571871859L170.423984375,125.64048966821032L170.48940625,125.32520294806162L170.685671875,125.62911880659739L170.81651562500002,125.83028225401051L171.07820312500002,125.23164414081776L171.27446874999998,125.49999022798025L171.4053125,125.95607278262148L171.53615625,125.94206658623955L171.601578125,126.34055928768123L171.667,125.64314322234833L171.9286875,125.94479511309649L172.19037500000002,125.97438652423811L172.255796875,126.26265694709494L172.32121874999999,125.60722232580903L172.58290624999998,125.7923094371521L172.64832812499998,126.55556329901L172.779171875,126.59622409594246L172.84459375,126.57281655391964L172.9754375,125.71846568104971L173.040859375,125.9243952614944L173.10628125,125.98618162304247L173.23712500000002,126.0279809302057L173.302546875,126.39543528663904L173.433390625,126.63557168630635L173.62965624999998,126.83025486074213L173.7605,126.50580353493487L173.825921875,126.4884486736953L174.218453125,126.11913541515466L174.28387500000002,126.19393411367614L174.349296875,126.52227453070569L174.61098437500002,126.77442995279841L174.74182812499998,126.64971767219987L174.872671875,126.52067541126263L175.134359375,126.60248283464821L175.788578125,126.84412777045038L175.919421875,127.13548927620252L176.05026562499998,127.67515933720588L176.1156875,127.6914930144329L176.377375,126.68351729303475L176.50821875,127.03561026188856L176.573640625,126.8736391877321L176.63906250000002,127.17078377305592L176.835328125,127.04240880550022L177.09701562499998,127.39556911142513L177.1624375,127.28908424029257L177.35870312499998,127.56266582737868L177.55496875,127.90590916439595L178.2091875,127.77346558327298L178.274609375,127.78651151142213L178.470875,128.06149556245225L178.536296875,127.89019655622135L178.667140625,126.83727420000885L178.86340625,127.34884552586468L178.99425000000002,127.75920829208131L179.05967187500002,126.8212842363165L179.190515625,126.5194847670503L179.25593750000002,127.0795330477302L179.32135937500001,127.45278848098187L179.38678125,127.73549782817244L179.517625,128.20652086487223L179.64846875,128.1602922715275L179.713890625,128.18859455236964L179.975578125,128.08073964157802L180.041,127.55072757400931L180.17184375,127.96467563945768L180.36810937500002,128.03587930945585L180.69521875,127.94591296978808L181.48028125,128.18224312692496L181.74196875,128.37513614308205L181.938234375,128.64815919235963L182.26534375,128.59724144640535L182.3961875,128.74089444466614L182.592453125,128.26371882825802L182.984984375,127.87586700659023L183.05040625,128.36871379119373L183.18124999999998,128.3584054557058L183.377515625,129.04055954946514L183.57378125,128.83542904022596L183.639203125,128.03588174054184L183.704625,129.08774016086156L184.293421875,129.2655971238607L184.35884375,129.34388106077475L184.424265625,129.06512897826173L184.4896875,129.24405043383203L184.62053125,129.3455590037888L184.751375,129.48465643091913L184.947640625,129.71467764761397L185.27474999999998,129.61826332684961L185.40559375,129.70984971160456L185.471015625,129.97257968373358L185.53643749999998,130.01134764747974L185.601859375,130.18422297650866L186.12523437500002,130.1886651172854L186.71403125,129.98270816867856L187.041140625,130.03749760628526L187.564515625,130.02863433851073L187.62993749999998,130.2144028199033L187.826203125,130.21179628178572L188.087890625,130.41290561737873L188.54584375000002,129.66741588019286L188.74210937499998,130.08212797863655L188.93837499999998,130.26378127936943L189.00379687499998,129.98348945447063L189.06921875,130.09134582111986L189.2000625,130.59493167886984L189.7234375,130.3972550522438L189.85428125,130.67283610426293L189.98512499999998,130.8819718774015L190.11596875,130.36863333802944L190.7701875,130.4618580627135L191.2935625,130.6498706970031L191.35898437499998,130.6801262918998L191.42440625,130.71480425821278L191.68609375,131.35363987914644L192.078625,131.82264489753993L192.602,131.89887502446146L192.99453125000002,131.58279444827062L193.059953125,131.25893166570717L193.125375,131.4236007637472L193.190796875,131.2863599699671L193.32164062500001,131.04565465385525L193.45248437499998,130.64850423437045L193.64875,131.0330452164035L194.04128125000003,131.38358762788897L194.172125,131.97266829938965L194.630078125,131.76600945945148L194.891765625,132.0562039504105L195.022609375,131.98629841191294L195.284296875,132.0813005803509L195.34971875000002,132.03698301748136L195.4805625,131.84870520762425L195.80767187499998,131.50539845009538L196.0039375,131.9986104893281L196.13478125,132.09155812302393L196.331046875,132.24466229894455L196.39646875,132.2749512367886L196.461890625,131.864926145719L197.11610937499998,131.8167857981085L197.18153124999998,131.98470461688592L197.312375,132.10221386713675L197.377796875,132.067436490855L197.44321875,132.4379520963359L197.508640625,132.30258068162965L197.70490625,132.10576719152988L197.77032812500002,132.34304078366793L197.901171875,132.66155508543514L198.0974375,132.554021299959L198.22828124999998,132.7830817252879L198.359125,133.1564382767092L198.48996874999997,132.78714978243178L199.07876562500002,132.66438632128197L199.340453125,133.13904893144107L199.471296875,132.84139050795318L199.602140625,133.00476018367817L199.732984375,133.1465931382017L199.92925,132.3678201732856L200.12551562500002,132.04772797636718L200.518046875,132.7742577168099L200.58346874999998,132.9126759354245L200.84515625,133.1469287708901L201.041421875,133.28333011409657L201.2376875,132.98308926311938L201.36853125,133.2329351008404L201.43395312500002,133.36786309500945L201.695640625,133.52031801976608L201.957328125,133.61899888477632L202.15359375,133.61416013815744L202.21901562500003,133.62354471570697L202.2844375,133.29494872070023L202.349859375,133.51261278710763L202.54612500000002,132.863998303775L202.8078125,133.22478644971292L203.20034375,133.14462781058296L203.265765625,133.60702186864143L203.46203125,133.90851347925778L203.78914062500002,133.88418850747655L203.98540624999998,133.54552565331406L204.050828125,133.4190961211551L204.181671875,133.5449917058962L204.312515625,133.87397458082938L204.443359375,133.55856749589347L204.50878125,133.71580612253607L204.705046875,133.7745130680529L204.77046875,133.89317844630048L204.90131250000002,134.21066042064487L205.09757812499998,134.02862375889734L205.163,133.70278418372382L205.29384374999998,133.6579820336718L205.686375,133.61638147280723L205.882640625,133.80237398459582L206.07890625,133.67366260690332L206.144328125,133.9008024144024L206.40601562499998,134.15828789395394L206.798546875,134.05102525915882L207.64903125,134.23413061773488L207.91071875,134.04280286608363L208.0415625,134.50475042082206L208.368671875,134.68507790548801L208.5649375,134.8648349431626L208.69578125,134.92085770417881L208.95746875,135.10755926768957L209.284578125,134.8055162084002L209.546265625,134.95977316905055L209.80795312499998,134.848218458722L210.00421875,135.24608156351445L210.593015625,135.30411384696282L210.985546875,134.8026545223704L211.639765625,135.199049647016L211.70518750000002,135.02186243794918L211.77060937500002,135.21580095886327L211.96687500000002,135.17054209875545L212.03229687500001,135.35580310756058L212.35940625,135.78399732677593L212.49025,135.2436725171593L212.7519375,135.07344516068622L212.817359375,135.0642462305263L212.88278125,135.24272159899286L212.948203125,135.27212156616656L213.013625,135.17708633488223L213.07904687500002,135.37562911212726L213.14446875,135.669017962068L213.66784375,135.4963213241158L214.256640625,135.83447352363615L215.17254687500002,135.59188699504108L215.23796875,135.8392871774934L215.303390625,136.09643747576686L215.76134375,136.1723029802518L216.088453125,136.21950662539066L216.28471875,135.44771621481772L216.4155625,135.75001332264065L216.48098437500002,135.98858816936564L216.54640625,136.15245797974438L216.611828125,136.1583974278206L216.873515625,136.191653153958L217.396890625,135.9502002908123L217.4623125,136.30903435091966L217.658578125,136.31585179544763L217.78942187500002,136.58361195617482L217.85484375000001,136.49529266198613L217.98568749999998,136.05699190578542L218.77075,136.23846851586708L218.90159375000002,136.3257249897286L219.097859375,136.2191610680559L219.228703125,135.89825101908875L219.5558125,136.19429873970847L219.752078125,136.37362035710632L219.94834375000002,136.99768755443307L220.537140625,136.72452268890984L220.6025625,136.59356063483028L220.99509375,136.63854634183568L221.1259375,137.00903127189827L221.191359375,136.92527797537855L221.583890625,136.78103796035734L221.78015625,136.9428336323342L221.845578125,137.19335088740831L222.1726875,136.94044415874708L222.30353125000002,137.06139938912844L222.434375,136.81316290821667L222.630640625,136.96672373776855L222.69606249999998,137.19472732534342L222.76148437499998,137.11613818557063L223.2194375,137.29150324011843L223.546546875,137.46196701568564L223.67739062500002,137.44695589300514L223.74281249999999,137.434903190751L223.80823437499998,137.28021190142977L224.06992187499998,137.27542082575368L224.527875,137.45183166211888L224.7895625,136.849309413938L224.985828125,136.90178708065446L225.05125,137.06940821030673L225.18209375,137.49720954206947L225.640046875,137.42440165297606L225.70546875000002,137.13363041235854L226.03257812500001,137.37401669956355L226.817640625,137.46757079447772L227.14475,137.33815286080122L227.27559375,137.9512447926526L227.341015625,137.87237469134678L227.53728125,137.94462702021173L227.602703125,138.15088285275203L228.1915,137.4340361569637L228.58403125,137.9073171450246L228.84571875,137.526022806546L229.172828125,137.76482984603697L229.303671875,137.99955254629407L229.43451562500002,138.24712680772436L229.56535937499999,137.99257383854086L229.696203125,138.18163873671827L229.89246874999998,138.00093473128877L229.957890625,138.26048017471078L230.0233125,138.77421375586812L230.219578125,138.44236824375525L230.285,138.22460545146149L230.350421875,138.22112379333782L230.41584375,137.8511447349871L230.612109375,138.004225024586L230.67753125,137.9753776742568L230.742953125,137.91778908827803L230.93921874999998,138.14051636475068L231.004640625,138.41369339632436L231.135484375,138.68837249938315L231.20090624999997,138.53068984077572L231.46259375,138.70240849268157L231.5934375,138.11168217243187L231.658859375,138.54916485358933L231.72428125,138.7094415716588L231.98596874999998,138.46629902502653L232.1168125,138.42402360446903L232.24765624999998,138.5074751327335L232.443921875,138.48526816883282L233.03271875,138.67827113892992L233.228984375,138.5581694297772L233.359828125,138.51783482843925L233.490671875,138.84785301294897L233.621515625,138.70945445099852L233.752359375,138.45785143036474L233.948625,138.60198804734645L234.34115624999998,138.66446909793913L234.60284374999998,138.46978543011764L234.7336875,138.67860596672944L234.92995312500003,138.9170613258059L235.19164062500002,139.20406755720228L235.453328125,139.30191919643073L235.715015625,139.24961242280636L235.976703125,139.35375214606663L236.369234375,139.5761169533301L236.56550000000001,139.47656506132097L236.8271875,139.31440449089413L236.95803125,139.19500955651566L237.21971875,139.4621837449771L237.285140625,139.76672040323626L237.74309374999999,139.69194638582195L237.939359375,139.68213051052965L238.00478124999998,139.7210383486355L238.331890625,139.56508412571776L238.3973125,139.72923855323012L238.462734375,139.71985599001098L238.593578125,139.62156072942327L238.78984375,138.93999625210708L239.11695312499998,138.92301816955853L239.31321875,139.11500763025074L239.37864062499997,139.31485535940044L239.509484375,139.51814374949444L239.902015625,139.35706418752218L240.556234375,139.6139800001435L241.01418750000002,139.82898668172675L241.210453125,139.76085876522095L241.275875,139.77948376499194L241.66840625,139.6273678143337L241.733828125,139.67297459485022L241.79925,139.80528500918876L241.864671875,140.10868448207577L241.93009375,139.80574541418036L241.995515625,139.5918824780004" style="fill: none;" fill="none"></path></g></g></g></g><g opacity="0.2"><g><g><g><path stroke="rgb(255, 112, 67)" stroke-width="2px" d="M33.88853125,-3.5242897135416626L34.281062500000004,1.3194527994791656L35.066125,1.6624671223958387L35.3278125,5.189119140624996L35.458656250000004,5.542898274739599L35.5895,5.238208984375007L35.654921875,6.87593912760417L35.785765625,5.490072916666662L36.178296875,9.196634602864577L36.243718750000006,4.3828434244791765L36.309140625000005,7.1109980468749825L36.3745625,4.305213867187518L36.963359374999996,9.307307617187519L37.159625,7.319821940104163L37.355890624999994,8.615305989583334L37.4213125,10.9154609375L37.486734375,6.669967285156247L37.552156249999996,9.890316731770838L37.879265624999995,12.659225911458321L38.402640625,14.082504882812515L38.86059375,12.241750976562486L39.38396875,13.032297200520816L39.580234374999996,14.56992708333334L39.64565625,15.239813313802074L40.103609375,14.998041992187495L40.43071875,13.816284667968745L40.95409375,14.554120768229183L41.150359375,17.87409993489584L41.21578125,17.338596191406253L41.804578125,15.751962890625009L41.935421875,20.805969726562495L42.00084375,17.214796061197916L42.066265625,19.002993489583332L42.52421875,19.15137695312498L42.851328125,18.229780436197927L42.982171875,22.34424300130209L43.047593750000004,17.432675455729168L43.309281250000005,18.485687174479153L43.636390625000004,20.484408203124985L43.7018125,20.80835123697915L43.898078125000005,22.67482161458335L44.290609375,24.507451497395834L44.35603125,23.03681119791665L44.486875000000005,24.489772623697917L44.683140625,23.786871744791654L44.813984375000004,22.751375651041684L44.87940625,23.499246744791662L45.01025,23.025335774739602L45.141093749999996,23.616824218749997L45.206515624999994,22.67238248697916L45.66446875,23.720189453124988L46.18784375,27.24075325520832L46.253265625,27.397520019531242L46.318687499999996,23.81559391276042L46.580375,23.98699544270835L47.234593749999995,26.87020751953125L47.300015625,27.976428710937512L47.430859375,28.71564762369792L47.692546875,24.356993815104175L47.8888125,28.04518522135416L47.954234375,28.39575699869792L48.01965625,28.468709960937503L48.215921875,29.837367838541667L49.000984375,30.929319173177078L49.393515625,28.85695377604165L49.58978125,29.19109505208334L49.720625,31.283472819010427L49.786046875000004,26.765853190104167L49.916890625,30.7717841796875L50.178578125,33.41986051432292L50.440265625,32.51464648437502L50.571109375,33.2298390299479L50.898218750000005,33.572805338541684L51.814125000000004,31.737275390625L52.141234375,34.055186035156254L52.20665625,34.23778450520834L52.46834375,33.461815429687505L52.533765625,38.40513964843748L52.795453125,37.38080208333335L52.860875,33.486763671874996L52.991718750000004,33.611975423177086L53.187984375,36.41476350911458L53.51509375,37.0064248046875L53.580515625,37.58044563802085L53.645937499999995,36.39868831380207L53.973046874999994,37.00542610677084L54.03846875,37.584498046874984L54.103890625,37.033274414062504L54.30015625,37.23499218750001L54.888953125,39.82351155598957L55.019796875,39.338384440104164L55.412328124999995,41.53550065104167L56.2628125,40.738097981770835L56.459078125,41.68185791015625L56.720765625,41.88108854166666L56.982453125,40.76150976562499L57.113296875,41.047550292968765L57.374984375,41.51388460286458L57.44040625,45.25111783854166L57.505828125,42.711889973958336L57.636671875,43.68946158854166L57.963781250000004,44.46775455729167L58.290890625,44.0215478515625L58.3563125,44.69686930338543L59.403062500000004,45.06842333984375L59.861015625,47.32320475260417L60.253546875000005,48.21871028645833L60.31896875,47.092908854166666L60.4498125,47.228040364583336L60.842343750000005,45.61829296875001L61.431140625,50.13594140625L61.561984374999994,49.972174153645824L61.62740625,48.36822688802084L61.823671874999995,48.22007389322917L62.216203125,48.71120279947917L62.739578124999994,48.385416015625L62.805,51.91910693359374L63.001265624999995,50.948190104166656L63.0666875,48.7901767578125L63.655484375,50.633158528645836L63.72090625,50.59720540364583L64.440546875,53.20246256510417L64.6368125,53.64429996744792L64.702234375,52.53996093750001L64.833078125,52.91247526041667L64.963921875,51.650063476562494L65.87982812499999,53.51656266276041L66.2069375,51.58098046875L66.33778125,55.2052744140625L66.53404687499999,58.73659342447917L66.992,54.24414290364584L67.05742187499999,54.440790364583336L67.449953125,56.30799055989583L67.58079687499999,56.04485286458333L67.64621875,56.63401741536458L67.7770625,57.565677734375L67.842484375,56.987460449218744L68.03875000000001,56.22506022135417L68.16959375,57.448772460937505L68.496703125,57.079590332031245L68.56212500000001,58.45171484375L69.150921875,59.98002994791668L69.28176562499999,59.01413541666666L69.543453125,61.15844547526042L69.608875,59.76473372395833L69.93598437499999,56.75773111979166L70.197671875,61.17830419921876L70.26309375000001,58.55508007812499L70.45935937499999,61.622042968749994L70.590203125,60.4957421875L70.721046875,60.62876106770834L70.78646875000001,59.89559195963541L70.851890625,59.84697265625L70.91731250000001,60.81197412109374L71.04815625,60.74272786458333L71.113578125,58.75792138671875L71.44068750000001,61.2966787109375L71.506109375,61.29464290364584L71.96406250000001,62.261286458333345L72.09490625000001,57.45793359375L72.48743750000001,62.74069986979167L72.61828125000001,62.58944514973959L72.945390625,63.33048860677083L73.27250000000001,64.37430078125L73.40334375,61.90087174479167L74.18840625,63.77223958333333L74.646359375,66.192123046875L74.71178124999999,65.70431673177083L74.842625,63.584033040364574L74.908046875,64.68723893229166L74.97346875,64.91448111979167L75.03889062500001,66.35797412109376L75.169734375,67.02323177083333L75.366,64.8018779296875L75.6276875,66.04986621093751L75.954796875,66.29420149739583L76.1510625,64.49444222005208L76.41274999999999,66.2850115559896L76.609015625,66.71895540364584L76.6744375,68.02273632812499L76.80528125,67.99118131510417L76.870703125,70.25031282552082L77.001546875,66.39356233723957L77.06696875,65.30969661458333L77.132390625,65.38076741536457L77.32865625,67.54949755859376L77.39407812500001,65.54628238932293L77.59034375,68.8988056640625L77.7211875,69.63898486328124L77.786609375,69.03556966145834L78.2445625,70.12060693359375L78.44082812500001,68.67821826171875L78.702515625,67.87179850260418L78.89878125,72.31234554036459L79.029625,70.88654101562501L79.16046874999999,70.52280371093751L79.42215625,69.12170735677084L79.68384375,69.22522623697917L79.880109375,71.78248828125L79.94553125,69.91173502604167L80.010953125,69.10970377604167L80.076375,69.47219270833332L80.46890625,70.12365104166666L80.8614375,70.23095345052083L80.99228125,70.5137001953125L81.057703125,72.94754622395833L81.31939062500001,73.08652848307291L81.51565625,73.95398404947917L81.581078125,72.45777132161459L81.77734375,74.50993229166666L81.842765625,73.13469645182292L81.9081875,73.53668196614585L82.03903125,75.84980078125L82.169875,76.74634342447918L82.56240625,73.68341373697916L82.75867187499999,73.42622981770835L82.82409375,72.9604716796875L83.020359375,73.73619108072917L83.08578125,73.223955078125L83.151203125,70.7011865234375L83.28204687499999,76.2463798828125L83.34746875,74.9412353515625L83.74,75.89818961588541L84.0016875,73.96266503906251L84.067109375,75.1692265625L84.197953125,76.69819466145833L84.328796875,77.46969840494792L84.45964062499999,75.30841048177085L84.5250625,73.69154736328124L84.59048437499999,73.35413151041668L84.65590625,77.88989095052084L84.721328125,72.7641123046875L84.91759375000001,75.61887109375L85.17928125,73.9829462890625L85.375546875,76.346L85.506390625,75.46930647786458L85.57181250000001,77.20660872395833L85.63723437499999,79.25908658854166L86.029765625,78.04432421875L86.09518750000001,78.49864054361979L86.22603125,78.18455485026041L86.422296875,76.76419514973958L86.683984375,78.82211783854167L86.88025,78.44292952473958L87.076515625,77.002490234375L87.14193750000001,79.1291982421875L87.27278125000001,79.11457307942709L87.403625,77.79565804036459L87.53446875,77.14409407552083L87.861578125,77.16258919270834L88.05784375,78.16882535807291L88.1886875,78.67437296549478L89.431703125,82.19446622721355L89.562546875,81.14702416992186L89.62796875000001,81.17595279947918L89.88965625,80.02301367187499L90.0205,81.54084244791667L90.28218749999999,79.71244742838542L90.41303124999999,79.31342919921876L90.543875,82.95118155924479L90.740140625,81.839798828125L90.870984375,82.02747241210936L90.93640624999999,81.87412906901042L91.06724999999999,79.26548209635416L91.3289375,81.95128808593749L91.59062499999999,81.49033138020833L92.048578125,82.81098453776042L92.11399999999999,84.51986230468749L92.179421875,83.83392968749999L92.24484375,83.09244449869792L92.3756875,82.56867065429688L92.57195312500001,83.42343603515624L92.63737499999999,82.4231728515625L92.702796875,83.00306103515625L92.8990625,85.04492773437501L92.964484375,85.01748754882811L93.02990625,82.12130680338542L93.09532812500001,83.92760563151043L93.61870312500001,85.68812280273438L93.684125,84.34945947265625L93.880390625,81.84183943684897L94.33834374999999,83.93856730143229L94.534609375,83.29303873697916L95.057984375,86.02276342773438L95.12340625,85.69481119791668L95.25425,83.91844449869792L95.31967187500001,85.36751676432293L95.38509375,85.37184765625L95.581359375,85.07668440755208L95.64678125,85.74912019856771L95.777625,85.56921533203125L95.90846875,85.74650341796874L96.235578125,86.71048697916667L96.301,87.24803613281249L96.5626875,88.77251489257813L96.62810937500001,88.08713924153646L96.69353124999999,87.13914925130209L96.758953125,86.04796614583334L96.95521875,85.4451847330729L97.02064062500001,87.17298014322917L97.0860625,87.52395524088541L97.282328125,87.49580444335938L97.34775,89.45930216471355L97.871125,85.52549829101561L98.1328125,88.60005224609374L98.26365625,87.20339241536459L98.3945,88.43896899414064L98.45992187499999,89.38176383463542L98.6561875,88.49610123697917L98.917875,89.05304817708333L98.983296875,88.12352449544271L99.04871875,88.27366048177083L99.24498437499999,89.34205598958334L99.76835937499999,87.96484195963541L99.899203125,90.31009676106771L100.160890625,91.00535856119791L100.2263125,89.25153938802083L100.422578125,89.47325992838542L100.553421875,89.61364420572917L100.684265625,91.24086881510416L101.011375,91.7413653157552L101.46932812499999,88.47289111328125L101.53475,90.65395133463541L101.731015625,92.51606201171876L101.861859375,90.66190250651042L102.254390625,91.65052701822917L102.3198125,92.39571891276042L102.45065625000001,92.01595442708334L102.5815,91.73867171223958L102.8431875,91.72763802083334L103.104875,90.647623046875L103.23571875,91.35756282552083L103.562828125,92.31492521158854L103.62825000000001,92.22509521484375L103.69367187499999,91.02219718424479L104.15162500000001,94.25690771484375L104.217046875,89.06370735677083L104.609578125,95.19449300130208L104.87126562499999,93.23087044270834L104.9366875,94.27039973958334L105.002109375,93.06270507812499L105.59090625,93.3848379720052L105.72175,92.45754215494792L105.918015625,93.69602840169271L106.310546875,93.91200642903647L106.37596875,94.13229134114583L106.63765624999999,94.87641731770833L106.833921875,93.96387630208334L106.964765625,94.72481689453124L107.880671875,95.94876440429687L108.0769375,96.23898697916667L108.273203125,95.89123844401043L108.338625,97.60396695963541L108.404046875,96.18096166992189L108.6003125,95.36359944661459L108.665734375,97.27050268554687L108.73115625,95.53933186848958L109.90875,95.53775699869792L110.03959375,98.84450341796875L110.10501562500001,98.34331070963542L110.235859375,97.46112434895834L110.30128125,97.75338753255208L110.69381249999999,96.76890185546876L110.759234375,99.46547265625L110.890078125,98.20854410807291L111.020921875,99.43860864257813L111.15176562500001,94.96852319335937L111.282609375,96.673228515625L111.478875,97.91102335611978L111.60971875,97.26499544270833L111.7405625,98.38679248046876L111.87140624999999,99.67875227864583L112.00225,98.80715787760417L112.13309375,99.709078125L112.7873125,99.44479768880208L113.04899999999999,98.1077236328125L113.3106875,98.48045882161459L113.37610937500001,101.89364819335938L113.44153125,97.07013891601562L113.572375,100.81225520833333L113.768640625,100.69749617513021L113.96490625,97.82233129882813L114.09575,99.57989078776042L114.292015625,101.73148942057291L114.684546875,100.2870361328125L114.81539062499999,101.47957267252605L114.94623437499999,98.63674064127605L115.01165625,99.24108251953125L115.207921875,101.02305729166667L115.27334375,102.22590250651041L115.338765625,100.86958430989584L115.53503125,101.41439803059896L116.05840625,102.4145555826823L116.385515625,102.5841181640625L116.516359375,101.00384195963541L116.908890625,102.31531477864583L117.17057812499999,102.25036100260417L117.236,103.03585611979166L117.30142187499999,101.80001546223959L117.36684375,104.05397102864583L117.759375,101.37022485351562L117.955640625,103.68984000651042L118.41359375,103.06815055338542L118.5444375,101.70207104492188L118.740703125,101.33011848958334L118.80612500000001,102.78626806640625L119.00239062499999,105.13083626302083L119.394921875,103.01135441080729L119.52576562499999,102.38394645182291L119.72203125,105.25291267903646L119.918296875,104.92381770833333L119.98371875000001,103.38777709960938L120.04914062499999,102.92961002604167L120.1145625,104.45648950195311L120.179984375,103.56647200520834L120.572515625,104.33257893880209L120.965046875,104.06418367513021L121.357578125,102.81825520833334L121.750109375,102.91395255533854L122.07721875,103.60810042317709L122.33890625000001,106.65954028320313L122.796859375,102.95349235026042L122.927703125,105.37948803710937L123.12396874999999,106.1592646484375L123.2548125,106.47465152994792L123.320234375,107.54664811197917L123.5165,105.61029768880208L123.581921875,107.50646012369792L123.712765625,104.53963110351562L123.77818749999999,105.3377587890625L123.974453125,105.95785416666666L125.086625,107.6034970703125L125.152046875,106.3458291015625L125.21746875,106.36482356770833L125.544578125,104.66086246744791L125.74084375,105.77574544270833L126.00253124999999,108.32544042968749L126.067953125,106.11336775716146L126.133375,107.67948453776042L126.3950625,106.82539135742188L126.46048437500001,106.51319742838541L126.52590624999999,108.48687418619792L126.65675,107.0980839029948L126.78759375,107.97359147135417L126.9184375,107.56668929036458L127.04928124999999,109.14328759765625L127.57265625,105.30827319335937L127.899765625,108.81558024088541L127.9651875,108.25940152994791L128.553984375,109.06032364908855L128.61940625,110.10194637044272L129.339046875,110.34736197916666L129.862421875,109.02319897460937L129.92784375,110.34358325195312L130.12410937500002,110.38217236328126L130.25495312500001,107.94484529622396L130.320375,109.81117643229167L130.84375,110.62982063802083L130.909171875,109.45297998046874L130.97459375,108.24565983072917L131.040015625,109.06029003906251L131.23628125,109.81128686523438L131.367125,110.70102587890625L131.43254687499999,108.91842692057293L131.49796874999998,110.09251155598957L132.02134375,108.29768815104167L132.34845312500002,111.22783902994792L132.413875,110.99995345052083L132.610140625,110.68497469075521L133.06809374999997,110.62317545572917L133.1989375,111.37774934895833L133.85315624999998,109.97590397135416L134.180265625,110.56293188476563L134.2456875,108.95268033854167L134.37653125,111.22616813151042L134.441953125,110.62353076171874L134.834484375,112.89128084309895L135.2924375,113.10370100911459L135.357859375,112.24026904296875L135.94665625,114.22732259114584L136.20834374999998,110.89250699869791L136.3391875,113.39956526692708L136.600875,112.54531363932291L137.189671875,112.96486279296874L137.320515625,114.28897298177083L137.51678124999998,111.45637760416666L137.647625,111.19512207031251L137.713046875,113.74665120442708L138.04015625,113.99954264322918L138.236421875,113.16929337565105L138.56353124999998,113.17159806315104L138.694375,114.01215120442708L139.08690625,112.72100764973959L139.152328125,113.86574593098959L139.21775,114.17421875L139.47943750000002,114.20334423828126L139.806546875,113.01387101236978L140.0028125,115.07680639648439L140.13365625,115.14820849609374L140.329921875,113.81453865559897L140.52618750000002,113.68891878255208L140.787875,115.70870849609375L141.24582812499997,114.85380387369791L141.31125,115.17627286783855L141.376671875,113.512658203125L141.83462500000002,115.03174495442707L141.96546874999999,112.40143391927083L142.0963125,115.11537630208332L142.29257812499998,115.66320052083333L142.358,114.80104573567709L142.75053125,116.1787783203125L142.815953125,116.84802115885417L143.33932812499998,116.92874763997395L143.53559375,113.13795442708333L143.601015625,115.42369547526042L143.6664375,117.08767504882812L143.731859375,115.43372086588542L143.862703125,114.00838688151042L144.05896875,116.48377490234375L144.516921875,116.30297216796876L144.58234375,114.89585001627603L144.909453125,115.39239973958334L145.040296875,117.26805045572917L145.10571875,113.04006282552083L145.171140625,117.27094571940104L145.7599375,114.85007796223958L146.021625,117.29231689453124L146.15246875,117.48431656901042L146.217890625,116.21352148437501L146.34873437500002,115.50772534179688L146.67584375,117.46293579101561L146.74126562499998,115.89250732421876L146.872109375,116.41813932291667L146.93753125,117.95224975585938L147.002953125,116.85940055338541L147.19921875,118.22297131347656L147.3300625,116.04007454427082L147.46090625,117.87783235677082L148.04970312499998,116.91574055989584L148.24596875,117.38290071614583L148.834765625,118.80369254557291L149.227296875,118.64811173502605L149.29271875,118.69422469075522L149.68525,116.58243473307292L149.75067187500002,119.09505786132812L149.81609375,117.88961027018229L150.33946875,117.91753540039062L150.732,117.45243986002605L150.797421875,120.30932088216146L151.320796875,117.12725805664063L151.38621875,119.78566947428385L151.582484375,119.0095635579427L151.77875,119.62286250813803L152.0404375,120.40311206054687L152.17128125,119.75010286458333L152.43296875000001,120.10283528645834L152.82549999999998,120.14821842447917L153.0871875,119.84838818359376L153.15260937500003,120.93955688476562L153.348875,116.07042919921875L153.675984375,119.35477693684896L153.937671875,120.1106424153646L154.068515625,121.36979642740886L154.199359375,118.56449959309896L154.330203125,120.90582202148437L154.78815625000001,120.38300366210937L154.91899999999998,118.95907169596353L154.984421875,120.0955635172526L155.376953125,120.67546850585939L155.442375,120.30189786783855L155.507796875,120.51820479329427L155.638640625,120.13280102539062L155.769484375,120.97241308593749L156.554546875,121.44995874023436L157.14334375,121.19463777669272L157.40503125,120.69109236653645L157.732140625,120.70683626302083L157.7975625,120.73723413085938L158.124671875,121.25720764160155L158.19009375000002,121.7149833984375L158.25551562500002,121.61135648600259L158.517203125,122.59154488118489L158.582625,122.97560664876302L158.97515625,122.43576000976563L159.23684375000002,122.20298657226563L159.302265625,122.13089306640624L159.3676875,121.90265698242187L159.49853125,121.8352352701823L159.563953125,120.48688985188801L159.8910625,121.31675020345052L160.087328125,122.4422011311849L160.218171875,122.84770369466145L160.4144375,121.57699743652344L160.61070312500001,123.12772322591147L160.80696875,122.1883926188151L160.9378125,122.1715467936198L161.395765625,122.059591796875L161.526609375,122.29601912434896L161.65745312500002,123.55662076822917L162.24625,123.07632869466147L162.311671875,123.72214534505208L162.37709375,124.09758374023437L162.442515625,121.4021796875L163.358421875,123.23037784830728L163.620109375,123.68633386230468L163.881796875,123.93217919921875L163.94721875,123.52423510742187L164.14348437499999,125.09849751790364L164.20890624999998,121.10993090820313L164.40517187499998,122.39995092773438L164.536015625,123.69916569010417L164.666859375,122.9897060546875L164.99396875,123.60651245117188L165.190234375,122.45326123046874L165.321078125,124.85481762695312L165.51734374999998,123.51445939127603L165.713609375,124.69210188802083L165.909875,123.67749682617188L166.04071875,124.84362068684896L166.236984375,124.85442631022136L166.43325000000002,125.27519262695313L166.49867187499999,124.78994547526042L166.6949375,125.52449979654948L166.891203125,125.14604130045572L167.48,125.21515551757813L167.61084375,124.51319091796876L167.937953125,124.84179374186198L168.2650625,123.41617167154948L168.330484375,124.00629650878906L168.39590625,125.48229760742188L168.52675,124.66800349934896L168.592171875,125.32962166341147L168.72301562500002,124.72717635091146L168.85385937499998,126.22017211914063L169.050125,124.55847322591146L169.115546875,123.71924287923177L169.377234375,125.05223331705729L169.70434375,124.94905773925781L169.83518750000002,124.78168701171874L170.22771874999998,125.76972094726563L170.293140625,125.90243253580729L170.3585625,125.5903682454427L170.423984375,125.81881559244792L170.48940625,124.85227286783854L170.685671875,126.08499259440104L170.81651562500002,126.13202742513022L171.07820312500002,124.33368697102864L171.27446874999998,125.90250935872396L171.4053125,126.64019661458333L171.53615625,125.92105729166667L171.601578125,126.93829833984375L171.667,124.59701912434896L171.9286875,126.39727294921875L172.19037500000002,126.01877364095051L172.255796875,126.69506258138021L172.32121874999999,124.6240703938802L172.58290624999998,126.06994010416668L172.64832812499998,127.70044409179687L172.779171875,126.65721529134115L172.84459375,126.53770524088542L172.9754375,124.43693937174478L173.040859375,126.23328963216144L173.10628125,126.07886116536457L173.23712500000002,126.09067989095053L173.302546875,126.94661682128907L173.433390625,126.9957762858073L173.62965624999998,127.12227962239584L173.7605,126.01912654622396L173.825921875,126.46241638183594L174.218453125,125.56516552734374L174.28387500000002,126.30613216145834L174.349296875,127.01478515625L174.61098437500002,127.15266308593749L174.74182812499998,126.46264925130208L174.872671875,126.32711201985677L175.134359375,126.72519396972658L175.788578125,127.20659517415365L175.919421875,127.57253153483073L176.05026562499998,128.48466442871094L176.1156875,127.71599353027344L176.377375,125.1715537109375L176.50821875,127.56374971516928L176.573640625,126.6306825764974L176.63906250000002,127.61650065104166L176.835328125,126.84984635416667L177.09701562499998,127.92530957031249L177.1624375,127.12935693359375L177.35870312499998,127.97303820800781L177.55496875,128.42077416992188L178.2091875,127.57480021158854L178.274609375,127.80608040364584L178.470875,128.4739716389974L178.536296875,127.633248046875L178.667140625,125.2578906656901L178.86340625,128.11620251464845L178.99425000000002,128.37475244140626L179.05967187500002,125.41439815266926L179.190515625,126.06678556315104L179.25593750000002,127.91960546875L179.32135937500001,128.01267163085936L179.38678125,128.15956184895833L179.517625,128.91305541992188L179.64846875,128.09094938151043L179.713890625,128.2310479736328L179.975578125,127.91895727539062L180.041,126.75570947265625L180.17184375,128.5855977376302L180.36810937500002,128.14268481445313L180.69521875,127.81096346028646L181.48028125,128.53673836263022L181.74196875,128.6644756673177L181.938234375,129.05769376627603L182.26534375,128.52086482747396L182.3961875,128.9563739420573L182.592453125,127.54795540364583L182.984984375,127.29408927408855L183.05040625,129.10798396809895L183.18124999999998,128.34294295247395L183.377515625,130.06379069010416L183.57378125,128.5277332763672L183.639203125,126.83656079101563L183.704625,130.66552779134116L184.293421875,129.53238256835937L184.35884375,129.46130696614583L184.424265625,128.6470008544922L184.4896875,129.5124326171875L184.62053125,129.49782185872397L184.751375,129.6933025716146L184.947640625,130.05970947265627L185.27474999999998,129.47364184570313L185.40559375,129.84722928873697L185.471015625,130.3666746419271L185.53643749999998,130.06949959309895L185.601859375,130.4435359700521L186.12523437500002,130.1953283284505L186.71403125,129.67377274576825L187.041140625,130.1196817626953L187.564515625,130.01533943684896L187.62993749999998,130.4930555419922L187.826203125,130.20788647460938L188.087890625,130.71456962076823L188.54584375000002,128.54918127441405L188.74210937499998,130.70419612630207L188.93837499999998,130.53626123046877L189.00379687499998,129.5630517171224L189.06921875,130.25313037109373L189.2000625,131.3503104654948L189.7234375,130.1007401123047L189.85428125,131.08620768229167L189.98512499999998,131.19567553710937L190.11596875,129.59862552897135L190.7701875,130.60169514973958L191.2935625,130.9318896484375L191.35898437499998,130.7255096842448L191.42440625,130.76682120768228L191.68609375,132.31189331054688L192.078625,132.52615242513022L192.602,132.01322021484376L192.99453125000002,131.10867358398437L193.059953125,130.77313749186197L193.125375,131.6706044108073L193.190796875,131.08049877929687L193.32164062500001,130.6845966796875L193.45248437499998,130.05277860514323L193.64875,131.60985668945312L194.04128125000003,131.90940124511718L194.172125,132.85628930664063L194.630078125,131.45602119954427L194.891765625,132.49149568684896L195.022609375,131.88144010416667L195.284296875,132.22380383300782L195.34971875000002,131.97050667317708L195.4805625,131.56628849283854L195.80767187499998,130.9904383138021L196.0039375,132.73842854817707L196.13478125,132.2309795735677L196.331046875,132.47431856282552L196.39646875,132.3203846435547L196.461890625,131.24988850911458L197.11610937499998,131.7445752766927L197.18153124999998,132.23658284505208L197.312375,132.27847774251302L197.377796875,132.0152704264323L197.44321875,132.9937255045573L197.508640625,132.09952355957032L197.70490625,131.8105469563802L197.77032812500002,132.698951171875L197.901171875,133.13932653808592L198.0974375,132.3927206217448L198.22828124999998,133.12667236328124L198.359125,133.71647310384114L198.48996874999997,132.23321704101562L199.07876562500002,132.4802411295573L199.340453125,133.8510428466797L199.471296875,132.39490287272136L199.602140625,133.24981469726563L199.732984375,133.35934256998698L199.92925,131.19966072591146L200.12551562500002,131.56758968098958L200.518046875,133.86405232747396L200.58346874999998,133.12030326334636L200.84515625,133.49830802408854L201.041421875,133.48793212890627L201.2376875,132.53272798665364L201.36853125,133.60770385742188L201.43395312500002,133.57025508626302L201.695640625,133.74900040690105L201.957328125,133.76702018229167L202.15359375,133.60690201822916L202.21901562500003,133.63762158203124L202.2844375,132.80205472819011L202.349859375,133.83910888671875L202.54612500000002,131.89107657877605L202.8078125,133.7659686686198L203.20034375,133.02438985188803L203.265765625,134.30061295572915L203.46203125,134.3607508951823L203.78914062500002,133.8477010498047L203.98540624999998,133.0375313720703L204.050828125,133.22945182291667L204.181671875,133.73383508300782L204.312515625,134.36744889322915L204.443359375,133.0854568684896L204.50878125,133.95166406250002L204.705046875,133.86257348632813L204.77046875,134.07117651367187L204.90131250000002,134.68688338216145L205.09757812499998,133.75556876627604L205.163,133.21402482096354L205.29384374999998,133.59077880859377L205.686375,133.55398063151043L205.882640625,134.08136275227864L206.07890625,133.4805955403646L206.144328125,134.24151212565104L206.40601562499998,134.54451611328125L206.798546875,133.89013130696614L207.64903125,134.50878865559895L207.91071875,133.75581123860678L208.0415625,135.1976717529297L208.368671875,134.95556913248697L208.5649375,135.13447049967448L208.69578125,135.00489184570313L208.95746875,135.38761161295574L209.284578125,134.35245161946614L209.546265625,135.19115861002604L209.80795312499998,134.68088639322917L210.00421875,135.84287622070312L210.593015625,135.39116227213543L210.985546875,134.05046553548178L211.639765625,135.79364233398437L211.70518750000002,134.75608162434895L211.77060937500002,135.5067087402344L211.96687500000002,135.10265380859374L212.03229687500001,135.63369462076824L212.35940625,136.42628865559897L212.49025,134.4331853027344L212.7519375,134.81810412597656L212.817359375,135.05044783528646L212.88278125,135.51043465169272L212.948203125,135.3162215169271L213.013625,135.03453348795574L213.07904687500002,135.6734432779948L213.14446875,136.10910123697917L213.66784375,135.2372763671875L214.256640625,136.34170182291666L215.17254687500002,135.22800720214843L215.23796875,136.21038745117187L215.303390625,136.4821629231771L215.76134375,136.28610123697916L216.088453125,136.29031209309895L216.28471875,134.29003059895834L216.4155625,136.203458984375L216.48098437500002,136.34645043945312L216.54640625,136.3982626953125L216.611828125,136.1673065999349L216.873515625,136.24153674316406L217.396890625,135.58802099609375L217.4623125,136.84728544108071L217.658578125,136.3260779622396L217.78942187500002,136.98525219726562L217.85484375000001,136.36281372070312L217.98568749999998,135.39954077148437L218.77075,136.5106834309896L218.90159375000002,136.45660970052083L219.097859375,136.0593151855469L219.228703125,135.41688594563803L219.5558125,136.63837032063802L219.752078125,136.64260278320313L219.94834375000002,137.93378835042319L220.537140625,136.31477539062502L220.6025625,136.39711755371093L220.99509375,136.70602490234376L221.1259375,137.5647586669922L221.191359375,136.79964803059897L221.583890625,136.56467793782554L221.78015625,137.18552714029948L221.845578125,137.56912677001952L222.1726875,136.5610840657552L222.30353125000002,137.24283223470053L222.434375,136.44080818684895L222.630640625,137.19706498209635L222.69606249999998,137.53673270670572L222.76148437499998,136.99825447591147L223.2194375,137.5545508219401L223.546546875,137.71766267903647L223.67739062500002,137.42443920898438L223.74281249999999,137.4168241373698L223.80823437499998,137.04817496744792L224.06992187499998,137.26823421223958L224.527875,137.71644791666665L224.7895625,135.94552604166665L224.985828125,136.98050358072916L225.05125,137.32083990478515L225.18209375,138.13891153971355L225.640046875,137.31518981933596L225.70546875000002,136.6974735514323L226.03257812500001,137.7345961303711L226.817640625,137.60790193684898L227.14475,137.14402596028646L227.27559375,138.87088269042968L227.341015625,137.754069539388L227.53728125,138.0530055135091L227.602703125,138.4602666015625L228.1915,136.35876611328126L228.58403125,138.61723862711588L228.84571875,136.95408129882813L229.172828125,138.12304040527343L229.303671875,138.3516365966797L229.43451562500002,138.61848819986977L229.56535937499999,137.6107443847656L229.696203125,138.46523608398437L229.89246874999998,137.72987872314454L229.957890625,138.64979833984376L230.0233125,139.54481412760416L230.219578125,137.94459997558593L230.285,137.89796126302082L230.350421875,138.21590130615235L230.41584375,137.29617614746093L230.612109375,138.23384545898438L230.67753125,137.932106648763L230.742953125,137.8314062093099L230.93921874999998,138.47460727945963L231.004640625,138.8234589436849L231.135484375,139.10039115397134L231.20090624999997,138.29416585286458L231.46259375,138.95998647054037L231.5934375,137.2255926920573L231.658859375,139.20538887532553L231.72428125,138.94985664876302L231.98596874999998,138.10158520507812L232.1168125,138.36061047363282L232.24765624999998,138.6326524251302L232.443921875,138.45195772298177L233.03271875,138.96777559407553L233.228984375,138.37801686604817L233.359828125,138.4573329264323L233.490671875,139.34288028971355L233.621515625,138.50185660807293L233.752359375,138.08044689941406L233.948625,138.81819297281902L234.34115624999998,138.75819067382812L234.60284374999998,138.17775992838543L234.7336875,138.99183677164714L234.92995312500003,139.27474436442057L235.19164062500002,139.63457690429686L235.453328125,139.44869665527344L235.715015625,139.1711522623698L235.976703125,139.50996173095703L236.369234375,139.90966416422526L236.56550000000001,139.3272372233073L236.8271875,139.0711636352539L236.95803125,139.0159171549479L237.21971875,139.86294502766927L237.285140625,140.223525390625L237.74309374999999,139.5797853597005L237.939359375,139.66740669759116L238.00478124999998,139.77940010579428L238.331890625,139.33115279134114L238.3973125,139.9754701944987L238.462734375,139.7057821451823L238.593578125,139.47411783854167L238.78984375,137.9176495361328L239.11695312499998,138.89755104573567L239.31321875,139.40299182128905L239.37864062499997,139.614626953125L239.509484375,139.8230763346354L239.902015625,139.1154448445638L240.556234375,139.99935371907551L241.01418750000002,140.15149670410156L241.210453125,139.65866689046223L241.275875,139.80742126464844L241.66840625,139.39919388834636L241.733828125,139.741384765625L241.79925,140.00375063069663L241.864671875,140.56378369140626L241.93009375,139.35133681233725L241.995515625,139.27108807373048" style="fill: none;" fill="none"></path></g></g></g></g></g></g><g transform="translate(68, 177)" clip-path="url(#clip_1)"><clipPath id="clip_1"><rect width="261" height="23"></rect></clipPath><g><g><line x1="0" y1="0" x2="0" y2="5" style="visibility: inherit;" fill="rgb(0, 0, 0)" stroke="rgb(204, 204, 204)" stroke-width="1px"></line><line x1="32.7109375" y1="0" x2="32.7109375" y2="5" style="visibility: inherit;" fill="rgb(0, 0, 0)" stroke="rgb(204, 204, 204)" stroke-width="1px"></line><line x1="65.421875" y1="0" x2="65.421875" y2="5" style="visibility: inherit;" fill="rgb(0, 0, 0)" stroke="rgb(204, 204, 204)" stroke-width="1px"></line><line x1="98.1328125" y1="0" x2="98.1328125" y2="5" style="visibility: inherit;" fill="rgb(0, 0, 0)" stroke="rgb(204, 204, 204)" stroke-width="1px"></line><line x1="130.84375" y1="0" x2="130.84375" y2="5" style="visibility: inherit;" fill="rgb(0, 0, 0)" stroke="rgb(204, 204, 204)" stroke-width="1px"></line><line x1="163.5546875" y1="0" x2="163.5546875" y2="5" style="visibility: inherit;" fill="rgb(0, 0, 0)" stroke="rgb(204, 204, 204)" stroke-width="1px"></line><line x1="196.265625" y1="0" x2="196.265625" y2="5" style="visibility: inherit;" fill="rgb(0, 0, 0)" stroke="rgb(204, 204, 204)" stroke-width="1px"></line><line x1="228.9765625" y1="0" x2="228.9765625" y2="5" style="visibility: inherit;" fill="rgb(0, 0, 0)" stroke="rgb(204, 204, 204)" stroke-width="1px"></line><line x1="261.6875" y1="0" x2="261.6875" y2="5" style="visibility: inherit;" fill="rgb(0, 0, 0)" stroke="rgb(204, 204, 204)" stroke-width="1px"></line></g><g transform="translate(0, 8)"><text x="0" y="0" dx="0em" dy="0.95em" style="text-anchor: middle; visibility: hidden; font-family: &quot;Helvetica Neue&quot;, sans-serif; font-size: 12px; font-weight: 200;" fill="rgb(50, 49, 63)" stroke="none" stroke-width="1px">-500</text><text x="32.7109375" y="0" dx="0em" dy="0.95em" style="text-anchor: middle; visibility: inherit; font-family: &quot;Helvetica Neue&quot;, sans-serif; font-size: 12px; font-weight: 200;" fill="rgb(50, 49, 63)" stroke="none" stroke-width="1px">0</text><text x="65.421875" y="0" dx="0em" dy="0.95em" style="text-anchor: middle; visibility: inherit; font-family: &quot;Helvetica Neue&quot;, sans-serif; font-size: 12px; font-weight: 200;" fill="rgb(50, 49, 63)" stroke="none" stroke-width="1px">500</text><text x="98.1328125" y="0" dx="0em" dy="0.95em" style="text-anchor: middle; visibility: inherit; font-family: &quot;Helvetica Neue&quot;, sans-serif; font-size: 12px; font-weight: 200;" fill="rgb(50, 49, 63)" stroke="none" stroke-width="1px">1k</text><text x="130.84375" y="0" dx="0em" dy="0.95em" style="text-anchor: middle; visibility: inherit; font-family: &quot;Helvetica Neue&quot;, sans-serif; font-size: 12px; font-weight: 200;" fill="rgb(50, 49, 63)" stroke="none" stroke-width="1px">1.5k</text><text x="163.5546875" y="0" dx="0em" dy="0.95em" style="text-anchor: middle; visibility: inherit; font-family: &quot;Helvetica Neue&quot;, sans-serif; font-size: 12px; font-weight: 200;" fill="rgb(50, 49, 63)" stroke="none" stroke-width="1px">2k</text><text x="196.265625" y="0" dx="0em" dy="0.95em" style="text-anchor: middle; visibility: inherit; font-family: &quot;Helvetica Neue&quot;, sans-serif; font-size: 12px; font-weight: 200;" fill="rgb(50, 49, 63)" stroke="none" stroke-width="1px">2.5k</text><text x="228.9765625" y="0" dx="0em" dy="0.95em" style="text-anchor: middle; visibility: inherit; font-family: &quot;Helvetica Neue&quot;, sans-serif; font-size: 12px; font-weight: 200;" fill="rgb(50, 49, 63)" stroke="none" stroke-width="1px">3k</text><text x="261.6875" y="0" dx="0em" dy="0.95em" style="text-anchor: middle; visibility: hidden; font-family: &quot;Helvetica Neue&quot;, sans-serif; font-size: 12px; font-weight: 200;" fill="rgb(50, 49, 63)" stroke="none" stroke-width="1px">3.5k</text></g><line x1="0" y1="0" x2="261.6875" y2="0" fill="rgb(0, 0, 0)" stroke="rgb(204, 204, 204)" stroke-width="1px"></line></g></g></g></g></svg>